<svg width="685" height="400" viewBox="0 0 685 400" fill="none" xmlns="http://www.w3.org/2000/svg">
<rect width="685" height="400" rx="16" fill="white"/>
<path d="M43.3245 54.0483L46.7258 54.0433L46.718 48.8275L49.5773 48.8232C53.277 48.8177 55.426 46.6072 55.4213 43.3945C55.4165 40.1975 53.3001 37.9462 49.6475 37.9516L43.3006 37.9611L43.3245 54.0483ZM46.714 46.1018L46.706 40.7367L48.9997 40.7333C50.9634 40.7304 51.9155 41.7973 51.9179 43.3997C51.9203 44.9943 50.9714 46.0954 49.0234 46.0983L46.714 46.1018ZM62.8409 54.2549C66.5013 54.2495 68.7756 51.7403 68.7701 48.0248C68.7645 44.2858 66.4828 41.7913 62.8223 41.7967C59.1618 41.8022 56.8876 44.3035 56.8932 48.0425C56.8987 51.758 59.1804 54.2604 62.8409 54.2549ZM62.8527 51.6627C61.1639 51.6652 60.2975 50.1191 60.2944 48.0139C60.2912 45.9087 61.153 44.3521 62.8418 44.3496C64.4993 44.3471 65.3656 45.9012 65.3688 48.0063C65.3719 50.1115 64.5101 51.6602 62.8527 51.6627ZM80.9808 45.3673C80.679 43.1448 78.886 41.7728 75.8382 41.7773C72.7512 41.7819 70.7188 43.2146 70.7301 45.5397C70.725 47.3464 71.8657 48.5151 74.2229 48.9829L76.313 49.3961C77.3659 49.6066 77.8456 49.9908 77.8623 50.5956C77.8476 51.3104 77.0707 51.8222 75.9003 51.8239C74.7063 51.8257 73.9122 51.3163 73.7065 50.3347L70.4155 50.5124C70.7331 52.8214 72.699 54.2402 75.896 54.2355C79.0224 54.2308 81.2587 52.6329 81.263 50.2528C81.2525 48.509 80.112 47.4659 77.7705 46.9902L75.5861 46.5536C74.4625 46.3118 74.0456 45.9275 74.0526 45.3462C74.0436 44.6236 74.8599 44.151 75.8967 44.1495C77.0593 44.1478 77.7515 44.783 77.9176 45.5604L80.9808 45.3673ZM83.3757 53.9887L86.722 53.9837L86.704 41.9182L83.3577 41.9232L83.3757 53.9887ZM85.0364 40.3654C86.034 40.3639 86.8498 39.6008 86.8484 38.666C86.847 37.7391 86.029 36.9784 85.0314 36.9799C84.0416 36.9813 83.2258 37.7445 83.2272 38.6714C83.2286 39.6062 84.0467 40.3669 85.0364 40.3654ZM95.8022 41.9047L93.532 41.9081L93.5277 39.0174L90.1815 39.0224L90.1858 41.9131L88.5362 41.9155L88.5399 44.4291L90.1895 44.4267L90.1989 50.7108C90.1867 53.0752 91.7987 54.2432 94.2258 54.1374C95.0898 54.1047 95.7023 53.931 96.0399 53.8205L95.5099 51.3313C95.3449 51.3629 94.9916 51.442 94.6774 51.4425C94.0097 51.4435 93.5459 51.1928 93.5445 50.2659L93.5358 44.4217L95.8059 44.4183L95.8022 41.9047ZM97.9999 53.9669L101.346 53.9619L101.328 41.8965L97.9819 41.9014L97.9999 53.9669ZM99.6606 40.3436C100.658 40.3421 101.474 39.579 101.473 38.6442C101.471 37.7173 100.653 36.9566 99.6556 36.9581C98.6658 36.9596 97.85 37.7227 97.8514 38.6496C97.8528 39.5844 98.6709 40.3451 99.6606 40.3436ZM109.479 54.1854C113.139 54.18 115.413 51.6708 115.408 47.9553C115.402 44.2163 113.12 41.7218 109.46 41.7272C105.799 41.7327 103.525 44.234 103.531 47.973C103.536 51.6885 105.818 54.1909 109.479 54.1854ZM109.49 51.5932C107.802 51.5957 106.935 50.0496 106.932 47.9444C106.929 45.8392 107.791 44.2826 109.479 44.2801C111.137 44.2776 112.003 45.8317 112.006 47.9368C112.01 50.042 111.148 51.5907 109.49 51.5932ZM120.928 46.9574C120.934 45.402 121.859 44.4895 123.211 44.4875C124.554 44.4855 125.364 45.364 125.358 46.8408L125.369 53.9261L128.715 53.9211L128.704 46.2388C128.7 43.4267 127.048 41.701 124.534 41.7048C122.743 41.7074 121.448 42.5891 120.908 43.996L120.767 43.9962L120.764 41.8675L117.575 41.8722L117.592 53.9377L120.939 53.9327L120.928 46.9574ZM135.903 40.6274L140.828 40.6201L140.847 53.903L144.209 53.898L144.19 40.615L149.115 40.6077L149.111 37.8034L135.898 37.8231L135.903 40.6274ZM149.995 53.8894L153.341 53.8844L153.331 47.0583C153.329 45.5737 154.411 44.5509 155.888 44.5487C156.351 44.548 156.988 44.6257 157.302 44.7273L157.298 41.7581C156.999 41.6878 156.583 41.6413 156.245 41.6418C154.894 41.6438 153.787 42.431 153.35 43.9241L153.224 43.9243L153.221 41.8191L149.977 41.824L149.995 53.8894ZM162.141 54.0991C163.924 54.0964 165.078 53.3171 165.665 52.1929L165.759 52.1928L165.762 53.8659L168.935 53.8612L168.923 45.7233C168.919 42.8483 166.482 41.6423 163.796 41.6463C160.905 41.6506 159.006 43.0359 158.546 45.236L161.641 45.4828C161.868 44.6812 162.582 44.091 163.784 44.0892C164.923 44.0875 165.575 44.66 165.577 45.6497L165.577 45.6969C165.578 46.4745 164.753 46.5779 162.656 46.7852C160.269 47.0087 158.126 47.8131 158.13 50.5074C158.133 52.8954 159.839 54.1025 162.141 54.0991ZM163.096 51.7883C162.067 51.7898 161.328 51.3117 161.326 50.3927C161.325 49.4501 162.102 48.9855 163.28 48.8188C164.01 48.7156 165.204 48.541 165.604 48.2733L165.606 49.5537C165.608 50.8183 164.565 51.7861 163.096 51.7883ZM176.983 54.0848C180.196 54.08 182.212 52.1918 182.365 49.4187L179.207 49.4234C179.013 50.712 178.165 51.4359 177.019 51.4376C175.455 51.4399 174.44 50.1296 174.437 47.8202C174.433 45.5423 175.453 44.2368 177.008 44.2345C178.233 44.2327 179.02 45.0406 179.202 46.2421L182.36 46.2374C182.215 43.4491 180.099 41.622 176.949 41.6267C173.289 41.6321 171.03 44.1727 171.036 47.8724C171.041 51.5408 173.268 54.0904 176.983 54.0848ZM184.514 53.838L187.86 53.833L187.855 49.9997L188.756 48.9693L192.055 53.8267L195.975 53.8209L191.259 46.9861L195.729 41.7558L191.888 41.7615L188.03 46.3468L187.849 46.3471L187.836 37.7457L184.49 37.7507L184.514 53.838ZM197.388 53.8188L200.735 53.8138L200.717 41.7484L197.37 41.7534L197.388 53.8188ZM199.049 40.1955C200.047 40.1941 200.863 39.4309 200.861 38.4961C200.86 37.5692 200.042 36.8085 199.044 36.81C198.054 36.8115 197.239 37.5746 197.24 38.5015C197.241 39.4363 198.059 40.197 199.049 40.1955ZM206.751 46.8295C206.757 45.2742 207.682 44.3616 209.033 44.3596C210.377 44.3576 211.187 45.2361 211.181 46.7129L211.192 53.7982L214.538 53.7932L214.527 46.1109C214.522 43.2988 212.87 41.5732 210.357 41.5769C208.566 41.5796 207.271 42.4613 206.731 43.8681L206.59 43.8684L206.586 41.7396L203.397 41.7444L203.415 53.8098L206.762 53.8048L206.751 46.8295ZM222.618 58.5571C226.067 58.552 228.515 56.9773 228.511 53.8902L228.492 41.707L225.17 41.7119L225.173 43.7385L225.047 43.7387C224.598 42.7575 223.614 41.5571 221.595 41.5602C218.948 41.5641 216.713 43.6255 216.719 47.7337C216.725 51.7476 218.903 53.6139 221.621 53.6099C223.546 53.607 224.62 52.6392 225.059 51.641L225.2 51.6407L225.203 53.848C225.206 55.5055 224.146 56.1512 222.693 56.1533C221.217 56.1555 220.469 55.5125 220.193 54.7824L217.099 55.2033C217.502 57.1037 219.366 58.5619 222.618 58.5571ZM222.678 51.0946C221.036 51.0971 220.139 49.7945 220.136 47.7129C220.133 45.6627 221.01 44.2239 222.668 44.2214C224.294 44.219 225.207 45.5923 225.21 47.7053C225.213 49.8341 224.288 51.0922 222.678 51.0946Z" fill="#171A22"/>
<rect x="70.7512" y="190.01" width="573.444" height="0.542128" fill="#E9EBEF"/>
<rect x="70.751" y="295.183" width="573.444" height="0.542128" fill="#E9EBEF"/>
<rect x="70.751" y="242.596" width="573.444" height="0.542128" fill="#E9EBEF"/>
<rect x="70.751" y="347.769" width="573.444" height="0.542128" fill="#E9EBEF"/>
<path d="M42.6776 297.961H43.4163L46.0072 292.802V292.143H42.2799V292.768H45.2799V292.814L42.6776 297.961ZM48.8389 298.041C50.123 298.041 50.8616 296.953 50.8616 295.052C50.8616 293.166 50.1116 292.064 48.8389 292.064C47.5661 292.064 46.8161 293.166 46.8161 295.052C46.8161 296.953 47.5548 298.041 48.8389 298.041ZM48.8389 297.416C47.9923 297.416 47.498 296.567 47.498 295.052C47.498 293.541 47.998 292.677 48.8389 292.677C49.6798 292.677 50.1798 293.541 50.1798 295.052C50.1798 296.567 49.6855 297.416 48.8389 297.416ZM54.907 296.871C54.907 297.507 55.3048 298.041 56.0434 298.041C56.7707 298.041 57.1684 297.507 57.1684 296.871V296.564C57.1684 295.927 56.782 295.393 56.0434 295.393C55.3161 295.393 54.907 295.927 54.907 296.564V296.871ZM52.0093 293.541C52.0093 294.177 52.407 294.711 53.1457 294.711C53.873 294.711 54.2707 294.177 54.2707 293.541V293.234C54.2707 292.598 53.8843 292.064 53.1457 292.064C52.4184 292.064 52.0093 292.598 52.0093 293.234V293.541ZM52.2252 297.961H52.873L56.873 292.143H56.2252L52.2252 297.961ZM55.4866 296.564C55.4866 296.211 55.6457 295.882 56.0434 295.882C56.4525 295.882 56.5889 296.211 56.5889 296.564V296.871C56.5889 297.223 56.4411 297.552 56.0434 297.552C55.6343 297.552 55.4866 297.223 55.4866 296.871V296.564ZM52.5889 293.234C52.5889 292.882 52.748 292.552 53.1457 292.552C53.5548 292.552 53.6911 292.882 53.6911 293.234V293.541C53.6911 293.893 53.5434 294.223 53.1457 294.223C52.7366 294.223 52.5889 293.893 52.5889 293.541V293.234Z" fill="#898D9A"/>
<path d="M44.4276 351.17C45.6038 351.184 46.3708 350.298 46.3708 349.215C46.3708 348.09 45.5384 347.283 44.5413 347.283C43.9419 347.283 43.4276 347.576 43.1095 348.056H43.064C43.0669 346.639 43.618 345.817 44.5186 345.817C45.1322 345.817 45.5015 346.204 45.6322 346.727H46.3254C46.1833 345.823 45.4958 345.192 44.5186 345.192C43.2089 345.192 42.4049 346.352 42.4049 348.408C42.4049 350.559 43.4731 351.158 44.4276 351.17ZM44.4276 350.545C43.6975 350.545 43.1634 349.923 43.1663 349.227C43.1691 348.531 43.7288 347.908 44.4504 347.908C45.1634 347.908 45.689 348.494 45.689 349.215C45.689 349.954 45.1407 350.545 44.4276 350.545ZM49.3517 351.17C50.5136 351.17 51.3232 350.491 51.3289 349.545C51.3232 348.809 50.8318 348.184 50.2039 348.067V348.033C50.7494 347.891 51.1073 347.357 51.113 346.738C51.1073 345.852 50.363 345.192 49.3517 345.192C48.3289 345.192 47.5846 345.852 47.5903 346.738C47.5846 347.357 47.9426 347.891 48.4994 348.033V348.067C47.8602 348.184 47.3687 348.809 47.3744 349.545C47.3687 350.491 48.1784 351.17 49.3517 351.17ZM49.3517 350.545C48.5534 350.545 48.0619 350.136 48.0676 349.511C48.0619 348.854 48.6045 348.386 49.3517 348.386C50.0874 348.386 50.6301 348.854 50.6357 349.511C50.6301 350.136 50.1386 350.545 49.3517 350.545ZM49.3517 347.783C48.7153 347.783 48.2664 347.386 48.2721 346.783C48.2664 346.192 48.6982 345.806 49.3517 345.806C49.9937 345.806 50.4255 346.192 50.4312 346.783C50.4255 347.386 49.9767 347.783 49.3517 347.783ZM55.3836 349.999C55.3836 350.636 55.7813 351.17 56.52 351.17C57.2472 351.17 57.645 350.636 57.645 349.999V349.692C57.645 349.056 57.2586 348.522 56.52 348.522C55.7927 348.522 55.3836 349.056 55.3836 349.692V349.999ZM52.4859 346.67C52.4859 347.306 52.8836 347.84 53.6222 347.84C54.3495 347.84 54.7472 347.306 54.7472 346.67V346.363C54.7472 345.727 54.3609 345.192 53.6222 345.192C52.895 345.192 52.4859 345.727 52.4859 346.363V346.67ZM52.7018 351.09H53.3495L57.3495 345.272H56.7018L52.7018 351.09ZM55.9632 349.692C55.9632 349.34 56.1222 349.011 56.52 349.011C56.9291 349.011 57.0654 349.34 57.0654 349.692V349.999C57.0654 350.352 56.9177 350.681 56.52 350.681C56.1109 350.681 55.9632 350.352 55.9632 349.999V349.692ZM53.0654 346.363C53.0654 346.011 53.2245 345.681 53.6222 345.681C54.0313 345.681 54.1677 346.011 54.1677 346.363V346.67C54.1677 347.022 54.02 347.352 53.6222 347.352C53.2132 347.352 53.0654 347.022 53.0654 346.67V346.363Z" fill="#898D9A"/>
<path d="M42.6776 244.833H43.4163L46.0072 239.674V239.015H42.2799V239.64H45.2799V239.685L42.6776 244.833ZM47.0661 244.833H50.7366V244.208H48.032V244.163L49.3389 242.765C50.3389 241.694 50.6343 241.194 50.6343 240.549C50.6343 239.651 49.907 238.935 48.8843 238.935C47.8644 238.935 47.0889 239.628 47.0889 240.651H47.7593C47.7593 239.989 48.1883 239.549 48.8616 239.549C49.4923 239.549 49.9752 239.935 49.9752 240.549C49.9752 241.086 49.6599 241.484 48.9866 242.219L47.0661 244.322V244.833ZM54.8758 243.742C54.8758 244.378 55.2735 244.913 56.0122 244.913C56.7394 244.913 57.1372 244.378 57.1372 243.742V243.435C57.1372 242.799 56.7508 242.265 56.0122 242.265C55.2849 242.265 54.8758 242.799 54.8758 243.435V243.742ZM51.9781 240.413C51.9781 241.049 52.3758 241.583 53.1144 241.583C53.8417 241.583 54.2394 241.049 54.2394 240.413V240.106C54.2394 239.469 53.8531 238.935 53.1144 238.935C52.3872 238.935 51.9781 239.469 51.9781 240.106V240.413ZM52.194 244.833H52.8417L56.8417 239.015H56.194L52.194 244.833ZM55.4553 243.435C55.4553 243.083 55.6144 242.753 56.0122 242.753C56.4213 242.753 56.5576 243.083 56.5576 243.435V243.742C56.5576 244.094 56.4099 244.424 56.0122 244.424C55.6031 244.424 55.4553 244.094 55.4553 243.742V243.435ZM52.5576 240.106C52.5576 239.753 52.7167 239.424 53.1144 239.424C53.5235 239.424 53.6599 239.753 53.6599 240.106V240.413C53.6599 240.765 53.5122 241.094 53.1144 241.094C52.7053 241.094 52.5576 240.765 52.5576 240.413V240.106Z" fill="#898D9A"/>
<path d="M42.6776 192.789H43.4163L46.0072 187.63V186.971H42.2799V187.596H45.2799V187.641L42.6776 192.789ZM46.461 191.596H49.1997V192.789H49.8701V191.596H50.6656V190.971H49.8701V186.971H49.0178L46.461 191.016V191.596ZM49.1997 190.971H47.2224V190.925L49.1542 187.868H49.1997V190.971ZM54.6961 191.698C54.6961 192.334 55.0938 192.868 55.8325 192.868C56.5597 192.868 56.9575 192.334 56.9575 191.698V191.391C56.9575 190.755 56.5711 190.221 55.8325 190.221C55.1052 190.221 54.6961 190.755 54.6961 191.391V191.698ZM51.7984 188.368C51.7984 189.005 52.1961 189.539 52.9347 189.539C53.662 189.539 54.0597 189.005 54.0597 188.368V188.061C54.0597 187.425 53.6734 186.891 52.9347 186.891C52.2075 186.891 51.7984 187.425 51.7984 188.061V188.368ZM52.0143 192.789H52.662L56.662 186.971H56.0143L52.0143 192.789ZM55.2757 191.391C55.2757 191.039 55.4347 190.709 55.8325 190.709C56.2416 190.709 56.3779 191.039 56.3779 191.391V191.698C56.3779 192.05 56.2302 192.38 55.8325 192.38C55.4234 192.38 55.2757 192.05 55.2757 191.698V191.391ZM52.3779 188.061C52.3779 187.709 52.537 187.38 52.9347 187.38C53.3438 187.38 53.4802 187.709 53.4802 188.061V188.368C53.4802 188.721 53.3325 189.05 52.9347 189.05C52.5257 189.05 52.3779 188.721 52.3779 188.368V188.061Z" fill="#898D9A"/>
<rect opacity="0.1" x="557.36" y="190.552" width="86.8352" height="157.759" fill="#84D149"/>
<path d="M76.7373 335.752H95.6526L114.568 341.745L135.512 344.469L154.399 330.848L173.286 344.469L191.961 330.848L210.636 335.752L228.059 330.848H246.975L267.085 335.752L284.805 330.848L303.72 326.489L322.636 319.406L341.551 310.144L360.466 305.241H379.381L398.297 307.965L417.212 293.254L436.127 273.095L455.042 260.019L473.958 255.115L492.873 264.378L511.788 293.254L530.703 248.032L549.619 260.019L568.534 248.032L587.449 202.811L606.364 231.687L625.28 236.591L644.195 220.246" stroke="#84D149" stroke-width="3"/>
<path d="M579.884 335.563H583.5V334.679H580.938V329.745H579.884V335.563ZM585.625 335.651C586.31 335.651 586.719 335.33 586.906 334.964H586.941V335.563H587.929V332.643C587.929 331.489 586.989 331.143 586.156 331.143C585.239 331.143 584.534 331.552 584.307 332.347L585.267 332.483C585.37 332.185 585.659 331.929 586.162 331.929C586.639 331.929 586.901 332.174 586.901 332.603V332.62C586.901 332.915 586.591 332.929 585.821 333.012C584.975 333.103 584.165 333.356 584.165 334.339C584.165 335.197 584.793 335.651 585.625 335.651ZM585.892 334.895C585.463 334.895 585.156 334.699 585.156 334.322C585.156 333.927 585.5 333.762 585.96 333.697C586.23 333.66 586.77 333.591 586.904 333.483V333.998C586.904 334.483 586.512 334.895 585.892 334.895ZM592.412 332.353C592.27 331.614 591.679 331.143 590.656 331.143C589.605 331.143 588.889 331.66 588.892 332.466C588.889 333.103 589.281 333.523 590.12 333.697L590.864 333.853C591.264 333.941 591.452 334.103 591.452 334.35C591.452 334.648 591.128 334.873 590.639 334.873C590.168 334.873 589.861 334.668 589.773 334.276L588.77 334.373C588.898 335.174 589.571 335.648 590.642 335.648C591.733 335.648 592.503 335.083 592.506 334.256C592.503 333.634 592.102 333.253 591.279 333.074L590.534 332.915C590.091 332.816 589.915 332.662 589.918 332.41C589.915 332.114 590.242 331.91 590.671 331.91C591.145 331.91 591.395 332.168 591.475 332.455L592.412 332.353ZM595.533 331.199H594.672V330.154H593.644V331.199H593.024V331.995H593.644V334.421C593.638 335.242 594.235 335.645 595.007 335.623C595.3 335.614 595.502 335.557 595.612 335.52L595.439 334.716C595.382 334.731 595.266 334.756 595.138 334.756C594.879 334.756 594.672 334.665 594.672 334.25V331.995H595.533V331.199ZM598.579 335.563H599.673L602.144 330.645V329.745H598.181V330.625H601.053V330.665L598.579 335.563ZM606.676 335.64C607.426 335.64 607.764 335.194 607.926 334.875H607.989V335.563H609V329.745H607.969V331.921H607.926C607.77 331.606 607.449 331.143 606.679 331.143C605.671 331.143 604.878 331.932 604.878 333.387C604.878 334.824 605.648 335.64 606.676 335.64ZM606.963 334.796C606.284 334.796 605.926 334.199 605.926 333.381C605.926 332.569 606.279 331.986 606.963 331.986C607.625 331.986 607.989 332.535 607.989 333.381C607.989 334.228 607.62 334.796 606.963 334.796ZM611.352 335.651C612.036 335.651 612.446 335.33 612.633 334.964H612.667V335.563H613.656V332.643C613.656 331.489 612.715 331.143 611.883 331.143C610.965 331.143 610.261 331.552 610.034 332.347L610.994 332.483C611.096 332.185 611.386 331.929 611.889 331.929C612.366 331.929 612.627 332.174 612.627 332.603V332.62C612.627 332.915 612.318 332.929 611.548 333.012C610.701 333.103 609.892 333.356 609.892 334.339C609.892 335.197 610.519 335.651 611.352 335.651ZM611.619 334.895C611.19 334.895 610.883 334.699 610.883 334.322C610.883 333.927 611.227 333.762 611.687 333.697C611.957 333.66 612.497 333.591 612.63 333.483V333.998C612.63 334.483 612.238 334.895 611.619 334.895ZM615.173 337.199C615.974 337.199 616.437 336.787 616.684 336.091L618.437 331.205L617.338 331.199L616.329 334.495H616.284L615.278 331.199H614.187L615.769 335.654L615.681 335.89C615.491 336.387 615.19 336.421 614.741 336.29L614.502 337.091C614.642 337.148 614.892 337.199 615.173 337.199ZM622.6 332.353C622.458 331.614 621.867 331.143 620.844 331.143C619.793 331.143 619.077 331.66 619.08 332.466C619.077 333.103 619.469 333.523 620.307 333.697L621.051 333.853C621.452 333.941 621.639 334.103 621.639 334.35C621.639 334.648 621.316 334.873 620.827 334.873C620.355 334.873 620.049 334.668 619.96 334.276L618.958 334.373C619.085 335.174 619.759 335.648 620.83 335.648C621.921 335.648 622.691 335.083 622.693 334.256C622.691 333.634 622.29 333.253 621.466 333.074L620.722 332.915C620.279 332.816 620.102 332.662 620.105 332.41C620.102 332.114 620.429 331.91 620.858 331.91C621.333 331.91 621.583 332.168 621.662 332.455L622.6 332.353Z" fill="#575C66"/>
<circle cx="79.0427" cy="335.247" r="3.80536" fill="white" stroke="#84D149" stroke-width="3"/>
<circle cx="97.881" cy="336.338" r="3.80536" fill="white" stroke="#84D149" stroke-width="3"/>
<circle cx="116.719" cy="342.164" r="3.80536" fill="white" stroke="#84D149" stroke-width="3"/>
<circle cx="135.558" cy="344.469" r="3.80536" fill="white" stroke="#84D149" stroke-width="3"/>
<circle cx="154.396" cy="331.727" r="3.80536" fill="white" stroke="#84D149" stroke-width="3"/>
<circle cx="173.235" cy="343.7" r="3.80536" fill="white" stroke="#84D149" stroke-width="3"/>
<circle cx="192.073" cy="330.637" r="3.80536" fill="white" stroke="#84D149" stroke-width="3"/>
<circle cx="210.912" cy="336.338" r="3.80536" fill="white" stroke="#84D149" stroke-width="3"/>
<circle cx="229.75" cy="329.868" r="3.80536" fill="white" stroke="#84D149" stroke-width="3"/>
<circle cx="248.589" cy="330.637" r="3.80536" fill="white" stroke="#84D149" stroke-width="3"/>
<circle cx="267.427" cy="335.247" r="3.80536" fill="white" stroke="#84D149" stroke-width="3"/>
<circle cx="286.265" cy="330.637" r="3.80536" fill="white" stroke="#84D149" stroke-width="3"/>
<circle cx="305.104" cy="325.258" r="3.80536" fill="white" stroke="#84D149" stroke-width="3"/>
<circle cx="323.942" cy="319.11" r="3.80536" fill="white" stroke="#84D149" stroke-width="3"/>
<circle cx="342.78" cy="309.12" r="3.80536" fill="white" stroke="#84D149" stroke-width="3"/>
<circle cx="361.619" cy="304.509" r="3.80536" fill="white" stroke="#84D149" stroke-width="3"/>
<circle cx="380.457" cy="304.509" r="3.80536" fill="white" stroke="#84D149" stroke-width="3"/>
<circle cx="399.296" cy="306.815" r="3.80536" fill="white" stroke="#84D149" stroke-width="3"/>
<circle cx="418.134" cy="292.877" r="3.80536" fill="white" stroke="#84D149" stroke-width="3"/>
<circle cx="436.973" cy="271.737" r="3.80536" fill="white" stroke="#84D149" stroke-width="3"/>
<circle cx="455.811" cy="260.007" r="3.80536" fill="white" stroke="#84D149" stroke-width="3"/>
<circle cx="474.65" cy="255.396" r="3.80536" fill="white" stroke="#84D149" stroke-width="3"/>
<circle cx="493.488" cy="266.155" r="3.80536" fill="white" stroke="#84D149" stroke-width="3"/>
<circle cx="512.326" cy="294.519" r="3.80536" fill="white" stroke="#84D149" stroke-width="3"/>
<circle cx="531.165" cy="248.48" r="3.80536" fill="white" stroke="#84D149" stroke-width="3"/>
<circle cx="550.003" cy="258.698" r="3.80536" fill="white" stroke="#84D149" stroke-width="3"/>
<circle cx="568.841" cy="247.271" r="3.80536" fill="white" stroke="#84D149" stroke-width="3"/>
<circle cx="587.68" cy="203.969" r="3.80536" fill="white" stroke="#84D149" stroke-width="3"/>
<circle cx="606.518" cy="231.506" r="3.80536" fill="white" stroke="#84D149" stroke-width="3"/>
<circle cx="625.357" cy="236.117" r="3.80536" fill="white" stroke="#84D149" stroke-width="3"/>
<circle cx="644.195" cy="220.902" r="3.80536" fill="white" stroke="#84D149" stroke-width="3"/>
<rect x="42.6309" y="97.5607" width="603.869" height="0.737332" fill="#E9EBEF"/>
<rect x="109.752" y="73.2288" width="79.283" height="25.0693" fill="#E9EBEF"/>
<rect x="110.707" y="73.9661" width="77.3729" height="25.0693" fill="white"/>
<path d="M42.5461 89.1274H47.3518V87.8188H44.1333V81.6201H42.5461V89.1274ZM49.9792 89.2337C50.8113 89.2337 51.3502 88.8708 51.6251 88.3466H51.6691V89.1274H53.15V85.3298C53.15 83.9881 52.0137 83.4236 50.76 83.4236C49.411 83.4236 48.5239 84.0688 48.3076 85.0952L49.7519 85.2125C49.8582 84.8386 50.1918 84.5636 50.7527 84.5636C51.2842 84.5636 51.5884 84.8312 51.5884 85.2931V85.3151C51.5884 85.678 51.2035 85.7257 50.2248 85.821C49.1104 85.9236 48.1097 86.2975 48.1097 87.5549C48.1097 88.6692 48.9051 89.2337 49.9792 89.2337ZM50.4264 88.156C49.9462 88.156 49.6016 87.9324 49.6016 87.5035C49.6016 87.0636 49.9645 86.8474 50.5144 86.7704C50.8553 86.7227 51.4125 86.6421 51.5994 86.5175V87.115C51.5994 87.7051 51.1119 88.156 50.4264 88.156ZM55.9231 85.8723C55.9268 85.1465 56.3594 84.7213 56.9899 84.7213C57.6167 84.7213 57.9943 85.1318 57.9906 85.821V89.1274H59.5522V85.5424C59.5522 84.2301 58.7824 83.4236 57.6094 83.4236C56.7736 83.4236 56.1687 83.8342 55.9158 84.4903H55.8498V83.4969H54.3616V89.1274H55.9231V85.8723ZM62.8578 89.2191C63.7668 89.2191 64.2397 88.6949 64.456 88.2257H64.522V89.1274H66.0616V81.6201H64.5037V84.4427H64.456C64.2471 83.9844 63.7962 83.4236 62.8541 83.4236C61.6187 83.4236 60.574 84.384 60.574 86.3195C60.574 88.2037 61.5748 89.2191 62.8578 89.2191ZM63.3526 87.9764C62.5865 87.9764 62.1686 87.2946 62.1686 86.3122C62.1686 85.3371 62.5792 84.6663 63.3526 84.6663C64.1114 84.6663 64.5366 85.3078 64.5366 86.3122C64.5366 87.3166 64.1041 87.9764 63.3526 87.9764ZM72.0303 85.1025C71.891 84.0651 71.0552 83.4236 69.6329 83.4236C68.1923 83.4236 67.2429 84.0908 67.2465 85.1758C67.2429 86.0189 67.7744 86.5651 68.8741 86.7851L69.8492 86.9793C70.3404 87.0783 70.564 87.2579 70.5713 87.5402C70.564 87.8738 70.2011 88.112 69.6549 88.112C69.0977 88.112 68.7275 87.8738 68.6322 87.4156L67.0962 87.4962C67.2429 88.5739 68.1593 89.2374 69.6512 89.2374C71.1102 89.2374 72.1549 88.4933 72.1586 87.3826C72.1549 86.5688 71.6234 86.0812 70.531 85.8576L69.5119 85.6523C68.9877 85.5387 68.7935 85.3591 68.7971 85.0878C68.7935 84.7506 69.1747 84.5306 69.6586 84.5306C70.2011 84.5306 70.5237 84.8276 70.6007 85.1905L72.0303 85.1025ZM75.6859 89.2374C77.1852 89.2374 78.1273 88.3576 78.2006 87.0636H76.727C76.6353 87.6648 76.2394 88.0021 75.7042 88.0021C74.9748 88.0021 74.5019 87.3899 74.5019 86.3122C74.5019 85.2491 74.9784 84.6406 75.7042 84.6406C76.2761 84.6406 76.6427 85.0182 76.727 85.579H78.2006C78.1346 84.2777 77.1485 83.4236 75.6786 83.4236C73.9704 83.4236 72.9146 84.6076 72.9146 86.3342C72.9146 88.0461 73.952 89.2374 75.6859 89.2374ZM80.806 89.2337C81.6381 89.2337 82.177 88.8708 82.4519 88.3466H82.4959V89.1274H83.9768V85.3298C83.9768 83.9881 82.8405 83.4236 81.5868 83.4236C80.2378 83.4236 79.3507 84.0688 79.1344 85.0952L80.5787 85.2125C80.685 84.8386 81.0186 84.5636 81.5795 84.5636C82.111 84.5636 82.4152 84.8312 82.4152 85.2931V85.3151C82.4152 85.678 82.0303 85.7257 81.0516 85.821C79.9372 85.9236 78.9365 86.2975 78.9365 87.5549C78.9365 88.6692 79.7319 89.2337 80.806 89.2337ZM81.2532 88.156C80.773 88.156 80.4284 87.9324 80.4284 87.5035C80.4284 87.0636 80.7913 86.8474 81.3412 86.7704C81.6821 86.7227 82.2393 86.6421 82.4262 86.5175V87.115C82.4262 87.7051 81.9387 88.156 81.2532 88.156ZM85.1883 91.2389H86.7499V88.2257H86.7976C87.0139 88.6949 87.4867 89.2191 88.3958 89.2191C89.6788 89.2191 90.6796 88.2037 90.6796 86.3195C90.6796 84.384 89.6349 83.4236 88.3995 83.4236C87.4574 83.4236 87.0065 83.9844 86.7976 84.4427H86.7279V83.4969H85.1883V91.2389ZM86.717 86.3122C86.717 85.3078 87.1422 84.6663 87.901 84.6663C88.6744 84.6663 89.085 85.3371 89.085 86.3122C89.085 87.2946 88.6671 87.9764 87.901 87.9764C87.1495 87.9764 86.717 87.3166 86.717 86.3122ZM94.2866 89.2374C95.6796 89.2374 96.618 88.5593 96.838 87.5145L95.3937 87.4192C95.2361 87.8481 94.8328 88.0717 94.3123 88.0717C93.5315 88.0717 93.0366 87.5549 93.0366 86.7154V86.7117H96.871V86.2828C96.871 84.3693 95.7126 83.4236 94.2243 83.4236C92.5674 83.4236 91.4934 84.6003 91.4934 86.3378C91.4934 88.123 92.5528 89.2374 94.2866 89.2374ZM93.0366 85.744C93.0696 85.1025 93.5572 84.5893 94.25 84.5893C94.9281 84.5893 95.3974 85.0732 95.401 85.744H93.0366Z" fill="#171A22"/>
<path d="M132.445 85.3738C132.445 82.9177 130.92 81.5174 128.93 81.5174C126.928 81.5174 125.414 82.9177 125.414 85.3738C125.414 87.8188 126.928 89.2301 128.93 89.2301C130.92 89.2301 132.445 87.8298 132.445 85.3738ZM130.836 85.3738C130.836 86.9647 130.081 87.8261 128.93 87.8261C127.775 87.8261 127.023 86.9647 127.023 85.3738C127.023 83.7828 127.775 82.9214 128.93 82.9214C130.081 82.9214 130.836 83.7828 130.836 85.3738ZM138.841 83.4969H137.187L136.022 87.5255H135.963L134.794 83.4969H133.144L135.113 89.1274H136.872L138.841 83.4969ZM142.014 89.2374C143.407 89.2374 144.346 88.5593 144.566 87.5145L143.121 87.4192C142.964 87.8481 142.56 88.0717 142.04 88.0717C141.259 88.0717 140.764 87.5549 140.764 86.7154V86.7117H144.599V86.2828C144.599 84.3693 143.44 83.4236 141.952 83.4236C140.295 83.4236 139.221 84.6003 139.221 86.3378C139.221 88.123 140.28 89.2374 142.014 89.2374ZM140.764 85.744C140.797 85.1025 141.285 84.5893 141.978 84.5893C142.656 84.5893 143.125 85.0732 143.129 85.744H140.764ZM145.618 89.1274H147.179V85.9419C147.179 85.2491 147.685 84.7726 148.374 84.7726C148.591 84.7726 148.887 84.8092 149.034 84.8569V83.4712C148.895 83.4383 148.701 83.4163 148.543 83.4163C147.912 83.4163 147.396 83.7828 147.19 84.4793H147.132V83.4969H145.618V89.1274ZM155.262 83.4969H153.609L152.443 87.5255H152.385L151.215 83.4969H149.566L151.534 89.1274H153.294L155.262 83.4969ZM156.061 89.1274H157.623V83.4969H156.061V89.1274ZM156.846 82.7711C157.311 82.7711 157.693 82.4155 157.693 81.9793C157.693 81.5468 157.311 81.1912 156.846 81.1912C156.384 81.1912 156.003 81.5468 156.003 81.9793C156.003 82.4155 156.384 82.7711 156.846 82.7711ZM161.44 89.2374C162.833 89.2374 163.771 88.5593 163.991 87.5145L162.547 87.4192C162.389 87.8481 161.986 88.0717 161.465 88.0717C160.685 88.0717 160.19 87.5549 160.19 86.7154V86.7117H164.024V86.2828C164.024 84.3693 162.866 83.4236 161.377 83.4236C159.721 83.4236 158.647 84.6003 158.647 86.3378C158.647 88.123 159.706 89.2374 161.44 89.2374ZM160.19 85.744C160.223 85.1025 160.71 84.5893 161.403 84.5893C162.081 84.5893 162.55 85.0732 162.554 85.744H160.19ZM166.114 89.1274H167.763L168.731 85.5864H168.801L169.768 89.1274H171.422L172.95 83.4969H171.374L170.516 87.2579H170.468L169.545 83.4969H167.994L167.085 87.2799H167.034L166.161 83.4969H164.581L166.114 89.1274Z" fill="#00A8FF"/>
<path d="M201.546 89.1274H203.133V86.4661H204.292L205.714 89.1274H207.466L205.872 86.2095C206.726 85.843 207.199 85.0988 207.199 84.0724C207.199 82.5805 206.213 81.6201 204.508 81.6201H201.546V89.1274ZM203.133 85.1905V82.9177H204.204C205.12 82.9177 205.564 83.3246 205.564 84.0724C205.564 84.8166 205.12 85.1905 204.211 85.1905H203.133ZM209.897 89.2337C210.729 89.2337 211.268 88.8708 211.542 88.3466H211.586V89.1274H213.067V85.3298C213.067 83.9881 211.931 83.4236 210.677 83.4236C209.328 83.4236 208.441 84.0688 208.225 85.0952L209.669 85.2125C209.776 84.8386 210.109 84.5636 210.67 84.5636C211.202 84.5636 211.506 84.8312 211.506 85.2931V85.3151C211.506 85.678 211.121 85.7257 210.142 85.821C209.028 85.9236 208.027 86.2975 208.027 87.5549C208.027 88.6692 208.822 89.2337 209.897 89.2337ZM210.344 88.156C209.864 88.156 209.519 87.9324 209.519 87.5035C209.519 87.0636 209.882 86.8474 210.432 86.7704C210.773 86.7227 211.33 86.6421 211.517 86.5175V87.115C211.517 87.7051 211.029 88.156 210.344 88.156ZM215.84 85.8723C215.844 85.1465 216.277 84.7213 216.907 84.7213C217.534 84.7213 217.912 85.1318 217.908 85.821V89.1274H219.47V85.5424C219.47 84.2301 218.7 83.4236 217.527 83.4236C216.691 83.4236 216.086 83.8342 215.833 84.4903H215.767V83.4969H214.279V89.1274H215.84V85.8723ZM220.7 89.1274H222.262V87.3386L222.683 86.8584L224.219 89.1274H226.049L223.853 85.9346L225.942 83.4969H224.15L222.346 85.634H222.262V81.6201H220.7V89.1274ZM226.708 89.1274H228.27V83.4969H226.708V89.1274ZM227.493 82.7711C227.958 82.7711 228.34 82.4155 228.34 81.9793C228.34 81.5468 227.958 81.1912 227.493 81.1912C227.031 81.1912 226.65 81.5468 226.65 81.9793C226.65 82.4155 227.031 82.7711 227.493 82.7711ZM231.083 85.8723C231.086 85.1465 231.519 84.7213 232.149 84.7213C232.776 84.7213 233.154 85.1318 233.15 85.821V89.1274H234.712V85.5424C234.712 84.2301 233.942 83.4236 232.769 83.4236C231.933 83.4236 231.328 83.8342 231.075 84.4903H231.009V83.4969H229.521V89.1274H231.083V85.8723ZM238.479 91.3562C240.088 91.3562 241.232 90.6231 241.232 89.1824V83.4969H239.681V84.4427H239.623C239.414 83.9844 238.956 83.4236 238.013 83.4236C236.778 83.4236 235.733 84.384 235.733 86.3012C235.733 88.1744 236.749 89.0468 238.017 89.0468C238.915 89.0468 239.417 88.5959 239.623 88.1304H239.689V89.1604C239.689 89.9339 239.194 90.2345 238.516 90.2345C237.827 90.2345 237.478 89.9339 237.35 89.593L235.906 89.7873C236.093 90.6744 236.961 91.3562 238.479 91.3562ZM238.512 87.8738C237.746 87.8738 237.328 87.2653 237.328 86.2938C237.328 85.3371 237.739 84.6663 238.512 84.6663C239.271 84.6663 239.696 85.3078 239.696 86.2938C239.696 87.2873 239.263 87.8738 238.512 87.8738ZM247.159 85.1025C247.02 84.0651 246.184 83.4236 244.762 83.4236C243.321 83.4236 242.372 84.0908 242.376 85.1758C242.372 86.0189 242.904 86.5651 244.003 86.7851L244.978 86.9793C245.47 87.0783 245.693 87.2579 245.7 87.5402C245.693 87.8738 245.33 88.112 244.784 88.112C244.227 88.112 243.857 87.8738 243.761 87.4156L242.225 87.4962C242.372 88.5739 243.288 89.2374 244.78 89.2374C246.239 89.2374 247.284 88.4933 247.288 87.3826C247.284 86.5688 246.753 86.0812 245.66 85.8576L244.641 85.6523C244.117 85.5387 243.923 85.3591 243.926 85.0878C243.923 84.7506 244.304 84.5306 244.788 84.5306C245.33 84.5306 245.653 84.8276 245.73 85.1905L247.159 85.1025ZM253.351 89.1274C255.638 89.1274 257.024 87.7125 257.024 85.3664C257.024 83.0277 255.638 81.6201 253.373 81.6201H250.689V89.1274H253.351ZM252.277 87.7675V82.98H253.288C254.696 82.98 255.44 83.6985 255.44 85.3664C255.44 87.0417 254.696 87.7675 253.285 87.7675H252.277ZM258.17 89.1274H259.732V83.4969H258.17V89.1274ZM258.955 82.7711C259.42 82.7711 259.802 82.4155 259.802 81.9793C259.802 81.5468 259.42 81.1912 258.955 81.1912C258.493 81.1912 258.112 81.5468 258.112 81.9793C258.112 82.4155 258.493 82.7711 258.955 82.7711ZM265.668 85.1025C265.528 84.0651 264.693 83.4236 263.27 83.4236C261.83 83.4236 260.88 84.0908 260.884 85.1758C260.88 86.0189 261.412 86.5651 262.511 86.7851L263.486 86.9793C263.978 87.0783 264.201 87.2579 264.209 87.5402C264.201 87.8738 263.838 88.112 263.292 88.112C262.735 88.112 262.365 87.8738 262.269 87.4156L260.734 87.4962C260.88 88.5739 261.797 89.2374 263.289 89.2374C264.747 89.2374 265.792 88.4933 265.796 87.3826C265.792 86.5688 265.261 86.0812 264.168 85.8576L263.149 85.6523C262.625 85.5387 262.431 85.3591 262.434 85.0878C262.431 84.7506 262.812 84.5306 263.296 84.5306C263.838 84.5306 264.161 84.8276 264.238 85.1905L265.668 85.1025ZM269.774 83.4969H268.715V82.1479H267.153V83.4969H266.383V84.6699H267.153V87.6025C267.146 88.7059 267.897 89.2521 269.03 89.2044C269.433 89.1898 269.719 89.1091 269.877 89.0578L269.631 87.8958C269.554 87.9104 269.389 87.9471 269.243 87.9471C268.931 87.9471 268.715 87.8298 268.715 87.3972V84.6699H269.774V83.4969ZM270.791 89.1274H272.353V85.9419C272.353 85.2491 272.859 84.7726 273.548 84.7726C273.764 84.7726 274.061 84.8092 274.208 84.8569V83.4712C274.068 83.4383 273.874 83.4163 273.717 83.4163C273.086 83.4163 272.569 83.7828 272.364 84.4793H272.305V83.4969H270.791V89.1274ZM275.015 89.1274H276.577V83.4969H275.015V89.1274ZM275.8 82.7711C276.265 82.7711 276.646 82.4155 276.646 81.9793C276.646 81.5468 276.265 81.1912 275.8 81.1912C275.338 81.1912 274.956 81.5468 274.956 81.9793C274.956 82.4155 275.338 82.7711 275.8 82.7711ZM277.857 89.1274H279.397V88.2257H279.466C279.683 88.6949 280.155 89.2191 281.064 89.2191C282.347 89.2191 283.348 88.2037 283.348 86.3195C283.348 84.384 282.303 83.4236 281.068 83.4236C280.126 83.4236 279.675 83.9844 279.466 84.4427H279.419V81.6201H277.857V89.1274ZM279.386 86.3122C279.386 85.3078 279.811 84.6663 280.57 84.6663C281.343 84.6663 281.754 85.3371 281.754 86.3122C281.754 87.2946 281.336 87.9764 280.57 87.9764C279.818 87.9764 279.386 87.3166 279.386 86.3122ZM288.001 86.7301C288.005 87.4852 287.488 87.8811 286.927 87.8811C286.337 87.8811 285.955 87.4669 285.952 86.8034V83.4969H284.39V87.082C284.394 88.398 285.164 89.2008 286.296 89.2008C287.143 89.2008 287.752 88.7645 288.005 88.1047H288.063V89.1274H289.563V83.4969H288.001V86.7301ZM293.806 83.4969H292.747V82.1479H291.186V83.4969H290.416V84.6699H291.186V87.6025C291.178 88.7059 291.93 89.2521 293.062 89.2044C293.466 89.1898 293.752 89.1091 293.909 89.0578L293.664 87.8958C293.587 87.9104 293.422 87.9471 293.275 87.9471C292.963 87.9471 292.747 87.8298 292.747 87.3972V84.6699H293.806V83.4969ZM294.824 89.1274H296.385V83.4969H294.824V89.1274ZM295.608 82.7711C296.074 82.7711 296.455 82.4155 296.455 81.9793C296.455 81.5468 296.074 81.1912 295.608 81.1912C295.146 81.1912 294.765 81.5468 294.765 81.9793C294.765 82.4155 295.146 82.7711 295.608 82.7711ZM300.18 89.2374C301.888 89.2374 302.952 88.0681 302.952 86.3342C302.952 84.5893 301.888 83.4236 300.18 83.4236C298.472 83.4236 297.409 84.5893 297.409 86.3342C297.409 88.0681 298.472 89.2374 300.18 89.2374ZM300.188 88.0277C299.399 88.0277 298.996 87.3056 298.996 86.3232C298.996 85.3408 299.399 84.615 300.188 84.615C300.961 84.615 301.364 85.3408 301.364 86.3232C301.364 87.3056 300.961 88.0277 300.188 88.0277ZM305.529 85.8723C305.532 85.1465 305.965 84.7213 306.595 84.7213C307.222 84.7213 307.6 85.1318 307.596 85.821V89.1274H309.158V85.5424C309.158 84.2301 308.388 83.4236 307.215 83.4236C306.379 83.4236 305.774 83.8342 305.521 84.4903H305.455V83.4969H303.967V89.1274H305.529V85.8723Z" fill="#171A22"/>
<path d="M337.546 89.1274H339.133V86.6934H340.468C342.194 86.6934 343.199 85.6633 343.199 84.1641C343.199 82.6721 342.213 81.6201 340.508 81.6201H337.546V89.1274ZM339.133 85.4214V82.9177H340.204C341.12 82.9177 341.564 83.4163 341.564 84.1641C341.564 84.9082 341.12 85.4214 340.211 85.4214H339.133ZM345.655 89.2337C346.487 89.2337 347.026 88.8708 347.301 88.3466H347.344V89.1274H348.825V85.3298C348.825 83.9881 347.689 83.4236 346.435 83.4236C345.086 83.4236 344.199 84.0688 343.983 85.0952L345.427 85.2125C345.534 84.8386 345.867 84.5636 346.428 84.5636C346.96 84.5636 347.264 84.8312 347.264 85.2931V85.3151C347.264 85.678 346.879 85.7257 345.9 85.821C344.786 85.9236 343.785 86.2975 343.785 87.5549C343.785 88.6692 344.581 89.2337 345.655 89.2337ZM346.102 88.156C345.622 88.156 345.277 87.9324 345.277 87.5035C345.277 87.0636 345.64 86.8474 346.19 86.7704C346.531 86.7227 347.088 86.6421 347.275 86.5175V87.115C347.275 87.7051 346.787 88.156 346.102 88.156ZM352.574 91.3562C354.183 91.3562 355.327 90.6231 355.327 89.1824V83.4969H353.776V84.4427H353.717C353.508 83.9844 353.05 83.4236 352.108 83.4236C350.873 83.4236 349.828 84.384 349.828 86.3012C349.828 88.1744 350.843 89.0468 352.112 89.0468C353.01 89.0468 353.512 88.5959 353.717 88.1304H353.783V89.1604C353.783 89.9339 353.288 90.2345 352.61 90.2345C351.921 90.2345 351.573 89.9339 351.445 89.593L350 89.7873C350.187 90.6744 351.056 91.3562 352.574 91.3562ZM352.607 87.8738C351.84 87.8738 351.423 87.2653 351.423 86.2938C351.423 85.3371 351.833 84.6663 352.607 84.6663C353.365 84.6663 353.791 85.3078 353.791 86.2938C353.791 87.2873 353.358 87.8738 352.607 87.8738ZM359.135 89.2374C360.528 89.2374 361.467 88.5593 361.687 87.5145L360.242 87.4192C360.085 87.8481 359.681 88.0717 359.161 88.0717C358.38 88.0717 357.885 87.5549 357.885 86.7154V86.7117H361.72V86.2828C361.72 84.3693 360.561 83.4236 359.073 83.4236C357.416 83.4236 356.342 84.6003 356.342 86.3378C356.342 88.123 357.401 89.2374 359.135 89.2374ZM357.885 85.744C357.918 85.1025 358.406 84.5893 359.099 84.5893C359.777 84.5893 360.246 85.0732 360.25 85.744H357.885ZM367.423 85.1025C367.284 84.0651 366.448 83.4236 365.026 83.4236C363.585 83.4236 362.636 84.0908 362.64 85.1758C362.636 86.0189 363.168 86.5651 364.267 86.7851L365.242 86.9793C365.734 87.0783 365.957 87.2579 365.964 87.5402C365.957 87.8738 365.594 88.112 365.048 88.112C364.491 88.112 364.121 87.8738 364.025 87.4156L362.489 87.4962C362.636 88.5739 363.552 89.2374 365.044 89.2374C366.503 89.2374 367.548 88.4933 367.552 87.3826C367.548 86.5688 367.017 86.0812 365.924 85.8576L364.905 85.6523C364.381 85.5387 364.187 85.3591 364.19 85.0878C364.187 84.7506 364.568 84.5306 365.052 84.5306C365.594 84.5306 365.917 84.8276 365.994 85.1905L367.423 85.1025Z" fill="#171A22"/>
<path d="M403.17 84.2484C402.961 82.5145 401.649 81.5174 399.911 81.5174C397.928 81.5174 396.414 82.9177 396.414 85.3738C396.414 87.8224 397.902 89.2301 399.911 89.2301C401.836 89.2301 402.998 87.9507 403.17 86.5688L401.564 86.5614C401.414 87.3642 400.784 87.8261 399.937 87.8261C398.797 87.8261 398.023 86.9793 398.023 85.3738C398.023 83.8122 398.786 82.9214 399.948 82.9214C400.817 82.9214 401.443 83.4236 401.564 84.2484H403.17ZM405.884 89.2337C406.717 89.2337 407.255 88.8708 407.53 88.3466H407.574V89.1274H409.055V85.3298C409.055 83.9881 407.919 83.4236 406.665 83.4236C405.316 83.4236 404.429 84.0688 404.213 85.0952L405.657 85.2125C405.763 84.8386 406.097 84.5636 406.658 84.5636C407.189 84.5636 407.494 84.8312 407.494 85.2931V85.3151C407.494 85.678 407.109 85.7257 406.13 85.821C405.016 85.9236 404.015 86.2975 404.015 87.5549C404.015 88.6692 404.81 89.2337 405.884 89.2337ZM406.332 88.156C405.851 88.156 405.507 87.9324 405.507 87.5035C405.507 87.0636 405.87 86.8474 406.42 86.7704C406.761 86.7227 407.318 86.6421 407.505 86.5175V87.115C407.505 87.7051 407.017 88.156 406.332 88.156ZM411.828 85.8723C411.832 85.1465 412.265 84.7213 412.895 84.7213C413.522 84.7213 413.9 85.1318 413.896 85.821V89.1274H415.457V85.5424C415.457 84.2301 414.688 83.4236 413.515 83.4236C412.679 83.4236 412.074 83.8342 411.821 84.4903H411.755V83.4969H410.267V89.1274H411.828V85.8723ZM418.25 85.8723C418.253 85.1465 418.686 84.7213 419.317 84.7213C419.943 84.7213 420.321 85.1318 420.317 85.821V89.1274H421.879V85.5424C421.879 84.2301 421.109 83.4236 419.936 83.4236C419.1 83.4236 418.495 83.8342 418.242 84.4903H418.176V83.4969H416.688V89.1274H418.25V85.8723ZM423.11 89.1274H424.671V83.4969H423.11V89.1274ZM423.894 82.7711C424.36 82.7711 424.741 82.4155 424.741 81.9793C424.741 81.5468 424.36 81.1912 423.894 81.1912C423.432 81.1912 423.051 81.5468 423.051 81.9793C423.051 82.4155 423.432 82.7711 423.894 82.7711ZM425.951 89.1274H427.491V88.2257H427.561C427.777 88.6949 428.25 89.2191 429.159 89.2191C430.442 89.2191 431.443 88.2037 431.443 86.3195C431.443 84.384 430.398 83.4236 429.163 83.4236C428.221 83.4236 427.77 83.9844 427.561 84.4427H427.513V81.6201H425.951V89.1274ZM427.48 86.3122C427.48 85.3078 427.905 84.6663 428.664 84.6663C429.438 84.6663 429.848 85.3371 429.848 86.3122C429.848 87.2946 429.43 87.9764 428.664 87.9764C427.913 87.9764 427.48 87.3166 427.48 86.3122ZM434.09 89.2337C434.922 89.2337 435.461 88.8708 435.736 88.3466H435.78V89.1274H437.261V85.3298C437.261 83.9881 436.125 83.4236 434.871 83.4236C433.522 83.4236 432.635 84.0688 432.419 85.0952L433.863 85.2125C433.969 84.8386 434.303 84.5636 434.864 84.5636C435.395 84.5636 435.7 84.8312 435.7 85.2931V85.3151C435.7 85.678 435.315 85.7257 434.336 85.821C433.221 85.9236 432.221 86.2975 432.221 87.5549C432.221 88.6692 433.016 89.2337 434.09 89.2337ZM434.537 88.156C434.057 88.156 433.713 87.9324 433.713 87.5035C433.713 87.0636 434.076 86.8474 434.625 86.7704C434.966 86.7227 435.524 86.6421 435.711 86.5175V87.115C435.711 87.7051 435.223 88.156 434.537 88.156ZM440.034 81.6201H438.473V89.1274H440.034V81.6201ZM441.285 89.1274H442.847V83.4969H441.285V89.1274ZM442.07 82.7711C442.535 82.7711 442.916 82.4155 442.916 81.9793C442.916 81.5468 442.535 81.1912 442.07 81.1912C441.608 81.1912 441.226 81.5468 441.226 81.9793C441.226 82.4155 441.608 82.7711 442.07 82.7711ZM444.068 89.1274H448.801V87.8811H446.117V87.8408L448.705 84.5123V83.4969H444.164V84.7433H446.825V84.7836L444.068 88.1964V89.1274ZM451.6 89.2337C452.433 89.2337 452.971 88.8708 453.246 88.3466H453.29V89.1274H454.771V85.3298C454.771 83.9881 453.635 83.4236 452.381 83.4236C451.032 83.4236 450.145 84.0688 449.929 85.0952L451.373 85.2125C451.479 84.8386 451.813 84.5636 452.374 84.5636C452.905 84.5636 453.21 84.8312 453.21 85.2931V85.3151C453.21 85.678 452.825 85.7257 451.846 85.821C450.732 85.9236 449.731 86.2975 449.731 87.5549C449.731 88.6692 450.526 89.2337 451.6 89.2337ZM452.048 88.156C451.567 88.156 451.223 87.9324 451.223 87.5035C451.223 87.0636 451.586 86.8474 452.136 86.7704C452.477 86.7227 453.034 86.6421 453.221 86.5175V87.115C453.221 87.7051 452.733 88.156 452.048 88.156ZM458.978 83.4969H457.918V82.1479H456.357V83.4969H455.587V84.6699H456.357V87.6025C456.349 88.7059 457.101 89.2521 458.234 89.2044C458.637 89.1898 458.923 89.1091 459.08 89.0578L458.835 87.8958C458.758 87.9104 458.593 87.9471 458.446 87.9471C458.135 87.9471 457.918 87.8298 457.918 87.3972V84.6699H458.978V83.4969ZM459.995 89.1274H461.557V83.4969H459.995V89.1274ZM460.779 82.7711C461.245 82.7711 461.626 82.4155 461.626 81.9793C461.626 81.5468 461.245 81.1912 460.779 81.1912C460.318 81.1912 459.936 81.5468 459.936 81.9793C459.936 82.4155 460.318 82.7711 460.779 82.7711ZM465.351 89.2374C467.06 89.2374 468.123 88.0681 468.123 86.3342C468.123 84.5893 467.06 83.4236 465.351 83.4236C463.643 83.4236 462.58 84.5893 462.58 86.3342C462.58 88.0681 463.643 89.2374 465.351 89.2374ZM465.359 88.0277C464.571 88.0277 464.167 87.3056 464.167 86.3232C464.167 85.3408 464.571 84.615 465.359 84.615C466.132 84.615 466.535 85.3408 466.535 86.3232C466.535 87.3056 466.132 88.0277 465.359 88.0277ZM470.7 85.8723C470.703 85.1465 471.136 84.7213 471.766 84.7213C472.393 84.7213 472.771 85.1318 472.767 85.821V89.1274H474.329V85.5424C474.329 84.2301 473.559 83.4236 472.386 83.4236C471.55 83.4236 470.945 83.8342 470.692 84.4903H470.626V83.4969H469.138V89.1274H470.7V85.8723Z" fill="#171A22"/>
<path d="M510.17 84.2484C509.961 82.5145 508.649 81.5174 506.911 81.5174C504.928 81.5174 503.414 82.9177 503.414 85.3738C503.414 87.8224 504.902 89.2301 506.911 89.2301C508.836 89.2301 509.998 87.9507 510.17 86.5688L508.564 86.5614C508.414 87.3642 507.784 87.8261 506.937 87.8261C505.797 87.8261 505.023 86.9793 505.023 85.3738C505.023 83.8122 505.786 82.9214 506.948 82.9214C507.817 82.9214 508.443 83.4236 508.564 84.2484H510.17ZM513.823 89.2374C515.531 89.2374 516.594 88.0681 516.594 86.3342C516.594 84.5893 515.531 83.4236 513.823 83.4236C512.115 83.4236 511.052 84.5893 511.052 86.3342C511.052 88.0681 512.115 89.2374 513.823 89.2374ZM513.83 88.0277C513.042 88.0277 512.639 87.3056 512.639 86.3232C512.639 85.3408 513.042 84.615 513.83 84.615C514.604 84.615 515.007 85.3408 515.007 86.3232C515.007 87.3056 514.604 88.0277 513.83 88.0277ZM517.61 89.1274H519.171V85.7477C519.171 85.1245 519.567 84.7103 520.088 84.7103C520.601 84.7103 520.945 85.0622 520.945 85.6157V89.1274H522.459V85.689C522.459 85.1062 522.793 84.7103 523.361 84.7103C523.86 84.7103 524.233 85.0218 524.233 85.6487V89.1274H525.791V85.3408C525.791 84.1201 525.066 83.4236 524.017 83.4236C523.192 83.4236 522.551 83.8452 522.32 84.4903H522.261C522.082 83.8378 521.506 83.4236 520.733 83.4236C519.974 83.4236 519.398 83.8268 519.164 84.4903H519.098V83.4969H517.61V89.1274ZM527.025 91.2389H528.587V88.2257H528.634C528.85 88.6949 529.323 89.2191 530.232 89.2191C531.515 89.2191 532.516 88.2037 532.516 86.3195C532.516 84.384 531.471 83.4236 530.236 83.4236C529.294 83.4236 528.843 83.9844 528.634 84.4427H528.565V83.4969H527.025V91.2389ZM528.554 86.3122C528.554 85.3078 528.979 84.6663 529.738 84.6663C530.511 84.6663 530.922 85.3371 530.922 86.3122C530.922 87.2946 530.504 87.9764 529.738 87.9764C528.986 87.9764 528.554 87.3166 528.554 86.3122ZM536.123 89.2374C537.516 89.2374 538.455 88.5593 538.675 87.5145L537.23 87.4192C537.073 87.8481 536.669 88.0717 536.149 88.0717C535.368 88.0717 534.873 87.5549 534.873 86.7154V86.7117H538.708V86.2828C538.708 84.3693 537.549 83.4236 536.061 83.4236C534.404 83.4236 533.33 84.6003 533.33 86.3378C533.33 88.123 534.389 89.2374 536.123 89.2374ZM534.873 85.744C534.906 85.1025 535.394 84.5893 536.087 84.5893C536.765 84.5893 537.234 85.0732 537.238 85.744H534.873ZM542.722 83.4969H541.662V82.1479H540.101V83.4969H539.331V84.6699H540.101V87.6025C540.093 88.7059 540.845 89.2521 541.977 89.2044C542.381 89.1898 542.667 89.1091 542.824 89.0578L542.579 87.8958C542.502 87.9104 542.337 87.9471 542.19 87.9471C541.878 87.9471 541.662 87.8298 541.662 87.3972V84.6699H542.722V83.4969ZM543.739 89.1274H545.3V83.4969H543.739V89.1274ZM544.523 82.7711C544.989 82.7711 545.37 82.4155 545.37 81.9793C545.37 81.5468 544.989 81.1912 544.523 81.1912C544.061 81.1912 543.68 81.5468 543.68 81.9793C543.68 82.4155 544.061 82.7711 544.523 82.7711ZM549.546 83.4969H548.487V82.1479H546.925V83.4969H546.155V84.6699H546.925V87.6025C546.918 88.7059 547.669 89.2521 548.802 89.2044C549.205 89.1898 549.491 89.1091 549.649 89.0578L549.403 87.8958C549.326 87.9104 549.161 87.9471 549.015 87.9471C548.703 87.9471 548.487 87.8298 548.487 87.3972V84.6699H549.546V83.4969ZM553.047 89.2374C554.755 89.2374 555.818 88.0681 555.818 86.3342C555.818 84.5893 554.755 83.4236 553.047 83.4236C551.339 83.4236 550.276 84.5893 550.276 86.3342C550.276 88.0681 551.339 89.2374 553.047 89.2374ZM553.054 88.0277C552.266 88.0277 551.863 87.3056 551.863 86.3232C551.863 85.3408 552.266 84.615 553.054 84.615C553.828 84.615 554.231 85.3408 554.231 86.3232C554.231 87.3056 553.828 88.0277 553.054 88.0277ZM556.834 89.1274H558.395V85.9419C558.395 85.2491 558.901 84.7726 559.59 84.7726C559.806 84.7726 560.103 84.8092 560.25 84.8569V83.4712C560.111 83.4383 559.916 83.4163 559.759 83.4163C559.128 83.4163 558.611 83.7828 558.406 84.4793H558.348V83.4969H556.834V89.1274ZM565.742 85.1025C565.603 84.0651 564.767 83.4236 563.345 83.4236C561.904 83.4236 560.955 84.0908 560.958 85.1758C560.955 86.0189 561.486 86.5651 562.586 86.7851L563.561 86.9793C564.052 87.0783 564.276 87.2579 564.283 87.5402C564.276 87.8738 563.913 88.112 563.367 88.112C562.81 88.112 562.439 87.8738 562.344 87.4156L560.808 87.4962C560.955 88.5739 561.871 89.2374 563.363 89.2374C564.822 89.2374 565.867 88.4933 565.87 87.3826C565.867 86.5688 565.335 86.0812 564.243 85.8576L563.224 85.6523C562.7 85.5387 562.505 85.3591 562.509 85.0878C562.505 84.7506 562.887 84.5306 563.37 84.5306C563.913 84.5306 564.236 84.8276 564.313 85.1905L565.742 85.1025ZM571.934 89.1274C574.221 89.1274 575.607 87.7125 575.607 85.3664C575.607 83.0277 574.221 81.6201 571.956 81.6201H569.272V89.1274H571.934ZM570.859 87.7675V82.98H571.871C573.279 82.98 574.023 83.6985 574.023 85.3664C574.023 87.0417 573.279 87.7675 571.868 87.7675H570.859ZM576.753 89.1274H578.315V83.4969H576.753V89.1274ZM577.538 82.7711C578.003 82.7711 578.384 82.4155 578.384 81.9793C578.384 81.5468 578.003 81.1912 577.538 81.1912C577.076 81.1912 576.694 81.5468 576.694 81.9793C576.694 82.4155 577.076 82.7711 577.538 82.7711ZM584.25 85.1025C584.111 84.0651 583.275 83.4236 581.853 83.4236C580.412 83.4236 579.463 84.0908 579.467 85.1758C579.463 86.0189 579.994 86.5651 581.094 86.7851L582.069 86.9793C582.56 87.0783 582.784 87.2579 582.791 87.5402C582.784 87.8738 582.421 88.112 581.875 88.112C581.318 88.112 580.948 87.8738 580.852 87.4156L579.316 87.4962C579.463 88.5739 580.379 89.2374 581.871 89.2374C583.33 89.2374 584.375 88.4933 584.379 87.3826C584.375 86.5688 583.843 86.0812 582.751 85.8576L581.732 85.6523C581.208 85.5387 581.014 85.3591 581.017 85.0878C581.014 84.7506 581.395 84.5306 581.879 84.5306C582.421 84.5306 582.744 84.8276 582.821 85.1905L584.25 85.1025ZM587.906 89.2374C589.405 89.2374 590.347 88.3576 590.421 87.0636H588.947C588.855 87.6648 588.459 88.0021 587.924 88.0021C587.195 88.0021 586.722 87.3899 586.722 86.3122C586.722 85.2491 587.198 84.6406 587.924 84.6406C588.496 84.6406 588.863 85.0182 588.947 85.579H590.421C590.355 84.2777 589.369 83.4236 587.899 83.4236C586.19 83.4236 585.135 84.6076 585.135 86.3342C585.135 88.0461 586.172 89.2374 587.906 89.2374ZM593.964 89.2374C595.673 89.2374 596.736 88.0681 596.736 86.3342C596.736 84.5893 595.673 83.4236 593.964 83.4236C592.256 83.4236 591.193 84.5893 591.193 86.3342C591.193 88.0681 592.256 89.2374 593.964 89.2374ZM593.972 88.0277C593.184 88.0277 592.78 87.3056 592.78 86.3232C592.78 85.3408 593.184 84.615 593.972 84.615C594.745 84.615 595.148 85.3408 595.148 86.3232C595.148 87.3056 594.745 88.0277 593.972 88.0277ZM602.809 83.4969H601.156L599.99 87.5255H599.931L598.762 83.4969H597.112L599.081 89.1274H600.84L602.809 83.4969ZM605.983 89.2374C607.375 89.2374 608.314 88.5593 608.534 87.5145L607.09 87.4192C606.932 87.8481 606.529 88.0717 606.008 88.0717C605.227 88.0717 604.732 87.5549 604.732 86.7154V86.7117H608.567V86.2828C608.567 84.3693 607.408 83.4236 605.92 83.4236C604.263 83.4236 603.189 84.6003 603.189 86.3378C603.189 88.123 604.249 89.2374 605.983 89.2374ZM604.732 85.744C604.765 85.1025 605.253 84.5893 605.946 84.5893C606.624 84.5893 607.093 85.0732 607.097 85.744H604.732ZM609.586 89.1274H611.147V85.9419C611.147 85.2491 611.653 84.7726 612.343 84.7726C612.559 84.7726 612.856 84.8092 613.002 84.8569V83.4712C612.863 83.4383 612.669 83.4163 612.511 83.4163C611.881 83.4163 611.364 83.7828 611.158 84.4793H611.1V83.4969H609.586V89.1274ZM614.945 91.2389C616.107 91.2389 616.723 90.645 617.042 89.7359L619.23 83.5042L617.577 83.4969L616.4 87.6318H616.342L615.176 83.4969H613.534L615.554 89.2887L615.462 89.527C615.257 90.0549 614.865 90.0805 614.315 89.9119L613.963 91.0776C614.186 91.1729 614.549 91.2389 614.945 91.2389Z" fill="#171A22"/>
<rect x="40.7725" y="127.412" width="299.203" height="29" rx="3.5" stroke="#D1D4DB"/>
<rect x="99.7965" y="127.191" width="0.558912" height="29.4411" stroke="#D1D4DB" stroke-width="0.558912"/>
<path d="M40.7725 130.912C40.7725 128.979 42.3395 127.412 44.2725 127.412H136.603V156.412H44.2725C42.3395 156.412 40.7725 154.845 40.7725 152.912V130.912Z" fill="#CBEAFB" stroke="#00A8FF"/>
<rect x="234.922" y="127.191" width="0.558912" height="29.4411" stroke="#D1D4DB" stroke-width="0.558912"/>
<path d="M54.4017 137.639H53.2156L55.8328 144.912H57.1006L59.7178 137.639H58.5317L56.5075 143.563H56.4258L54.4017 137.639ZM60.6828 144.912H61.7446V139.457H60.6828V144.912ZM61.219 138.616C61.5848 138.616 61.8902 138.332 61.8902 137.984C61.8902 137.636 61.5848 137.348 61.219 137.348C60.8497 137.348 60.5478 137.636 60.5478 137.984C60.5478 138.332 60.8497 138.616 61.219 138.616ZM67.2604 140.789C67.0402 139.94 66.3761 139.386 65.1972 139.386C63.9649 139.386 63.0913 140.036 63.0913 141.002C63.0913 141.776 63.5601 142.291 64.5828 142.519L65.5061 142.721C66.0317 142.838 66.2767 143.072 66.2767 143.413C66.2767 143.836 65.8257 144.166 65.1297 144.166C64.494 144.166 64.0856 143.893 63.9578 143.357L62.9315 143.513C63.1091 144.479 63.9116 145.022 65.1368 145.022C66.4543 145.022 67.3669 144.322 67.3669 143.335C67.3669 142.565 66.8768 142.089 65.8754 141.858L65.0089 141.659C64.4088 141.517 64.1496 141.315 64.1531 140.945C64.1496 140.526 64.6041 140.228 65.2078 140.228C65.8683 140.228 66.1737 140.594 66.298 140.96L67.2604 140.789ZM68.5343 144.912H69.5961V139.457H68.5343V144.912ZM69.0706 138.616C69.4363 138.616 69.7417 138.332 69.7417 137.984C69.7417 137.636 69.4363 137.348 69.0706 137.348C68.7012 137.348 68.3994 137.636 68.3994 137.984C68.3994 138.332 68.7012 138.616 69.0706 138.616ZM71.1098 144.912H72.1467V144.063H72.2355C72.4273 144.411 72.8179 145.019 73.8122 145.019C75.1332 145.019 76.092 143.96 76.092 142.195C76.092 140.427 75.119 139.386 73.8016 139.386C72.7895 139.386 72.4237 140.004 72.2355 140.342H72.1716V137.639H71.1098V144.912ZM72.1503 142.185C72.1503 141.045 72.6474 140.288 73.5743 140.288C74.5366 140.288 75.0196 141.102 75.0196 142.185C75.0196 143.278 74.5224 144.113 73.5743 144.113C72.6616 144.113 72.1503 143.332 72.1503 142.185ZM77.2843 144.912H78.3461V139.457H77.2843V144.912ZM77.8206 138.616C78.1863 138.616 78.4917 138.332 78.4917 137.984C78.4917 137.636 78.1863 137.348 77.8206 137.348C77.4512 137.348 77.1494 137.636 77.1494 137.984C77.1494 138.332 77.4512 138.616 77.8206 138.616ZM80.8364 137.639H79.7746V144.912H80.8364V137.639ZM82.2648 144.912H83.3266V139.457H82.2648V144.912ZM82.801 138.616C83.1668 138.616 83.4722 138.332 83.4722 137.984C83.4722 137.636 83.1668 137.348 82.801 137.348C82.4317 137.348 82.1299 137.636 82.1299 137.984C82.1299 138.332 82.4317 138.616 82.801 138.616ZM87.3012 139.457H86.1826V138.151H85.1208V139.457H84.3218V140.31H85.1208V143.531C85.1173 144.521 85.8736 145.001 86.7117 144.983C87.0491 144.979 87.2763 144.916 87.4006 144.869L87.2089 143.992C87.1379 144.006 87.0065 144.038 86.836 144.038C86.4915 144.038 86.1826 143.925 86.1826 143.31V140.31H87.3012V139.457ZM89.1469 146.957C90.024 146.957 90.578 146.499 90.8941 145.64L93.149 139.468L92.002 139.457L90.6206 143.69H90.5638L89.1824 139.457H88.0461L90.0418 144.983L89.9104 145.345C89.6405 146.07 89.2605 146.13 88.6782 145.97L88.4225 146.84C88.5503 146.897 88.8273 146.957 89.1469 146.957ZM96.5226 138.584H98.7882V144.912H99.882V138.584H102.151V137.639H96.5226V138.584ZM102.743 144.912H103.805V141.581C103.805 140.867 104.356 140.352 105.108 140.352C105.329 140.352 105.577 140.391 105.662 140.416V139.401C105.556 139.386 105.346 139.376 105.211 139.376C104.572 139.376 104.025 139.738 103.826 140.324H103.77V139.457H102.743V144.912ZM108.737 145.022C109.926 145.022 110.768 144.436 111.009 143.548L110.005 143.367C109.813 143.882 109.351 144.145 108.747 144.145C107.838 144.145 107.228 143.555 107.199 142.504H111.077V142.128C111.077 140.157 109.898 139.386 108.662 139.386C107.142 139.386 106.141 140.544 106.141 142.22C106.141 143.914 107.128 145.022 108.737 145.022ZM107.203 141.709C107.245 140.935 107.806 140.264 108.669 140.264C109.493 140.264 110.033 140.874 110.036 141.709H107.203ZM113.317 141.673C113.317 140.803 113.849 140.306 114.588 140.306C115.309 140.306 115.746 140.778 115.746 141.57V144.912H116.808V141.443C116.808 140.093 116.065 139.386 114.95 139.386C114.13 139.386 113.594 139.766 113.342 140.345H113.274V139.457H112.255V144.912H113.317V141.673ZM120.274 145.019C121.268 145.019 121.658 144.411 121.85 144.063H121.939V144.912H122.976V137.639H121.914V140.342H121.85C121.658 140.004 121.296 139.386 120.281 139.386C118.963 139.386 117.994 140.427 117.994 142.195C117.994 143.96 118.949 145.019 120.274 145.019ZM120.508 144.113C119.56 144.113 119.066 143.278 119.066 142.185C119.066 141.102 119.549 140.288 120.508 140.288C121.435 140.288 121.932 141.045 121.932 142.185C121.932 143.332 121.424 144.113 120.508 144.113Z" fill="#171A22"/>
<path d="M149.03 144.912H153.632V143.967H150.127V141.741H153.351V140.8H150.127V138.584H153.589V137.639H149.03V144.912ZM159.057 140.789C158.837 139.94 158.173 139.386 156.994 139.386C155.762 139.386 154.888 140.036 154.888 141.002C154.888 141.776 155.357 142.291 156.38 142.519L157.303 142.721C157.829 142.838 158.074 143.072 158.074 143.413C158.074 143.836 157.623 144.166 156.927 144.166C156.291 144.166 155.883 143.893 155.755 143.357L154.728 143.513C154.906 144.479 155.709 145.022 156.934 145.022C158.251 145.022 159.164 144.322 159.164 143.335C159.164 142.565 158.674 142.089 157.672 141.858L156.806 141.659C156.206 141.517 155.946 141.315 155.95 140.945C155.946 140.526 156.401 140.228 157.005 140.228C157.665 140.228 157.971 140.594 158.095 140.96L159.057 140.789ZM162.877 139.457H161.759V138.151H160.697V139.457H159.898V140.31H160.697V143.531C160.693 144.521 161.45 145.001 162.288 144.983C162.625 144.979 162.853 144.916 162.977 144.869L162.785 143.992C162.714 144.006 162.583 144.038 162.412 144.038C162.068 144.038 161.759 143.925 161.759 143.31V140.31H162.877V139.457ZM164.052 144.912H165.114V139.457H164.052V144.912ZM164.588 138.616C164.954 138.616 165.259 138.332 165.259 137.984C165.259 137.636 164.954 137.348 164.588 137.348C164.219 137.348 163.917 137.636 163.917 137.984C163.917 138.332 164.219 138.616 164.588 138.616ZM166.542 144.912H167.604V141.549C167.604 140.814 168.119 140.303 168.723 140.303C169.312 140.303 169.72 140.693 169.72 141.286V144.912H170.779V141.435C170.779 140.778 171.18 140.303 171.872 140.303C172.433 140.303 172.895 140.615 172.895 141.354V144.912H173.957V141.254C173.957 140.008 173.261 139.386 172.274 139.386C171.489 139.386 170.899 139.763 170.637 140.345H170.58C170.342 139.749 169.841 139.386 169.113 139.386C168.392 139.386 167.856 139.745 167.629 140.345H167.561V139.457H166.542V144.912ZM176.967 145.033C177.869 145.033 178.377 144.575 178.58 144.166H178.622V144.912H179.659V141.29C179.659 139.702 178.409 139.386 177.543 139.386C176.555 139.386 175.646 139.784 175.291 140.778L176.289 141.006C176.445 140.619 176.843 140.246 177.557 140.246C178.242 140.246 178.594 140.604 178.594 141.222V141.247C178.594 141.634 178.196 141.627 177.216 141.741C176.183 141.862 175.124 142.131 175.124 143.371C175.124 144.443 175.93 145.033 176.967 145.033ZM177.198 144.18C176.598 144.18 176.165 143.911 176.165 143.385C176.165 142.817 176.669 142.614 177.283 142.533C177.628 142.487 178.445 142.394 178.597 142.242V142.945C178.597 143.591 178.082 144.18 177.198 144.18ZM183.62 139.457H182.501V138.151H181.439V139.457H180.64V140.31H181.439V143.531C181.436 144.521 182.192 145.001 183.03 144.983C183.367 144.979 183.595 144.916 183.719 144.869L183.527 143.992C183.456 144.006 183.325 144.038 183.154 144.038C182.81 144.038 182.501 143.925 182.501 143.31V140.31H183.62V139.457ZM187.086 145.022C188.276 145.022 189.118 144.436 189.359 143.548L188.354 143.367C188.162 143.882 187.701 144.145 187.097 144.145C186.188 144.145 185.577 143.555 185.549 142.504H189.427V142.128C189.427 140.157 188.248 139.386 187.012 139.386C185.492 139.386 184.49 140.544 184.49 142.22C184.49 143.914 185.478 145.022 187.086 145.022ZM185.552 141.709C185.595 140.935 186.156 140.264 187.019 140.264C187.843 140.264 188.383 140.874 188.386 141.709H185.552ZM192.978 138.584H195.243V144.912H196.337V138.584H198.606V137.639H192.978V138.584ZM199.198 144.912H200.26V141.581C200.26 140.867 200.811 140.352 201.563 140.352C201.784 140.352 202.032 140.391 202.117 140.416V139.401C202.011 139.386 201.801 139.376 201.666 139.376C201.027 139.376 200.48 139.738 200.281 140.324H200.225V139.457H199.198V144.912ZM204.575 145.033C205.477 145.033 205.985 144.575 206.187 144.166H206.23V144.912H207.267V141.29C207.267 139.702 206.017 139.386 205.15 139.386C204.163 139.386 203.254 139.784 202.899 140.778L203.897 141.006C204.053 140.619 204.451 140.246 205.164 140.246C205.85 140.246 206.201 140.604 206.201 141.222V141.247C206.201 141.634 205.804 141.627 204.823 141.741C203.79 141.862 202.732 142.131 202.732 143.371C202.732 144.443 203.538 145.033 204.575 145.033ZM204.806 144.18C204.205 144.18 203.772 143.911 203.772 143.385C203.772 142.817 204.277 142.614 204.891 142.533C205.235 142.487 206.052 142.394 206.205 142.242V142.945C206.205 143.591 205.69 144.18 204.806 144.18ZM211.277 139.457H210.101V138.967C210.101 138.484 210.3 138.222 210.819 138.222C211.039 138.222 211.195 138.271 211.294 138.303L211.543 137.444C211.394 137.387 211.085 137.298 210.655 137.298C209.792 137.298 209.036 137.803 209.036 138.825V139.457H208.194V140.31H209.036V144.912H210.101V140.31H211.277V139.457ZM214.968 139.457H213.793V138.967C213.793 138.484 213.992 138.222 214.51 138.222C214.73 138.222 214.886 138.271 214.986 138.303L215.234 137.444C215.085 137.387 214.776 137.298 214.347 137.298C213.484 137.298 212.727 137.803 212.727 138.825V139.457H211.886V140.31H212.727V144.912H213.793V140.31H214.968V139.457ZM216.064 144.912H217.125V139.457H216.064V144.912ZM216.6 138.616C216.966 138.616 217.271 138.332 217.271 137.984C217.271 137.636 216.966 137.348 216.6 137.348C216.231 137.348 215.929 137.636 215.929 137.984C215.929 138.332 216.231 138.616 216.6 138.616ZM220.851 145.022C222.141 145.022 222.975 144.248 223.092 143.186H222.059C221.924 143.776 221.466 144.124 220.859 144.124C219.96 144.124 219.381 143.374 219.381 142.185C219.381 141.016 219.971 140.281 220.859 140.281C221.533 140.281 221.945 140.707 222.059 141.219H223.092C222.979 140.118 222.08 139.386 220.841 139.386C219.303 139.386 218.309 140.544 218.309 142.21C218.309 143.854 219.268 145.022 220.851 145.022Z" fill="#171A22"/>
<path d="M249.664 144.912L250.331 142.987H253.172L253.836 144.912H255.001L252.384 137.639H251.116L248.499 144.912H249.664ZM250.651 142.064L251.723 138.96H251.78L252.853 142.064H250.651ZM259.949 139.457H258.809L257.431 143.655H257.374L255.993 139.457H254.853L256.834 144.912H257.971L259.949 139.457ZM263.102 145.022C264.292 145.022 265.133 144.436 265.375 143.548L264.37 143.367C264.178 143.882 263.716 144.145 263.113 144.145C262.204 144.145 261.593 143.555 261.564 142.504H265.442V142.128C265.442 140.157 264.263 139.386 263.027 139.386C261.508 139.386 260.506 140.544 260.506 142.22C260.506 143.914 261.493 145.022 263.102 145.022ZM261.568 141.709C261.611 140.935 262.172 140.264 263.035 140.264C263.858 140.264 264.398 140.874 264.402 141.709H261.568ZM266.62 144.912H267.682V141.581C267.682 140.867 268.232 140.352 268.985 140.352C269.206 140.352 269.454 140.391 269.539 140.416V139.401C269.433 139.386 269.223 139.376 269.088 139.376C268.449 139.376 267.902 139.738 267.703 140.324H267.647V139.457H266.62V144.912ZM271.997 145.033C272.899 145.033 273.406 144.575 273.609 144.166H273.652V144.912H274.688V141.29C274.688 139.702 273.438 139.386 272.572 139.386C271.585 139.386 270.676 139.784 270.321 140.778L271.318 141.006C271.475 140.619 271.872 140.246 272.586 140.246C273.272 140.246 273.623 140.604 273.623 141.222V141.247C273.623 141.634 273.225 141.627 272.245 141.741C271.212 141.862 270.154 142.131 270.154 143.371C270.154 144.443 270.96 145.033 271.997 145.033ZM272.228 144.18C271.627 144.18 271.194 143.911 271.194 143.385C271.194 142.817 271.698 142.614 272.313 142.533C272.657 142.487 273.474 142.394 273.627 142.242V142.945C273.627 143.591 273.112 144.18 272.228 144.18ZM278.39 147.071C279.778 147.071 280.851 146.435 280.851 145.033V139.457H279.81V140.342H279.732C279.544 140.004 279.167 139.386 278.152 139.386C276.834 139.386 275.865 140.427 275.865 142.163C275.865 143.903 276.856 144.83 278.145 144.83C279.146 144.83 279.533 144.266 279.725 143.918H279.792V144.99C279.792 145.846 279.206 146.215 278.4 146.215C277.516 146.215 277.172 145.771 276.983 145.459L276.071 145.835C276.358 146.503 277.086 147.071 278.39 147.071ZM278.379 143.95C277.431 143.95 276.937 143.222 276.937 142.149C276.937 141.102 277.42 140.288 278.379 140.288C279.306 140.288 279.803 141.045 279.803 142.149C279.803 143.275 279.295 143.95 278.379 143.95ZM284.625 145.022C285.815 145.022 286.657 144.436 286.898 143.548L285.893 143.367C285.701 143.882 285.24 144.145 284.636 144.145C283.727 144.145 283.116 143.555 283.088 142.504H286.966V142.128C286.966 140.157 285.787 139.386 284.551 139.386C283.031 139.386 282.03 140.544 282.03 142.22C282.03 143.914 283.017 145.022 284.625 145.022ZM283.091 141.709C283.134 140.935 283.695 140.264 284.558 140.264C285.382 140.264 285.922 140.874 285.925 141.709H283.091ZM290.875 144.912H291.973V142.355H293.464C295.151 142.355 295.986 141.336 295.986 139.994C295.986 138.655 295.158 137.639 293.468 137.639H290.875V144.912ZM291.973 141.425V138.58H293.351C294.437 138.58 294.881 139.17 294.881 139.994C294.881 140.818 294.437 141.425 293.365 141.425H291.973ZM299.416 145.022C300.954 145.022 301.959 143.896 301.959 142.21C301.959 140.512 300.954 139.386 299.416 139.386C297.878 139.386 296.873 140.512 296.873 142.21C296.873 143.896 297.878 145.022 299.416 145.022ZM299.419 144.131C298.414 144.131 297.946 143.254 297.946 142.206C297.946 141.162 298.414 140.274 299.419 140.274C300.417 140.274 300.886 141.162 300.886 142.206C300.886 143.254 300.417 144.131 299.419 144.131ZM307.231 140.789C307.011 139.94 306.347 139.386 305.168 139.386C303.936 139.386 303.062 140.036 303.062 141.002C303.062 141.776 303.531 142.291 304.554 142.519L305.477 142.721C306.002 142.838 306.247 143.072 306.247 143.413C306.247 143.836 305.796 144.166 305.1 144.166C304.465 144.166 304.056 143.893 303.929 143.357L302.902 143.513C303.08 144.479 303.882 145.022 305.107 145.022C306.425 145.022 307.338 144.322 307.338 143.335C307.338 142.565 306.848 142.089 305.846 141.858L304.98 141.659C304.38 141.517 304.12 141.315 304.124 140.945C304.12 140.526 304.575 140.228 305.179 140.228C305.839 140.228 306.144 140.594 306.269 140.96L307.231 140.789ZM308.505 144.912H309.567V139.457H308.505V144.912ZM309.041 138.616C309.407 138.616 309.712 138.332 309.712 137.984C309.712 137.636 309.407 137.348 309.041 137.348C308.672 137.348 308.37 137.636 308.37 137.984C308.37 138.332 308.672 138.616 309.041 138.616ZM313.541 139.457H312.423V138.151H311.361V139.457H310.562V140.31H311.361V143.531C311.357 144.521 312.114 145.001 312.952 144.983C313.289 144.979 313.517 144.916 313.641 144.869L313.449 143.992C313.378 144.006 313.247 144.038 313.076 144.038C312.732 144.038 312.423 143.925 312.423 143.31V140.31H313.541V139.457ZM314.716 144.912H315.778V139.457H314.716V144.912ZM315.252 138.616C315.618 138.616 315.923 138.332 315.923 137.984C315.923 137.636 315.618 137.348 315.252 137.348C314.883 137.348 314.581 137.636 314.581 137.984C314.581 138.332 314.883 138.616 315.252 138.616ZM319.504 145.022C321.041 145.022 322.046 143.896 322.046 142.21C322.046 140.512 321.041 139.386 319.504 139.386C317.966 139.386 316.961 140.512 316.961 142.21C316.961 143.896 317.966 145.022 319.504 145.022ZM319.507 144.131C318.502 144.131 318.034 143.254 318.034 142.206C318.034 141.162 318.502 140.274 319.507 140.274C320.505 140.274 320.974 141.162 320.974 142.206C320.974 143.254 320.505 144.131 319.507 144.131ZM324.293 141.673C324.293 140.803 324.826 140.306 325.565 140.306C326.286 140.306 326.722 140.778 326.722 141.57V144.912H327.784V141.443C327.784 140.093 327.042 139.386 325.927 139.386C325.107 139.386 324.57 139.766 324.318 140.345H324.251V139.457H323.232V144.912H324.293V141.673Z" fill="#171A22"/>
</svg>
