<svg width="685" height="400" viewBox="0 0 685 400" fill="none" xmlns="http://www.w3.org/2000/svg">
<rect width="685" height="400" rx="16" fill="white"/>
<path d="M51.2681 127.206H52.1123V124.946L52.9837 123.965L55.4073 127.206H56.4284L53.5011 123.38L56.4284 120.235H55.3256L52.194 123.693H52.1123V120.235H51.2681V127.206Z" fill="#171A22"/>
<path d="M59.2204 127.315C60.2825 127.315 61.0585 126.784 61.3036 125.994L60.5275 125.776C60.3233 126.321 59.8502 126.593 59.2204 126.593C58.2776 126.593 57.6274 125.984 57.59 124.864H61.3853V124.524C61.3853 122.577 60.228 121.909 59.1388 121.909C57.7227 121.909 56.7833 123.026 56.7833 124.633C56.7833 126.239 57.7091 127.315 59.2204 127.315ZM57.59 124.17C57.6444 123.356 58.2197 122.631 59.1388 122.631C60.0101 122.631 60.5684 123.285 60.5684 124.17H57.59Z" fill="#171A22"/>
<path d="M62.9656 129.167C63.6906 129.167 64.2012 128.782 64.5041 127.968L66.7302 121.991L65.852 121.978L64.4088 126.144H64.3543L62.9111 121.978H62.0397L63.9731 127.233L63.8233 127.642C63.5306 128.438 63.1698 128.513 62.5843 128.363L62.3801 129.071C62.4618 129.112 62.6932 129.167 62.9656 129.167Z" fill="#171A22"/>
<path d="M68.9776 127.206H69.7673L70.9111 123.189H70.9927L72.1364 127.206H72.9261L74.5192 121.978H73.675L72.5449 125.967H72.4904L71.3876 121.978H70.5298L69.4133 125.98H69.3589L68.2288 121.978H67.3846L68.9776 127.206Z" fill="#171A22"/>
<path d="M77.5273 127.315C78.9433 127.315 79.8964 126.239 79.8964 124.619C79.8964 122.985 78.9433 121.909 77.5273 121.909C76.1113 121.909 75.1582 122.985 75.1582 124.619C75.1582 126.239 76.1113 127.315 77.5273 127.315ZM77.5273 126.593C76.4517 126.593 75.9615 125.667 75.9615 124.619C75.9615 123.571 76.4517 122.631 77.5273 122.631C78.603 122.631 79.0931 123.571 79.0931 124.619C79.0931 125.667 78.603 126.593 77.5273 126.593Z" fill="#171A22"/>
<path d="M81.1227 127.206H81.926V123.897C81.926 123.189 82.4842 122.672 83.2467 122.672C83.4611 122.672 83.6824 122.713 83.7368 122.726V121.909C83.6449 121.903 83.4339 121.896 83.3148 121.896C82.6885 121.896 82.1438 122.25 81.9532 122.767H81.8988V121.978H81.1227V127.206Z" fill="#171A22"/>
<path d="M86.5042 127.315C87.5117 127.315 87.8521 126.688 88.0291 126.403H88.1244V127.206H88.9005V120.235H88.0972V122.808H88.0291C87.8521 122.536 87.539 121.909 86.5178 121.909C85.1971 121.909 84.2849 122.958 84.2849 124.605C84.2849 126.266 85.1971 127.315 86.5042 127.315ZM86.6131 126.593C85.6056 126.593 85.0882 125.708 85.0882 124.592C85.0882 123.489 85.592 122.631 86.6131 122.631C87.5934 122.631 88.1108 123.421 88.1108 124.592C88.1108 125.776 87.5798 126.593 86.6131 126.593Z" fill="#171A22"/>
<path d="M94.1867 123.148C93.9349 122.406 93.3698 121.909 92.335 121.909C91.2322 121.909 90.4152 122.536 90.4152 123.421C90.4152 124.142 90.8441 124.626 91.804 124.85L92.6754 125.055C93.203 125.177 93.4515 125.429 93.4515 125.79C93.4515 126.239 92.975 126.607 92.2261 126.607C91.5692 126.607 91.1573 126.324 91.0143 125.763L90.2519 125.953C90.4391 126.842 91.1709 127.315 92.2397 127.315C93.4549 127.315 94.2821 126.651 94.2821 125.749C94.2821 125.021 93.8259 124.561 92.8933 124.333L92.1172 124.142C91.4977 123.989 91.2186 123.782 91.2186 123.38C91.2186 122.931 91.6951 122.604 92.335 122.604C93.0362 122.604 93.3256 122.992 93.4651 123.353L94.1867 123.148Z" fill="#171A22"/>
<path d="M103.496 156.699H107.894V155.95H104.653V155.896L106.219 154.221C107.417 152.938 107.771 152.339 107.771 151.566C107.771 150.49 106.9 149.633 105.675 149.633C104.453 149.633 103.523 150.463 103.523 151.689H104.327C104.327 150.896 104.841 150.368 105.647 150.368C106.403 150.368 106.982 150.831 106.982 151.566C106.982 152.209 106.604 152.686 105.797 153.568L103.496 156.086V156.699Z" fill="#84D149"/>
<path d="M108.987 155.27H112.268V156.699H113.071V155.27H114.024V154.521H113.071V149.728H112.05L108.987 154.575V155.27ZM112.268 154.521H109.899V154.466L112.213 150.804H112.268V154.521Z" fill="#84D149"/>
<path d="M115.571 156.754C115.908 156.754 116.184 156.478 116.184 156.141C116.184 155.804 115.908 155.528 115.571 155.528C115.234 155.528 114.959 155.804 114.959 156.141C114.959 156.478 115.234 156.754 115.571 156.754Z" fill="#84D149"/>
<path d="M117.449 155.27H120.73V156.699H121.533V155.27H122.486V154.521H121.533V149.728H120.512L117.449 154.575V155.27ZM120.73 154.521H118.361V154.466L120.676 150.804H120.73V154.521Z" fill="#84D149"/>
<path d="M126.119 149.728H125.275L123.532 150.885V151.743L125.234 150.613H125.275V156.699H126.119V149.728Z" fill="#84D149"/>
<path d="M131.678 155.392C131.678 156.155 132.154 156.794 133.039 156.794C133.911 156.794 134.387 156.155 134.387 155.392V155.024C134.387 154.262 133.924 153.622 133.039 153.622C132.168 153.622 131.678 154.262 131.678 155.024V155.392ZM128.206 151.403C128.206 152.165 128.682 152.805 129.567 152.805C130.439 152.805 130.915 152.165 130.915 151.403V151.035C130.915 150.273 130.452 149.633 129.567 149.633C128.696 149.633 128.206 150.273 128.206 151.035V151.403ZM128.464 156.699H129.241L134.033 149.728H133.257L128.464 156.699ZM132.372 155.024C132.372 154.602 132.563 154.207 133.039 154.207C133.529 154.207 133.693 154.602 133.693 155.024V155.392C133.693 155.814 133.516 156.209 133.039 156.209C132.549 156.209 132.372 155.814 132.372 155.392V155.024ZM128.9 151.035C128.9 150.613 129.091 150.218 129.567 150.218C130.057 150.218 130.221 150.613 130.221 151.035V151.403C130.221 151.825 130.044 152.22 129.567 152.22C129.077 152.22 128.9 151.825 128.9 151.403V151.035Z" fill="#84D149"/>
<path d="M60.1106 139.184H56.3808L51.7345 142.126V145.645L56.0325 142.951H56.1425V157.953H60.1106V139.184Z" fill="#171A22"/>
<path d="M71.4262 158.209C75.6051 158.209 78.4461 155.487 78.4369 151.693C78.4461 148.101 75.935 145.517 72.5534 145.517C70.9039 145.517 69.4834 146.204 68.8236 147.13H68.7136L69.1993 142.428H77.4013V139.184H65.9277L65.0387 149.082L68.567 149.714C69.1443 148.935 70.2624 148.449 71.3712 148.449C73.2591 148.458 74.6154 149.824 74.6154 151.794C74.6154 153.746 73.2866 155.093 71.4262 155.093C69.85 155.093 68.5761 154.104 68.4845 152.646H64.6355C64.7088 155.891 67.5406 158.209 71.4262 158.209Z" fill="#171A22"/>
<path d="M88.206 158.209C92.4399 158.209 95.4824 155.946 95.4916 152.903C95.4824 150.557 93.6771 148.642 91.4227 148.266V148.138C93.3838 147.734 94.786 146.039 94.7951 143.977C94.786 141.072 92 138.927 88.206 138.927C84.4028 138.927 81.6169 141.072 81.6261 143.977C81.6169 146.03 83.0007 147.734 84.9985 148.138V148.266C82.7074 148.642 80.9204 150.557 80.9296 152.903C80.9204 155.946 83.9721 158.209 88.206 158.209ZM88.206 155.295C86.3182 155.295 85.0535 154.177 85.0535 152.591C85.0535 150.969 86.3823 149.796 88.206 149.796C90.0205 149.796 91.3585 150.969 91.3585 152.591C91.3585 154.186 90.0847 155.295 88.206 155.295ZM88.206 146.91C86.6206 146.91 85.4934 145.874 85.4934 144.389C85.4934 142.923 86.6023 141.915 88.206 141.915C89.8006 141.915 90.9186 142.932 90.9186 144.389C90.9186 145.874 89.7823 146.91 88.206 146.91Z" fill="#171A22"/>
<path d="M77.7053 219.22H643.239V219.958H77.7053V219.22Z" fill="#E9EBEF"/>
<path d="M77.7053 259.036H643.239V259.774H77.7053V259.036Z" fill="#E9EBEF"/>
<path d="M77.7053 298.852H643.239V299.59H77.7053V298.852Z" fill="#E9EBEF"/>
<path d="M77.7053 338.668H643.239V339.405H77.7053V338.668Z" fill="#E9EBEF"/>
<path d="M316.112 356.063H315.527L314.321 356.864V357.458L315.499 356.676H315.527V360.889H316.112V356.063Z" fill="#898D9A"/>
<path d="M319.008 360.955C319.927 360.955 320.601 360.277 320.601 359.353C320.601 358.417 319.95 357.732 319.064 357.732C318.739 357.732 318.423 357.847 318.225 358.005H318.197L318.367 356.582H320.384V356.063H317.877L317.584 358.439L318.131 358.505C318.331 358.361 318.673 358.257 318.97 358.259C319.585 358.264 320.035 358.731 320.035 359.362C320.035 359.982 319.602 360.437 319.008 360.437C318.513 360.437 318.119 360.119 318.075 359.683H317.509C317.544 360.418 318.178 360.955 319.008 360.955Z" fill="#898D9A"/>
<path d="M323.111 360.955C324.176 360.955 324.789 360.053 324.789 358.476C324.789 356.912 324.167 355.997 323.111 355.997C322.055 355.997 321.433 356.912 321.433 358.476C321.433 360.053 322.046 360.955 323.111 360.955ZM323.111 360.437C322.409 360.437 321.999 359.732 321.999 358.476C321.999 357.223 322.413 356.506 323.111 356.506C323.809 356.506 324.223 357.223 324.223 358.476C324.223 359.732 323.813 360.437 323.111 360.437Z" fill="#898D9A"/>
<path d="M110.881 360.955C111.8 360.955 112.474 360.277 112.474 359.353C112.474 358.417 111.823 357.732 110.937 357.732C110.612 357.732 110.296 357.847 110.099 358.005H110.07L110.24 356.582H112.257V356.063H109.75L109.458 358.439L110.004 358.505C110.205 358.361 110.546 358.257 110.843 358.259C111.458 358.264 111.908 358.731 111.908 359.362C111.908 359.982 111.475 360.437 110.881 360.437C110.386 360.437 109.992 360.119 109.948 359.683H109.382C109.417 360.418 110.051 360.955 110.881 360.955Z" fill="#898D9A"/>
<path d="M114.984 360.955C116.049 360.955 116.662 360.053 116.662 358.476C116.662 356.912 116.04 355.997 114.984 355.997C113.928 355.997 113.306 356.912 113.306 358.476C113.306 360.053 113.919 360.955 114.984 360.955ZM114.984 360.437C114.282 360.437 113.872 359.732 113.872 358.476C113.872 357.223 114.287 356.506 114.984 356.506C115.682 356.506 116.096 357.223 116.096 358.476C116.096 359.732 115.686 360.437 114.984 360.437Z" fill="#898D9A"/>
<path d="M78.2048 293.792H81.2495V293.274H79.0061V293.236L80.0901 292.077C80.9196 291.188 81.1646 290.773 81.1646 290.239C81.1646 289.494 80.5614 288.9 79.713 288.9C78.867 288.9 78.2237 289.475 78.2237 290.323H78.7798C78.7798 289.774 79.1357 289.409 79.6942 289.409C80.2173 289.409 80.6179 289.73 80.6179 290.239C80.6179 290.684 80.3564 291.014 79.7979 291.624L78.2048 293.368V293.792Z" fill="#898D9A"/>
<path d="M83.7969 293.858C84.862 293.858 85.4747 292.956 85.4747 291.379C85.4747 289.814 84.8526 288.9 83.7969 288.9C82.7412 288.9 82.119 289.814 82.119 291.379C82.119 292.956 82.7317 293.858 83.7969 293.858ZM83.7969 293.34C83.0946 293.34 82.6846 292.635 82.6846 291.379C82.6846 290.125 83.0994 289.409 83.7969 289.409C84.4944 289.409 84.9092 290.125 84.9092 291.379C84.9092 292.635 84.4991 293.34 83.7969 293.34Z" fill="#898D9A"/>
<path d="M87.9444 293.858C89.0095 293.858 89.6222 292.956 89.6222 291.379C89.6222 289.814 89.0001 288.9 87.9444 288.9C86.8887 288.9 86.2665 289.814 86.2665 291.379C86.2665 292.956 86.8792 293.858 87.9444 293.858ZM87.9444 293.34C87.2421 293.34 86.8321 292.635 86.8321 291.379C86.8321 290.125 87.2468 289.409 87.9444 289.409C88.6419 289.409 89.0567 290.125 89.0567 291.379C89.0567 292.635 88.6466 293.34 87.9444 293.34Z" fill="#898D9A"/>
<path d="M78.0917 251.512H80.3634V252.502H80.9196V251.512H81.5794V250.993H80.9196V247.675H80.2126L78.0917 251.031V251.512ZM80.3634 250.993H78.7233V250.956L80.3257 248.42H80.3634V250.993Z" fill="#898D9A"/>
<path d="M84.0367 252.568C85.1018 252.568 85.7145 251.665 85.7145 250.088C85.7145 248.524 85.0924 247.609 84.0367 247.609C82.9809 247.609 82.3588 248.524 82.3588 250.088C82.3588 251.665 82.9715 252.568 84.0367 252.568ZM84.0367 252.049C83.3344 252.049 82.9244 251.344 82.9244 250.088C82.9244 248.835 83.3391 248.118 84.0367 248.118C84.7342 248.118 85.1489 248.835 85.1489 250.088C85.1489 251.344 84.7389 252.049 84.0367 252.049Z" fill="#898D9A"/>
<path d="M88.1842 252.568C89.2493 252.568 89.862 251.665 89.862 250.088C89.862 248.524 89.2399 247.609 88.1842 247.609C87.1284 247.609 86.5063 248.524 86.5063 250.088C86.5063 251.665 87.119 252.568 88.1842 252.568ZM88.1842 252.049C87.4819 252.049 87.0719 251.344 87.0719 250.088C87.0719 248.835 87.4866 248.118 88.1842 248.118C88.8817 248.118 89.2964 248.835 89.2964 250.088C89.2964 251.344 88.8864 252.049 88.1842 252.049Z" fill="#898D9A"/>
<path d="M54.0109 312.945C52.4839 312.945 51.5318 313.84 51.5318 315.075C51.5318 316.31 52.4839 317.205 54.0109 317.205C55.5379 317.205 56.49 316.31 56.49 315.075C56.49 313.84 55.5379 312.945 54.0109 312.945ZM54.0109 313.51C55.2646 313.51 55.9432 314.198 55.9432 315.075C55.9432 315.952 55.2646 316.64 54.0109 316.64C52.7572 316.64 52.0785 315.952 52.0785 315.075C52.0785 314.198 52.7572 313.51 54.0109 313.51Z" fill="#898D9A"/>
<path d="M56.424 312.037L56.424 311.481L54.1334 311.481C53.6433 311.481 53.2851 311.095 53.2851 310.567C53.2851 310.418 53.3134 310.265 53.3228 310.228L52.7572 310.228C52.7525 310.291 52.7478 310.437 52.7478 310.52C52.7478 310.953 52.9929 311.33 53.3511 311.462L53.3511 311.5L52.8044 311.5L52.8044 312.037L56.424 312.037Z" fill="#898D9A"/>
<path d="M57.8567 308.217C57.8567 307.35 57.4609 306.653 56.5277 306.653L52.8044 306.653L52.8044 307.19L53.3793 307.19L53.3793 307.247C53.1908 307.369 52.7572 307.595 52.7572 308.302C52.7572 309.217 53.483 309.848 54.5953 309.848C55.7264 309.848 56.3674 309.188 56.3674 308.312C56.3674 307.605 55.9527 307.378 55.7547 307.256L55.7547 307.209L56.49 307.209C57.0932 307.209 57.3666 307.633 57.3666 308.217C57.3666 308.875 57.0202 309.106 56.8199 309.254L57.1309 309.697C57.5103 309.471 57.8567 309.026 57.8567 308.217ZM55.8678 308.236C55.8678 308.934 55.34 309.292 54.5859 309.292C53.8506 309.292 53.2568 308.943 53.2568 308.236C53.2568 307.558 53.8035 307.199 54.5859 307.199C55.3871 307.199 55.8678 307.567 55.8678 308.236Z" fill="#898D9A"/>
<path d="M56.5088 304.569C56.5088 303.938 56.1695 303.608 55.9338 303.495L55.9338 303.467L56.424 303.467L56.424 302.91L54.0392 302.91C52.8892 302.91 52.7572 303.787 52.7572 304.249C52.7572 304.796 52.9457 305.418 53.6056 305.701L53.7941 305.173C53.5302 305.05 53.2474 304.76 53.2474 304.23C53.2474 303.719 53.5184 303.467 53.9826 303.467L54.0015 303.467C54.2701 303.467 54.2465 303.74 54.3314 304.4C54.4186 305.071 54.567 305.804 55.3965 305.804C56.1035 305.804 56.5088 305.258 56.5088 304.569ZM56.0092 304.485C56.0092 304.928 55.8113 305.248 55.4248 305.248C55.0006 305.248 54.8687 304.862 54.8121 304.428C54.7838 304.192 54.7179 303.561 54.6047 303.467L55.1137 303.467C55.5662 303.467 56.0092 303.825 56.0092 304.485Z" fill="#898D9A"/>
<path d="M54.2465 301.339C53.615 301.339 53.2568 300.948 53.2568 300.416C53.2568 299.899 53.5938 299.586 54.1617 299.586L56.424 299.586L56.424 299.03L54.124 299.03C53.2002 299.03 52.7572 299.522 52.7572 300.255C52.7572 300.802 53.0023 301.141 53.3699 301.311L53.3699 301.358L52.8044 301.358L52.8044 301.895L56.424 301.895L56.424 301.339L54.2465 301.339Z" fill="#898D9A"/>
<path d="M56.424 298.014L56.424 297.457L52.8044 297.457L52.8044 298.014L56.424 298.014ZM52.2011 297.731C52.2011 297.514 52.0314 297.335 51.824 297.335C51.6167 297.335 51.447 297.514 51.447 297.731C51.447 297.948 51.6167 298.127 51.824 298.127C52.0314 298.127 52.2011 297.948 52.2011 297.731Z" fill="#898D9A"/>
<path d="M56.4994 294.968C56.4994 294.167 56.0092 293.639 55.3683 293.545L55.3683 294.101C55.7642 294.205 55.9998 294.535 55.9998 294.968C55.9998 295.628 55.4531 296.052 54.6142 296.052C53.7941 296.052 53.2568 295.619 53.2568 294.968C53.2568 294.478 53.5584 294.186 53.8884 294.101L53.8884 293.545C53.2097 293.639 52.7572 294.214 52.7572 294.978C52.7572 295.958 53.5302 296.609 54.633 296.609C55.717 296.609 56.4994 295.986 56.4994 294.968Z" fill="#898D9A"/>
<path d="M52.8044 288.151L52.8044 287.585C52.0762 287.611 51.5318 288.283 51.5318 289.216C51.5318 290.14 52.0691 290.866 52.8798 290.866C53.5302 290.866 53.9166 290.394 54.1334 289.64L54.3031 289.046C54.4445 288.537 54.6236 288.085 55.1043 288.085C55.6322 288.085 55.981 288.594 55.981 289.263C55.981 289.838 55.7264 290.347 55.1797 290.394L55.1797 290.998C55.9715 290.941 56.5088 290.3 56.5088 289.263C56.5088 288.151 55.8961 287.519 55.1137 287.519C54.2088 287.519 53.9166 288.377 53.7847 288.877L53.6527 289.367C53.5584 289.725 53.3699 290.3 52.8515 290.3C52.3896 290.3 52.0503 289.876 52.0503 289.235C52.0503 288.651 52.3283 288.208 52.8044 288.151Z" fill="#898D9A"/>
<path d="M56.4994 285.116C56.4994 284.381 56.1318 283.844 55.5851 283.674L55.4342 284.211C55.8113 284.353 55.9998 284.68 55.9998 285.116C55.9998 285.769 55.578 286.219 54.8027 286.245L54.8027 283.618L54.567 283.618C53.2191 283.618 52.7572 284.419 52.7572 285.173C52.7572 286.153 53.5302 286.804 54.6424 286.804C55.7547 286.804 56.4994 286.163 56.4994 285.116ZM54.322 286.245C53.7587 286.207 53.2568 285.809 53.2568 285.173C53.2568 284.57 53.7093 284.183 54.322 284.183L54.322 286.245Z" fill="#898D9A"/>
<path d="M56.5088 281.706C56.5088 281.075 56.1695 280.745 55.9338 280.632L55.9338 280.604L56.424 280.604L56.424 280.047L54.0392 280.047C52.8892 280.047 52.7572 280.924 52.7572 281.386C52.7572 281.933 52.9457 282.555 53.6056 282.838L53.7941 282.31C53.5302 282.187 53.2474 281.897 53.2474 281.367C53.2474 280.856 53.5184 280.604 53.9826 280.604L54.0015 280.604C54.2701 280.604 54.2465 280.877 54.3314 281.537C54.4186 282.208 54.567 282.941 55.3965 282.941C56.1035 282.941 56.5088 282.395 56.5088 281.706ZM56.0092 281.622C56.0092 282.065 55.8113 282.385 55.4248 282.385C55.0006 282.385 54.8687 281.999 54.8121 281.565C54.7838 281.329 54.7179 280.698 54.6047 280.604L55.1137 280.604C55.5662 280.604 56.0092 280.962 56.0092 281.622Z" fill="#898D9A"/>
<path d="M56.424 279.032L56.424 278.476L54.1334 278.476C53.6433 278.476 53.2851 278.09 53.2851 277.562C53.2851 277.413 53.3134 277.26 53.3228 277.223L52.7572 277.223C52.7525 277.286 52.7478 277.432 52.7478 277.515C52.7478 277.948 52.9929 278.325 53.3511 278.457L53.3511 278.495L52.8043 278.495L52.8043 279.032L56.424 279.032Z" fill="#898D9A"/>
<path d="M56.4994 275.203C56.4994 274.402 56.0092 273.874 55.3683 273.78L55.3683 274.336C55.7641 274.44 55.9998 274.769 55.9998 275.203C55.9998 275.863 55.4531 276.287 54.6142 276.287C53.7941 276.287 53.2568 275.853 53.2568 275.203C53.2568 274.713 53.5584 274.421 53.8884 274.336L53.8884 273.78C53.2097 273.874 52.7572 274.449 52.7572 275.212C52.7572 276.193 53.5302 276.843 54.633 276.843C55.717 276.843 56.4994 276.221 56.4994 275.203Z" fill="#898D9A"/>
<path d="M54.2465 272.411C53.615 272.411 53.2568 272.008 53.2568 271.459C53.2568 270.935 53.5867 270.62 54.1617 270.62L56.424 270.62L56.424 270.063L54.124 270.063C53.1932 270.063 52.7572 270.558 52.7572 271.298C52.7572 271.869 52.9952 272.194 53.3699 272.363L53.3699 272.411L51.5978 272.411L51.5978 272.967L56.424 272.967L56.424 272.411L54.2465 272.411Z" fill="#898D9A"/>
<path d="M52.1162 267.368L52.1162 265.851L56.424 265.851L56.424 265.266L52.1162 265.266L52.1162 263.749L51.5978 263.749L51.5978 267.368L52.1162 267.368Z" fill="#898D9A"/>
<path d="M56.424 263.298L56.424 262.742L54.1334 262.742C53.6433 262.742 53.2851 262.355 53.2851 261.827C53.2851 261.679 53.3134 261.526 53.3228 261.488L52.7572 261.488C52.7525 261.552 52.7478 261.698 52.7478 261.78C52.7478 262.214 52.9929 262.591 53.3511 262.723L53.3511 262.761L52.8043 262.761L52.8043 263.298L56.424 263.298Z" fill="#898D9A"/>
<path d="M56.5088 259.764C56.5088 259.132 56.1695 258.802 55.9338 258.689L55.9338 258.661L56.424 258.661L56.424 258.105L54.0392 258.105C52.8892 258.105 52.7572 258.981 52.7572 259.443C52.7572 259.99 52.9457 260.612 53.6056 260.895L53.7941 260.367C53.5302 260.244 53.2474 259.955 53.2474 259.424C53.2474 258.913 53.5184 258.661 53.9826 258.661L54.0015 258.661C54.2701 258.661 54.2465 258.934 54.3314 259.594C54.4186 260.266 54.567 260.998 55.3965 260.998C56.1035 260.998 56.5088 260.452 56.5088 259.764ZM56.0092 259.679C56.0092 260.122 55.8113 260.442 55.4248 260.442C55.0006 260.442 54.8687 260.056 54.8121 259.622C54.7838 259.387 54.7178 258.755 54.6047 258.661L55.1137 258.661C55.5662 258.661 56.0092 259.019 56.0092 259.679Z" fill="#898D9A"/>
<path d="M52.8043 255.478L52.8043 256.288L52.4367 256.288C52.0785 256.288 51.89 256.138 51.89 255.77C51.89 255.61 51.9277 255.515 51.9466 255.459L51.4658 255.299C51.4281 255.383 51.3716 255.553 51.3716 255.826C51.3716 256.345 51.6826 256.844 52.3048 256.844L52.8043 256.844L52.8043 257.429L53.2757 257.429L53.2757 256.844L56.424 256.844L56.424 256.288L53.2757 256.288L53.2757 255.478L52.8043 255.478Z" fill="#898D9A"/>
<path d="M52.8043 253.086L52.8043 253.897L52.4367 253.897C52.0785 253.897 51.89 253.746 51.89 253.379C51.89 253.218 51.9277 253.124 51.9466 253.068L51.4658 252.907C51.4281 252.992 51.3716 253.162 51.3716 253.435C51.3716 253.954 51.6826 254.453 52.3048 254.453L52.8043 254.453L52.8043 255.038L53.2757 255.038L53.2757 254.453L56.424 254.453L56.424 253.897L53.2757 253.897L53.2757 253.086L52.8043 253.086Z" fill="#898D9A"/>
<path d="M56.424 252.307L56.424 251.751L52.8043 251.751L52.8043 252.307L56.424 252.307ZM52.2011 252.024C52.2011 251.807 52.0314 251.628 51.824 251.628C51.6167 251.628 51.447 251.807 51.447 252.024C51.447 252.241 51.6167 252.42 51.824 252.42C52.0314 252.42 52.2011 252.241 52.2011 252.024Z" fill="#898D9A"/>
<path d="M56.4994 249.262C56.4994 248.461 56.0092 247.933 55.3683 247.838L55.3683 248.395C55.7641 248.498 55.9998 248.828 55.9998 249.262C55.9998 249.922 55.4531 250.346 54.6142 250.346C53.7941 250.346 53.2568 249.912 53.2568 249.262C53.2568 248.772 53.5584 248.479 53.8884 248.395L53.8884 247.838C53.2097 247.933 52.7572 248.508 52.7572 249.271C52.7572 250.252 53.5302 250.902 54.633 250.902C55.717 250.902 56.4994 250.28 56.4994 249.262Z" fill="#898D9A"/>
<path d="M54.3879 244.961C55.5756 244.961 56.5654 244.641 57.4043 244.066L57.4043 243.575C56.7822 244.028 55.5096 244.386 54.3879 244.386C53.2662 244.386 51.9937 244.028 51.3716 243.575L51.3716 244.066C52.2105 244.641 53.2002 244.961 54.3879 244.961Z" fill="#898D9A"/>
<path d="M51.5978 238.852L51.5978 239.427L55.3965 239.427L55.3965 239.475L51.5978 242.114L51.5978 242.679L56.424 242.679L56.424 242.095L52.6347 242.095L52.6347 242.048L56.424 239.418L56.424 238.852L51.5978 238.852Z" fill="#898D9A"/>
<path d="M54.0109 236.571C52.8232 236.571 51.8335 236.891 50.9945 237.466L50.9945 237.956C51.6167 237.504 52.8892 237.146 54.0109 237.146C55.1326 237.146 56.4051 237.504 57.0272 237.956L57.0272 237.466C56.1883 236.891 55.1986 236.571 54.0109 236.571Z" fill="#898D9A"/>
<path d="M367.066 356.063H366.482L365.275 356.864V357.458L366.454 356.676H366.482V360.889H367.066V356.063Z" fill="#898D9A"/>
<path d="M368.605 360.889H369.218L371.367 356.61V356.063H368.275V356.582H370.764V356.619L368.605 360.889Z" fill="#898D9A"/>
<path d="M373.689 360.955C374.608 360.955 375.282 360.277 375.282 359.353C375.282 358.417 374.631 357.732 373.745 357.732C373.42 357.732 373.104 357.847 372.906 358.005H372.878L373.048 356.582H375.065V356.063H372.558L372.265 358.438L372.812 358.504C373.012 358.361 373.354 358.257 373.651 358.259C374.266 358.264 374.716 358.731 374.716 359.362C374.716 359.982 374.283 360.437 373.689 360.437C373.194 360.437 372.8 360.119 372.756 359.683H372.19C372.225 360.418 372.859 360.955 373.689 360.955Z" fill="#898D9A"/>
<path d="M163.422 360.889H164.035L166.184 356.61V356.063H163.092V356.582H165.581V356.619L163.422 360.889Z" fill="#898D9A"/>
<path d="M168.506 360.955C169.425 360.955 170.099 360.277 170.099 359.353C170.099 358.417 169.448 357.732 168.562 357.732C168.237 357.732 167.921 357.847 167.723 358.005H167.695L167.865 356.582H169.882V356.063H167.375L167.082 358.438L167.629 358.504C167.829 358.361 168.171 358.257 168.468 358.259C169.083 358.264 169.533 358.731 169.533 359.362C169.533 359.982 169.1 360.437 168.506 360.437C168.011 360.437 167.617 360.119 167.573 359.683H167.007C167.042 360.418 167.676 360.955 168.506 360.955Z" fill="#898D9A"/>
<path d="M418.325 360.889H421.37V360.371H419.127V360.333L420.211 359.174C421.04 358.285 421.285 357.871 421.285 357.336C421.285 356.591 420.682 355.997 419.834 355.997C418.988 355.997 418.344 356.572 418.344 357.421H418.9C418.9 356.871 419.256 356.506 419.815 356.506C420.338 356.506 420.738 356.827 420.738 357.336C420.738 357.781 420.477 358.111 419.918 358.721L418.325 360.465V360.889Z" fill="#898D9A"/>
<path d="M423.917 360.955C424.983 360.955 425.595 360.053 425.595 358.476C425.595 356.912 424.973 355.997 423.917 355.997C422.862 355.997 422.24 356.912 422.24 358.476C422.24 360.053 422.852 360.955 423.917 360.955ZM423.917 360.437C423.215 360.437 422.805 359.732 422.805 358.476C422.805 357.223 423.22 356.506 423.917 356.506C424.615 356.506 425.03 357.223 425.03 358.476C425.03 359.732 424.62 360.437 423.917 360.437Z" fill="#898D9A"/>
<path d="M428.065 360.955C429.13 360.955 429.743 360.053 429.743 358.476C429.743 356.912 429.121 355.997 428.065 355.997C427.009 355.997 426.387 356.912 426.387 358.476C426.387 360.053 427 360.955 428.065 360.955ZM428.065 360.437C427.363 360.437 426.953 359.732 426.953 358.476C426.953 357.223 427.367 356.506 428.065 356.506C428.762 356.506 429.177 357.223 429.177 358.476C429.177 359.732 428.767 360.437 428.065 360.437Z" fill="#898D9A"/>
<path d="M217.623 356.063H217.038L215.832 356.864V357.458L217.01 356.676H217.038V360.889H217.623V356.063Z" fill="#898D9A"/>
<path d="M220.585 360.955C221.65 360.955 222.263 360.053 222.263 358.476C222.263 356.912 221.641 355.997 220.585 355.997C219.529 355.997 218.907 356.912 218.907 358.476C218.907 360.053 219.52 360.955 220.585 360.955ZM220.585 360.437C219.883 360.437 219.473 359.732 219.473 358.476C219.473 357.223 219.887 356.506 220.585 356.506C221.282 356.506 221.697 357.223 221.697 358.476C221.697 359.732 221.287 360.437 220.585 360.437Z" fill="#898D9A"/>
<path d="M224.732 360.955C225.797 360.955 226.41 360.053 226.41 358.476C226.41 356.912 225.788 355.997 224.732 355.997C223.677 355.997 223.054 356.912 223.054 358.476C223.054 360.053 223.667 360.955 224.732 360.955ZM224.732 360.437C224.03 360.437 223.62 359.732 223.62 358.476C223.62 357.223 224.035 356.506 224.732 356.506C225.43 356.506 225.845 357.223 225.845 358.476C225.845 359.732 225.435 360.437 224.732 360.437Z" fill="#898D9A"/>
<path d="M469.959 360.889H473.003V360.371H470.76V360.333L471.844 359.174C472.673 358.285 472.918 357.871 472.918 357.336C472.918 356.591 472.315 355.997 471.467 355.997C470.621 355.997 469.977 356.572 469.977 357.421H470.534C470.534 356.871 470.889 356.506 471.448 356.506C471.971 356.506 472.372 356.827 472.372 357.336C472.372 357.781 472.11 358.111 471.552 358.721L469.959 360.465V360.889Z" fill="#898D9A"/>
<path d="M473.976 360.889H477.021V360.371H474.778V360.333L475.862 359.174C476.691 358.285 476.936 357.871 476.936 357.336C476.936 356.591 476.333 355.997 475.485 355.997C474.639 355.997 473.995 356.572 473.995 357.421H474.551C474.551 356.871 474.907 356.506 475.466 356.506C475.989 356.506 476.39 356.827 476.39 357.336C476.39 357.781 476.128 358.111 475.57 358.721L473.976 360.465V360.889Z" fill="#898D9A"/>
<path d="M479.503 360.955C480.422 360.955 481.096 360.277 481.096 359.353C481.096 358.417 480.445 357.732 479.559 357.732C479.234 357.732 478.918 357.847 478.72 358.005H478.692L478.862 356.582H480.879V356.063H478.371L478.079 358.439L478.626 358.505C478.826 358.361 479.168 358.257 479.465 358.259C480.08 358.264 480.53 358.731 480.53 359.362C480.53 359.982 480.096 360.437 479.503 360.437C479.008 360.437 478.614 360.119 478.569 359.683H478.004C478.039 360.418 478.673 360.955 479.503 360.955Z" fill="#898D9A"/>
<path d="M573.331 360.889H576.376V360.371H574.132V360.333L575.216 359.174C576.046 358.285 576.291 357.871 576.291 357.336C576.291 356.591 575.687 355.997 574.839 355.997C573.993 355.997 573.35 356.572 573.35 357.421H573.906C573.906 356.871 574.262 356.506 574.82 356.506C575.343 356.506 575.744 356.827 575.744 357.336C575.744 357.781 575.482 358.111 574.924 358.721L573.331 360.465V360.889Z" fill="#898D9A"/>
<path d="M577.5 360.889H578.112L580.261 356.61V356.063H577.17V356.582H579.658V356.619L577.5 360.889Z" fill="#898D9A"/>
<path d="M582.583 360.955C583.502 360.955 584.176 360.277 584.176 359.353C584.176 358.417 583.526 357.732 582.64 357.732C582.315 357.732 581.999 357.847 581.801 358.005H581.773L581.942 356.582H583.959V356.063H581.452L581.16 358.439L581.707 358.505C581.907 358.361 582.249 358.257 582.545 358.259C583.161 358.264 583.611 358.731 583.611 359.362C583.611 359.982 583.177 360.437 582.583 360.437C582.088 360.437 581.695 360.119 581.65 359.683H581.084C581.12 360.418 581.754 360.955 582.583 360.955Z" fill="#898D9A"/>
<path d="M267.881 356.063H267.297L266.09 356.864V357.458L267.268 356.676H267.297V360.889H267.881V356.063Z" fill="#898D9A"/>
<path d="M269.269 360.889H272.314V360.371H270.07V360.333L271.154 359.174C271.984 358.285 272.229 357.871 272.229 357.336C272.229 356.591 271.626 355.997 270.777 355.997C269.931 355.997 269.288 356.572 269.288 357.421H269.844C269.844 356.871 270.2 356.506 270.758 356.506C271.282 356.506 271.682 356.827 271.682 357.336C271.682 357.781 271.421 358.111 270.862 358.721L269.269 360.465V360.889Z" fill="#898D9A"/>
<path d="M274.795 360.955C275.714 360.955 276.388 360.277 276.388 359.353C276.388 358.417 275.738 357.732 274.852 357.732C274.527 357.732 274.211 357.847 274.013 358.005H273.985L274.154 356.582H276.171V356.063H273.664L273.372 358.439L273.919 358.505C274.119 358.361 274.461 358.257 274.757 358.259C275.373 358.264 275.823 358.731 275.823 359.362C275.823 359.982 275.389 360.437 274.795 360.437C274.3 360.437 273.907 360.119 273.862 359.683H273.296C273.332 360.418 273.966 360.955 274.795 360.955Z" fill="#898D9A"/>
<path d="M519.295 360.889H522.34V360.371H520.096V360.333L521.18 359.174C522.01 358.285 522.255 357.871 522.255 357.336C522.255 356.591 521.652 355.997 520.803 355.997C519.957 355.997 519.314 356.572 519.314 357.421H519.87C519.87 356.871 520.226 356.506 520.784 356.506C521.308 356.506 521.708 356.827 521.708 357.336C521.708 357.781 521.447 358.111 520.888 358.721L519.295 360.465V360.889Z" fill="#898D9A"/>
<path d="M524.821 360.955C525.74 360.955 526.414 360.277 526.414 359.353C526.414 358.417 525.764 357.732 524.878 357.732C524.552 357.732 524.237 357.847 524.039 358.005H524.01L524.18 356.582H526.197V356.063H523.69L523.398 358.439L523.944 358.505C524.145 358.361 524.486 358.257 524.783 358.259C525.398 358.264 525.849 358.731 525.849 359.362C525.849 359.982 525.415 360.437 524.821 360.437C524.326 360.437 523.933 360.119 523.888 359.683H523.322C523.358 360.418 523.992 360.955 524.821 360.955Z" fill="#898D9A"/>
<path d="M528.924 360.955C529.99 360.955 530.602 360.053 530.602 358.476C530.602 356.912 529.98 355.997 528.924 355.997C527.869 355.997 527.247 356.912 527.247 358.476C527.247 360.053 527.859 360.955 528.924 360.955ZM528.924 360.437C528.222 360.437 527.812 359.732 527.812 358.476C527.812 357.223 528.227 356.506 528.924 356.506C529.622 356.506 530.037 357.223 530.037 358.476C530.037 359.732 529.627 360.437 528.924 360.437Z" fill="#898D9A"/>
<path d="M626.205 360.955C627.141 360.955 627.836 360.369 627.836 359.579C627.836 358.966 627.473 358.521 626.865 358.42V358.382C627.353 358.234 627.657 357.833 627.657 357.289C627.657 356.605 627.117 355.997 626.224 355.997C625.39 355.997 624.697 356.511 624.669 357.27H625.235C625.256 356.789 625.713 356.506 626.215 356.506C626.747 356.506 627.091 356.829 627.091 357.317C627.091 357.826 626.693 358.156 626.121 358.156H625.734V358.674H626.121C626.853 358.674 627.261 359.047 627.261 359.579C627.261 360.09 626.816 360.437 626.196 360.437C625.637 360.437 625.194 360.149 625.159 359.683H624.565C624.601 360.442 625.27 360.955 626.205 360.955Z" fill="#898D9A"/>
<path d="M630.374 360.955C631.439 360.955 632.052 360.053 632.052 358.476C632.052 356.912 631.43 355.997 630.374 355.997C629.318 355.997 628.696 356.912 628.696 358.476C628.696 360.053 629.309 360.955 630.374 360.955ZM630.374 360.437C629.672 360.437 629.262 359.732 629.262 358.476C629.262 357.223 629.677 356.506 630.374 356.506C631.072 356.506 631.486 357.223 631.486 358.476C631.486 359.732 631.076 360.437 630.374 360.437Z" fill="#898D9A"/>
<path d="M634.522 360.955C635.587 360.955 636.199 360.053 636.199 358.476C636.199 356.912 635.577 355.997 634.522 355.997C633.466 355.997 632.844 356.912 632.844 358.476C632.844 360.053 633.456 360.955 634.522 360.955ZM634.522 360.437C633.819 360.437 633.409 359.732 633.409 358.476C633.409 357.223 633.824 356.506 634.522 356.506C635.219 356.506 635.634 357.223 635.634 358.476C635.634 359.732 635.224 360.437 634.522 360.437Z" fill="#898D9A"/>
<path d="M60.8189 187.909C60.5204 185.432 58.6457 184.008 56.1634 184.008C53.3304 184.008 51.1676 186.008 51.1676 189.517C51.1676 193.015 53.2937 195.026 56.1634 195.026C58.9127 195.026 60.5728 193.198 60.8189 191.224L58.5252 191.213C58.3105 192.36 57.4098 193.02 56.2001 193.02C54.5715 193.02 53.4665 191.81 53.4665 189.517C53.4665 187.286 54.5558 186.013 56.2158 186.013C57.4569 186.013 58.3524 186.731 58.5252 187.909H60.8189Z" fill="#171A22"/>
<path d="M66.0373 195.036C68.4776 195.036 69.9963 193.366 69.9963 190.889C69.9963 188.396 68.4776 186.731 66.0373 186.731C63.597 186.731 62.0783 188.396 62.0783 190.889C62.0783 193.366 63.597 195.036 66.0373 195.036ZM66.0478 193.308C64.9219 193.308 64.3458 192.276 64.3458 190.873C64.3458 189.47 64.9219 188.433 66.0478 188.433C67.1527 188.433 67.7288 189.47 67.7288 190.873C67.7288 192.276 67.1527 193.308 66.0478 193.308Z" fill="#171A22"/>
<path d="M71.4468 194.879H73.6777V190.051C73.6777 189.161 74.2432 188.569 74.9869 188.569C75.72 188.569 76.2123 189.072 76.2123 189.862V194.879H78.375V189.967C78.375 189.134 78.8516 188.569 79.6633 188.569C80.3755 188.569 80.9096 189.014 80.9096 189.909V194.879H83.1352V189.47C83.1352 187.726 82.0983 186.731 80.6006 186.731C79.4224 186.731 78.5059 187.333 78.176 188.255H78.0922C77.8356 187.323 77.0135 186.731 75.9085 186.731C74.8245 186.731 74.0024 187.307 73.6672 188.255H73.5729V186.836H71.4468V194.879Z" fill="#171A22"/>
<path d="M84.8974 197.896H87.1282V193.591H87.1963C87.5053 194.261 88.1808 195.01 89.4795 195.01C91.3124 195.01 92.742 193.559 92.742 190.868C92.742 188.103 91.2495 186.731 89.4848 186.731C88.1389 186.731 87.4948 187.532 87.1963 188.187H87.0968V186.836H84.8974V197.896ZM87.0811 190.857C87.0811 189.422 87.6886 188.506 88.7726 188.506C89.8775 188.506 90.464 189.464 90.464 190.857C90.464 192.261 89.867 193.235 88.7726 193.235C87.699 193.235 87.0811 192.292 87.0811 190.857Z" fill="#171A22"/>
<path d="M97.8949 195.036C99.8849 195.036 101.225 194.067 101.54 192.575L99.4764 192.439C99.2513 193.052 98.6752 193.371 97.9316 193.371C96.8162 193.371 96.1092 192.633 96.1092 191.433V191.428H101.587V190.815C101.587 188.082 99.932 186.731 97.8059 186.731C95.4389 186.731 93.9046 188.412 93.9046 190.894C93.9046 193.444 95.418 195.036 97.8949 195.036ZM96.1092 190.046C96.1563 189.129 96.8528 188.396 97.8426 188.396C98.8114 188.396 99.4817 189.087 99.4869 190.046H96.1092Z" fill="#171A22"/>
<path d="M107.321 186.836H105.808V184.908H103.577V186.836H102.477V188.511H103.577V192.701C103.566 194.277 104.64 195.057 106.258 194.989C106.834 194.968 107.243 194.853 107.468 194.78L107.117 193.12C107.007 193.141 106.771 193.193 106.562 193.193C106.117 193.193 105.808 193.025 105.808 192.407V188.511H107.321V186.836Z" fill="#171A22"/>
<path d="M108.774 194.879H111.005V186.836H108.774V194.879ZM109.895 185.799C110.56 185.799 111.105 185.291 111.105 184.668C111.105 184.05 110.56 183.542 109.895 183.542C109.235 183.542 108.69 184.05 108.69 184.668C108.69 185.291 109.235 185.799 109.895 185.799Z" fill="#171A22"/>
<path d="M117.071 186.836H115.557V184.908H113.326V186.836H112.227V188.511H113.326V192.701C113.316 194.277 114.389 195.057 116.007 194.989C116.584 194.968 116.992 194.853 117.217 194.78L116.866 193.12C116.756 193.141 116.521 193.193 116.311 193.193C115.866 193.193 115.557 193.025 115.557 192.407V188.511H117.071V186.836Z" fill="#171A22"/>
<path d="M118.524 194.879H120.755V186.836H118.524V194.879ZM119.644 185.799C120.309 185.799 120.854 185.291 120.854 184.668C120.854 184.05 120.309 183.542 119.644 183.542C118.985 183.542 118.44 184.05 118.44 184.668C118.44 185.291 118.985 185.799 119.644 185.799Z" fill="#171A22"/>
<path d="M130.041 186.836H127.679L126.014 192.591H125.93L124.259 186.836H121.903L124.715 194.879H127.228L130.041 186.836Z" fill="#171A22"/>
<path d="M134.574 195.036C136.564 195.036 137.905 194.067 138.219 192.575L136.156 192.439C135.931 193.052 135.355 193.371 134.611 193.371C133.496 193.371 132.789 192.633 132.789 191.433V191.428H138.266V190.815C138.266 188.082 136.611 186.731 134.485 186.731C132.118 186.731 130.584 188.412 130.584 190.894C130.584 193.444 132.097 195.036 134.574 195.036ZM132.789 190.046C132.836 189.129 133.532 188.396 134.522 188.396C135.491 188.396 136.161 189.087 136.166 190.046H132.789Z" fill="#171A22"/>
<path d="M143.177 194.879H145.444V191.402H147.351C149.817 191.402 151.252 189.93 151.252 187.789C151.252 185.657 149.843 184.154 147.408 184.154H143.177V194.879ZM145.444 189.585V186.008H146.974C148.283 186.008 148.916 186.72 148.916 187.789C148.916 188.852 148.283 189.585 146.984 189.585H145.444Z" fill="#171A22"/>
<path d="M156.188 195.036C158.628 195.036 160.147 193.366 160.147 190.889C160.147 188.396 158.628 186.731 156.188 186.731C153.747 186.731 152.229 188.396 152.229 190.889C152.229 193.366 153.747 195.036 156.188 195.036ZM156.198 193.308C155.072 193.308 154.496 192.276 154.496 190.873C154.496 189.47 155.072 188.433 156.198 188.433C157.303 188.433 157.879 189.47 157.879 190.873C157.879 192.276 157.303 193.308 156.198 193.308Z" fill="#171A22"/>
<path d="M168.29 189.129C168.091 187.647 166.897 186.731 164.865 186.731C162.807 186.731 161.451 187.684 161.456 189.234C161.451 190.438 162.21 191.219 163.781 191.533L165.174 191.81C165.876 191.952 166.195 192.208 166.205 192.612C166.195 193.088 165.677 193.429 164.896 193.429C164.1 193.429 163.571 193.088 163.435 192.434L161.241 192.549C161.451 194.088 162.76 195.036 164.891 195.036C166.975 195.036 168.468 193.973 168.473 192.386C168.468 191.224 167.708 190.527 166.148 190.208L164.692 189.915C163.943 189.752 163.666 189.496 163.671 189.108C163.666 188.626 164.21 188.312 164.902 188.312C165.677 188.312 166.137 188.736 166.247 189.255L168.29 189.129Z" fill="#171A22"/>
<path d="M169.878 194.879H172.109V186.836H169.878V194.879ZM170.998 185.799C171.663 185.799 172.208 185.291 172.208 184.668C172.208 184.05 171.663 183.542 170.998 183.542C170.339 183.542 169.794 184.05 169.794 184.668C169.794 185.291 170.339 185.799 170.998 185.799Z" fill="#171A22"/>
<path d="M178.174 186.836H176.661V184.908H174.43V186.836H173.33V188.511H174.43V192.701C174.419 194.277 175.493 195.057 177.111 194.989C177.687 194.968 178.095 194.853 178.321 194.78L177.97 193.12C177.86 193.141 177.624 193.193 177.415 193.193C176.97 193.193 176.661 193.025 176.661 192.407V188.511H178.174V186.836Z" fill="#171A22"/>
<path d="M179.627 194.879H181.858V186.836H179.627V194.879ZM180.748 185.799C181.413 185.799 181.958 185.291 181.958 184.668C181.958 184.05 181.413 183.542 180.748 183.542C180.088 183.542 179.543 184.05 179.543 184.668C179.543 185.291 180.088 185.799 180.748 185.799Z" fill="#171A22"/>
<path d="M187.279 195.036C189.72 195.036 191.238 193.366 191.238 190.889C191.238 188.396 189.72 186.731 187.279 186.731C184.839 186.731 183.32 188.396 183.32 190.889C183.32 193.366 184.839 195.036 187.279 195.036ZM187.29 193.308C186.164 193.308 185.588 192.276 185.588 190.873C185.588 189.47 186.164 188.433 187.29 188.433C188.395 188.433 188.971 189.47 188.971 190.873C188.971 192.276 188.395 193.308 187.29 193.308Z" fill="#171A22"/>
<path d="M194.92 190.229C194.925 189.192 195.543 188.585 196.444 188.585C197.339 188.585 197.878 189.171 197.873 190.156V194.879H200.104V189.758C200.104 187.883 199.004 186.731 197.329 186.731C196.135 186.731 195.271 187.317 194.909 188.255H194.815V186.836H192.689V194.879H194.92V190.229Z" fill="#171A22"/>
<path d="M201.862 194.879H204.093V186.836H201.862V194.879ZM202.983 185.799C203.648 185.799 204.193 185.291 204.193 184.668C204.193 184.05 203.648 183.542 202.983 183.542C202.323 183.542 201.779 184.05 201.779 184.668C201.779 185.291 202.323 185.799 202.983 185.799Z" fill="#171A22"/>
<path d="M208.111 190.229C208.116 189.192 208.734 188.585 209.635 188.585C210.53 188.585 211.07 189.171 211.065 190.156V194.879H213.295V189.758C213.295 187.883 212.196 186.731 210.52 186.731C209.326 186.731 208.462 187.317 208.101 188.255H208.006V186.836H205.88V194.879H208.111V190.229Z" fill="#171A22"/>
<path d="M218.677 198.063C220.976 198.063 222.61 197.016 222.61 194.958V186.836H220.395V188.187H220.311C220.013 187.532 219.358 186.731 218.012 186.731C216.248 186.731 214.755 188.103 214.755 190.842C214.755 193.518 216.206 194.764 218.018 194.764C219.301 194.764 220.018 194.12 220.311 193.455H220.406V194.926C220.406 196.031 219.699 196.461 218.73 196.461C217.745 196.461 217.248 196.031 217.065 195.544L215.001 195.822C215.268 197.089 216.509 198.063 218.677 198.063ZM218.725 193.088C217.63 193.088 217.033 192.219 217.033 190.831C217.033 189.464 217.62 188.506 218.725 188.506C219.809 188.506 220.416 189.422 220.416 190.831C220.416 192.25 219.798 193.088 218.725 193.088Z" fill="#171A22"/>
<path d="M227.84 184.154V194.879H230.04V187.872H230.129L232.904 194.827H234.402L237.178 187.899H237.267V194.879H239.466V184.154H236.67L233.716 191.36H233.59L230.637 184.154H227.84Z" fill="#171A22"/>
<path d="M243.586 195.031C244.775 195.031 245.545 194.513 245.937 193.764H246V194.879H248.116V189.454C248.116 187.537 246.492 186.731 244.701 186.731C242.774 186.731 241.507 187.652 241.198 189.119L243.261 189.286C243.413 188.752 243.89 188.359 244.691 188.359C245.45 188.359 245.885 188.742 245.885 189.402V189.433C245.885 189.951 245.335 190.019 243.937 190.156C242.345 190.302 240.915 190.836 240.915 192.633C240.915 194.225 242.052 195.031 243.586 195.031ZM244.225 193.491C243.539 193.491 243.047 193.172 243.047 192.559C243.047 191.931 243.565 191.622 244.351 191.512C244.838 191.444 245.634 191.329 245.901 191.151V192.004C245.901 192.847 245.204 193.491 244.225 193.491Z" fill="#171A22"/>
<path d="M249.846 197.896H252.077V193.591H252.145C252.454 194.261 253.13 195.01 254.429 195.01C256.261 195.01 257.691 193.559 257.691 190.868C257.691 188.103 256.199 186.731 254.434 186.731C253.088 186.731 252.444 187.532 252.145 188.187H252.046V186.836H249.846V197.896ZM252.03 190.857C252.03 189.422 252.638 188.506 253.722 188.506C254.827 188.506 255.413 189.464 255.413 190.857C255.413 192.261 254.816 193.235 253.722 193.235C252.648 193.235 252.03 192.292 252.03 190.857Z" fill="#171A22"/>
<path d="M57.9753 85.3736C57.9753 82.9176 56.4504 81.5173 54.4599 81.5173C52.4584 81.5173 50.9445 82.9176 50.9445 85.3736C50.9445 87.8186 52.4584 89.2299 54.4599 89.2299C56.4504 89.2299 57.9753 87.8296 57.9753 85.3736ZM56.3661 85.3736C56.3661 86.9645 55.611 87.826 54.4599 87.826C53.3052 87.826 52.5538 86.9645 52.5538 85.3736C52.5538 83.7827 53.3052 82.9213 54.4599 82.9213C55.611 82.9213 56.3661 83.7827 56.3661 85.3736Z" fill="#171A22"/>
<path d="M64.3711 83.4968H62.7179L61.5522 87.5254H61.4935L60.3241 83.4968H58.6746L60.6431 89.1273H62.4026L64.3711 83.4968Z" fill="#171A22"/>
<path d="M67.5447 89.2373C68.9376 89.2373 69.8761 88.5591 70.096 87.5144L68.6517 87.4191C68.4941 87.848 68.0909 88.0716 67.5703 88.0716C66.7895 88.0716 66.2947 87.5547 66.2947 86.7153V86.7116H70.129V86.2827C70.129 84.3692 68.9706 83.4235 67.4824 83.4235C65.8255 83.4235 64.7514 84.6002 64.7514 86.3377C64.7514 88.1229 65.8108 89.2373 67.5447 89.2373ZM66.2947 85.7439C66.3277 85.1024 66.8152 84.5892 67.508 84.5892C68.1862 84.5892 68.6554 85.073 68.6591 85.7439H66.2947Z" fill="#171A22"/>
<path d="M71.1481 89.1273H72.7097V85.9418C72.7097 85.249 73.2155 84.7724 73.9047 84.7724C74.121 84.7724 74.4179 84.8091 74.5645 84.8568V83.4711C74.4252 83.4381 74.2309 83.4161 74.0733 83.4161C73.4428 83.4161 72.9259 83.7827 72.7207 84.4792H72.662V83.4968H71.1481V89.1273Z" fill="#171A22"/>
<path d="M80.7926 83.4968H79.1393L77.9736 87.5254H77.915L76.7456 83.4968H75.096L77.0645 89.1273H78.8241L80.7926 83.4968Z" fill="#171A22"/>
<path d="M81.5917 89.1273H83.1533V83.4968H81.5917V89.1273ZM82.3761 82.771C82.8417 82.771 83.2229 82.4154 83.2229 81.9792C83.2229 81.5466 82.8417 81.191 82.3761 81.191C81.9143 81.191 81.533 81.5466 81.533 81.9792C81.533 82.4154 81.9143 82.771 82.3761 82.771Z" fill="#171A22"/>
<path d="M86.9702 89.2373C88.3632 89.2373 89.3016 88.5591 89.5215 87.5144L88.0772 87.4191C87.9196 87.848 87.5164 88.0716 86.9959 88.0716C86.2151 88.0716 85.7202 87.5547 85.7202 86.7153V86.7116H89.5545V86.2827C89.5545 84.3692 88.3962 83.4235 86.9079 83.4235C85.251 83.4235 84.1769 84.6002 84.1769 86.3377C84.1769 88.1229 85.2363 89.2373 86.9702 89.2373ZM85.7202 85.7439C85.7532 85.1024 86.2407 84.5892 86.9335 84.5892C87.6117 84.5892 88.0809 85.073 88.0846 85.7439H85.7202Z" fill="#171A22"/>
<path d="M91.644 89.1273H93.2935L94.2613 85.5862H94.3309L95.2987 89.1273H96.9519L98.4805 83.4968H96.9043L96.0465 87.2578H95.9988L95.0751 83.4968H93.5245L92.6154 87.2798H92.5641L91.6916 83.4968H90.1117L91.644 89.1273Z" fill="#171A22"/>
<path d="M120.386 89.1273H121.973V86.6933H123.307C125.034 86.6933 126.038 85.6632 126.038 84.1639C126.038 82.672 125.052 81.6199 123.348 81.6199H120.386V89.1273ZM121.973 85.4213V82.9176H123.043C123.96 82.9176 124.403 83.4161 124.403 84.1639C124.403 84.9081 123.96 85.4213 123.051 85.4213H121.973Z" fill="#171A22"/>
<path d="M129.493 89.2373C131.201 89.2373 132.264 88.0679 132.264 86.334C132.264 84.5892 131.201 83.4235 129.493 83.4235C127.785 83.4235 126.722 84.5892 126.722 86.334C126.722 88.0679 127.785 89.2373 129.493 89.2373ZM129.5 88.0276C128.712 88.0276 128.309 87.3054 128.309 86.323C128.309 85.3406 128.712 84.6148 129.5 84.6148C130.274 84.6148 130.677 85.3406 130.677 86.323C130.677 87.3054 130.274 88.0276 129.5 88.0276Z" fill="#171A22"/>
<path d="M137.965 85.1024C137.825 84.065 136.989 83.4235 135.567 83.4235C134.127 83.4235 133.177 84.0906 133.181 85.1757C133.177 86.0188 133.709 86.565 134.808 86.7849L135.783 86.9792C136.275 87.0782 136.498 87.2578 136.506 87.5401C136.498 87.8736 136.135 88.1119 135.589 88.1119C135.032 88.1119 134.662 87.8736 134.566 87.4154L133.031 87.4961C133.177 88.5738 134.094 89.2373 135.586 89.2373C137.044 89.2373 138.089 88.4931 138.093 87.3824C138.089 86.5686 137.558 86.0811 136.465 85.8575L135.446 85.6522C134.922 85.5386 134.728 85.359 134.731 85.0877C134.728 84.7504 135.109 84.5305 135.593 84.5305C136.135 84.5305 136.458 84.8274 136.535 85.1903L137.965 85.1024Z" fill="#171A22"/>
<path d="M139.076 89.1273H140.638V83.4968H139.076V89.1273ZM139.861 82.771C140.326 82.771 140.707 82.4154 140.707 81.9792C140.707 81.5466 140.326 81.191 139.861 81.191C139.399 81.191 139.018 81.5466 139.018 81.9792C139.018 82.4154 139.399 82.771 139.861 82.771Z" fill="#171A22"/>
<path d="M144.884 83.4968H143.824V82.1478H142.263V83.4968H141.493V84.6698H142.263V87.6024C142.255 88.7057 143.007 89.2519 144.139 89.2043C144.543 89.1896 144.829 89.109 144.986 89.0577L144.741 87.8956C144.664 87.9103 144.499 87.9469 144.352 87.9469C144.04 87.9469 143.824 87.8296 143.824 87.3971V84.6698H144.884V83.4968Z" fill="#171A22"/>
<path d="M145.901 89.1273H147.462V83.4968H145.901V89.1273ZM146.685 82.771C147.151 82.771 147.532 82.4154 147.532 81.9792C147.532 81.5466 147.151 81.191 146.685 81.191C146.223 81.191 145.842 81.5466 145.842 81.9792C145.842 82.4154 146.223 82.771 146.685 82.771Z" fill="#171A22"/>
<path d="M151.257 89.2373C152.966 89.2373 154.029 88.0679 154.029 86.334C154.029 84.5892 152.966 83.4235 151.257 83.4235C149.549 83.4235 148.486 84.5892 148.486 86.334C148.486 88.0679 149.549 89.2373 151.257 89.2373ZM151.265 88.0276C150.477 88.0276 150.073 87.3054 150.073 86.323C150.073 85.3406 150.477 84.6148 151.265 84.6148C152.038 84.6148 152.441 85.3406 152.441 86.323C152.441 87.3054 152.038 88.0276 151.265 88.0276Z" fill="#171A22"/>
<path d="M156.606 85.8722C156.609 85.1463 157.042 84.7211 157.672 84.7211C158.299 84.7211 158.677 85.1317 158.673 85.8208V89.1273H160.235V85.5422C160.235 84.2299 159.465 83.4235 158.292 83.4235C157.456 83.4235 156.851 83.834 156.598 84.4902H156.532V83.4968H155.044V89.1273H156.606V85.8722Z" fill="#171A22"/>
<path d="M166.15 85.1024C166.011 84.065 165.175 83.4235 163.753 83.4235C162.312 83.4235 161.363 84.0906 161.366 85.1757C161.363 86.0188 161.894 86.565 162.994 86.7849L163.969 86.9792C164.46 87.0782 164.684 87.2578 164.691 87.5401C164.684 87.8736 164.321 88.1119 163.775 88.1119C163.218 88.1119 162.847 87.8736 162.752 87.4154L161.216 87.4961C161.363 88.5738 162.279 89.2373 163.771 89.2373C165.23 89.2373 166.275 88.4931 166.279 87.3824C166.275 86.5686 165.743 86.0811 164.651 85.8575L163.632 85.6522C163.108 85.5386 162.913 85.359 162.917 85.0877C162.913 84.7504 163.295 84.5305 163.778 84.5305C164.321 84.5305 164.644 84.8274 164.721 85.1903L166.15 85.1024Z" fill="#171A22"/>
<path d="M51.1613 97.5607H641.027V98.298H51.1613V97.5607Z" fill="#E9EBEF"/>
<path d="M188.22 89.1273H189.807V86.6933H191.142C192.868 86.6933 193.873 85.6632 193.873 84.1639C193.873 82.672 192.887 81.6199 191.182 81.6199H188.22V89.1273ZM189.807 85.4213V82.9176H190.878C191.794 82.9176 192.238 83.4161 192.238 84.1639C192.238 84.9081 191.794 85.4213 190.885 85.4213H189.807Z" fill="#171A22"/>
<path d="M197.328 89.2373C199.036 89.2373 200.099 88.0679 200.099 86.334C200.099 84.5892 199.036 83.4235 197.328 83.4235C195.619 83.4235 194.556 84.5892 194.556 86.334C194.556 88.0679 195.619 89.2373 197.328 89.2373ZM197.335 88.0276C196.547 88.0276 196.144 87.3054 196.144 86.323C196.144 85.3406 196.547 84.6148 197.335 84.6148C198.108 84.6148 198.512 85.3406 198.512 86.323C198.512 87.3054 198.108 88.0276 197.335 88.0276Z" fill="#171A22"/>
<path d="M205.799 85.1024C205.66 84.065 204.824 83.4235 203.402 83.4235C201.961 83.4235 201.012 84.0906 201.015 85.1757C201.012 86.0188 201.543 86.565 202.643 86.7849L203.618 86.9792C204.109 87.0782 204.333 87.2578 204.34 87.5401C204.333 87.8736 203.97 88.1119 203.424 88.1119C202.867 88.1119 202.496 87.8736 202.401 87.4154L200.865 87.4961C201.012 88.5738 201.928 89.2373 203.42 89.2373C204.879 89.2373 205.924 88.4931 205.927 87.3824C205.924 86.5686 205.392 86.0811 204.3 85.8575L203.281 85.6522C202.757 85.5386 202.562 85.359 202.566 85.0877C202.562 84.7504 202.943 84.5305 203.427 84.5305C203.97 84.5305 204.292 84.8274 204.369 85.1903L205.799 85.1024Z" fill="#171A22"/>
<path d="M206.911 89.1273H208.472V83.4968H206.911V89.1273ZM207.695 82.771C208.161 82.771 208.542 82.4154 208.542 81.9792C208.542 81.5466 208.161 81.191 207.695 81.191C207.233 81.191 206.852 81.5466 206.852 81.9792C206.852 82.4154 207.233 82.771 207.695 82.771Z" fill="#171A22"/>
<path d="M212.718 83.4968H211.659V82.1478H210.097V83.4968H209.327V84.6698H210.097V87.6024C210.09 88.7057 210.841 89.2519 211.974 89.2043C212.377 89.1896 212.663 89.109 212.821 89.0577L212.575 87.8956C212.498 87.9103 212.333 87.9469 212.187 87.9469C211.875 87.9469 211.659 87.8296 211.659 87.3971V84.6698H212.718V83.4968Z" fill="#171A22"/>
<path d="M213.735 89.1273H215.297V83.4968H213.735V89.1273ZM214.52 82.771C214.985 82.771 215.367 82.4154 215.367 81.9792C215.367 81.5466 214.985 81.191 214.52 81.191C214.058 81.191 213.677 81.5466 213.677 81.9792C213.677 82.4154 214.058 82.771 214.52 82.771Z" fill="#171A22"/>
<path d="M219.092 89.2373C220.8 89.2373 221.863 88.0679 221.863 86.334C221.863 84.5892 220.8 83.4235 219.092 83.4235C217.384 83.4235 216.321 84.5892 216.321 86.334C216.321 88.0679 217.384 89.2373 219.092 89.2373ZM219.099 88.0276C218.311 88.0276 217.908 87.3054 217.908 86.323C217.908 85.3406 218.311 84.6148 219.099 84.6148C219.873 84.6148 220.276 85.3406 220.276 86.323C220.276 87.3054 219.873 88.0276 219.099 88.0276Z" fill="#171A22"/>
<path d="M224.44 85.8722C224.444 85.1463 224.876 84.7211 225.507 84.7211C226.134 84.7211 226.511 85.1317 226.508 85.8208V89.1273H228.069V85.5422C228.069 84.2299 227.299 83.4235 226.126 83.4235C225.291 83.4235 224.686 83.834 224.433 84.4902H224.367V83.4968H222.879V89.1273H224.44V85.8722Z" fill="#171A22"/>
<path d="M238.342 84.2482C238.133 82.5144 236.821 81.5173 235.084 81.5173C233.1 81.5173 231.586 82.9176 231.586 85.3736C231.586 87.8223 233.075 89.2299 235.084 89.2299C237.008 89.2299 238.17 87.9506 238.342 86.5686L236.737 86.5613C236.586 87.3641 235.956 87.826 235.109 87.826C233.969 87.826 233.196 86.9792 233.196 85.3736C233.196 83.812 233.958 82.9213 235.12 82.9213C235.989 82.9213 236.616 83.4235 236.737 84.2482H238.342Z" fill="#171A22"/>
<path d="M241.013 85.8722C241.016 85.1463 241.46 84.7211 242.098 84.7211C242.732 84.7211 243.106 85.128 243.102 85.8208V89.1273H244.664V85.5422C244.668 84.2226 243.89 83.4235 242.717 83.4235C241.863 83.4235 241.291 83.8267 241.035 84.4902H240.969V81.6199H239.451V89.1273H241.013V85.8722Z" fill="#171A22"/>
<path d="M247.498 89.2336C248.33 89.2336 248.869 88.8707 249.144 88.3465H249.188V89.1273H250.669V85.3296C250.669 83.988 249.533 83.4235 248.279 83.4235C246.93 83.4235 246.043 84.0686 245.827 85.095L247.271 85.2123C247.377 84.8384 247.711 84.5635 248.272 84.5635C248.803 84.5635 249.108 84.8311 249.108 85.293V85.315C249.108 85.6779 248.723 85.7255 247.744 85.8208C246.63 85.9235 245.629 86.2974 245.629 87.5547C245.629 88.6691 246.424 89.2336 247.498 89.2336ZM247.946 88.1559C247.465 88.1559 247.121 87.9323 247.121 87.5034C247.121 87.0635 247.484 86.8472 248.034 86.7703C248.374 86.7226 248.932 86.642 249.119 86.5173V87.1148C249.119 87.705 248.631 88.1559 247.946 88.1559Z" fill="#171A22"/>
<path d="M253.442 85.8722C253.446 85.1463 253.879 84.7211 254.509 84.7211C255.136 84.7211 255.513 85.1317 255.51 85.8208V89.1273H257.071V85.5422C257.071 84.2299 256.302 83.4235 255.129 83.4235C254.293 83.4235 253.688 83.834 253.435 84.4902H253.369V83.4968H251.881V89.1273H253.442V85.8722Z" fill="#171A22"/>
<path d="M260.839 91.3561C262.448 91.3561 263.592 90.6229 263.592 89.1823V83.4968H262.041V84.4425H261.982C261.774 83.9843 261.315 83.4235 260.373 83.4235C259.138 83.4235 258.093 84.3839 258.093 86.301C258.093 88.1742 259.109 89.0467 260.377 89.0467C261.275 89.0467 261.777 88.5958 261.982 88.1302H262.048V89.1603C262.048 89.9338 261.554 90.2343 260.875 90.2343C260.186 90.2343 259.838 89.9338 259.71 89.5928L258.265 89.7871C258.452 90.6742 259.321 91.3561 260.839 91.3561ZM260.872 87.8736C260.106 87.8736 259.688 87.2651 259.688 86.2937C259.688 85.337 260.098 84.6661 260.872 84.6661C261.631 84.6661 262.056 85.3076 262.056 86.2937C262.056 87.2871 261.623 87.8736 260.872 87.8736Z" fill="#171A22"/>
<path d="M267.4 89.2373C268.793 89.2373 269.732 88.5591 269.952 87.5144L268.507 87.4191C268.35 87.848 267.947 88.0716 267.426 88.0716C266.645 88.0716 266.15 87.5547 266.15 86.7153V86.7116H269.985V86.2827C269.985 84.3692 268.826 83.4235 267.338 83.4235C265.681 83.4235 264.607 84.6002 264.607 86.3377C264.607 88.1229 265.667 89.2373 267.4 89.2373ZM266.15 85.7439C266.183 85.1024 266.671 84.5892 267.364 84.5892C268.042 84.5892 268.511 85.073 268.515 85.7439H266.15Z" fill="#171A22"/>
<path d="M275.689 85.1024C275.549 84.065 274.714 83.4235 273.291 83.4235C271.851 83.4235 270.901 84.0906 270.905 85.1757C270.901 86.0188 271.433 86.565 272.532 86.7849L273.507 86.9792C273.999 87.0782 274.222 87.2578 274.23 87.5401C274.222 87.8736 273.859 88.1119 273.313 88.1119C272.756 88.1119 272.386 87.8736 272.29 87.4154L270.755 87.4961C270.901 88.5738 271.818 89.2373 273.31 89.2373C274.769 89.2373 275.813 88.4931 275.817 87.3824C275.813 86.5686 275.282 86.0811 274.189 85.8575L273.17 85.6522C272.646 85.5386 272.452 85.359 272.455 85.0877C272.452 84.7504 272.833 84.5305 273.317 84.5305C273.859 84.5305 274.182 84.8274 274.259 85.1903L275.689 85.1024Z" fill="#171A22"/>
<path d="M287.107 73.2286H371.901V98.2979H287.107V73.2286Z" fill="#E9EBEF"/>
<path d="M287.845 73.9661H371.163V99.0353H287.845V73.9661Z" fill="white"/>
<path d="M304.706 84.2482C304.498 82.5144 303.185 81.5173 301.448 81.5173C299.465 81.5173 297.951 82.9176 297.951 85.3736C297.951 87.8223 299.439 89.2299 301.448 89.2299C303.372 89.2299 304.534 87.9506 304.706 86.5686L303.101 86.5613C302.951 87.3641 302.32 87.826 301.473 87.826C300.333 87.826 299.56 86.9792 299.56 85.3736C299.56 83.812 300.322 82.9213 301.484 82.9213C302.353 82.9213 302.98 83.4235 303.101 84.2482H304.706Z" fill="#00A8FF"/>
<path d="M308.359 89.2373C310.068 89.2373 311.131 88.0679 311.131 86.334C311.131 84.5892 310.068 83.4235 308.359 83.4235C306.651 83.4235 305.588 84.5892 305.588 86.334C305.588 88.0679 306.651 89.2373 308.359 89.2373ZM308.367 88.0276C307.579 88.0276 307.175 87.3054 307.175 86.323C307.175 85.3406 307.579 84.6148 308.367 84.6148C309.14 84.6148 309.543 85.3406 309.543 86.323C309.543 87.3054 309.14 88.0276 308.367 88.0276Z" fill="#00A8FF"/>
<path d="M312.146 89.1273H313.708V85.7475C313.708 85.1243 314.104 84.7101 314.624 84.7101C315.137 84.7101 315.482 85.062 315.482 85.6156V89.1273H316.996V85.6889C316.996 85.106 317.329 84.7101 317.898 84.7101C318.396 84.7101 318.77 85.0217 318.77 85.6485V89.1273H320.328V85.3406C320.328 84.1199 319.602 83.4235 318.554 83.4235C317.729 83.4235 317.087 83.845 316.856 84.4902H316.798C316.618 83.8377 316.043 83.4235 315.269 83.4235C314.51 83.4235 313.935 83.8267 313.7 84.4902H313.634V83.4968H312.146V89.1273Z" fill="#00A8FF"/>
<path d="M321.561 91.2388H323.123V88.2255H323.171C323.387 88.6948 323.86 89.2189 324.769 89.2189C326.052 89.2189 327.053 88.2035 327.053 86.3194C327.053 84.3839 326.008 83.4235 324.773 83.4235C323.831 83.4235 323.38 83.9843 323.171 84.4425H323.101V83.4968H321.561V91.2388ZM323.09 86.312C323.09 85.3076 323.515 84.6661 324.274 84.6661C325.048 84.6661 325.458 85.337 325.458 86.312C325.458 87.2944 325.04 87.9763 324.274 87.9763C323.523 87.9763 323.09 87.3164 323.09 86.312Z" fill="#00A8FF"/>
<path d="M330.66 89.2373C332.053 89.2373 332.991 88.5591 333.211 87.5144L331.767 87.4191C331.609 87.848 331.206 88.0716 330.685 88.0716C329.905 88.0716 329.41 87.5547 329.41 86.7153V86.7116H333.244V86.2827C333.244 84.3692 332.086 83.4235 330.597 83.4235C328.941 83.4235 327.866 84.6002 327.866 86.3377C327.866 88.1229 328.926 89.2373 330.66 89.2373ZM329.41 85.7439C329.443 85.1024 329.93 84.5892 330.623 84.5892C331.301 84.5892 331.77 85.073 331.774 85.7439H329.41Z" fill="#00A8FF"/>
<path d="M337.258 83.4968H336.199V82.1478H334.637V83.4968H333.867V84.6698H334.637V87.6024C334.63 88.7057 335.381 89.2519 336.514 89.2043C336.917 89.1896 337.203 89.109 337.361 89.0577L337.115 87.8956C337.038 87.9103 336.873 87.9469 336.726 87.9469C336.415 87.9469 336.199 87.8296 336.199 87.3971V84.6698H337.258V83.4968Z" fill="#00A8FF"/>
<path d="M338.275 89.1273H339.837V83.4968H338.275V89.1273ZM339.06 82.771C339.525 82.771 339.906 82.4154 339.906 81.9792C339.906 81.5466 339.525 81.191 339.06 81.191C338.598 81.191 338.217 81.5466 338.217 81.9792C338.217 82.4154 338.598 82.771 339.06 82.771Z" fill="#00A8FF"/>
<path d="M344.083 83.4968H343.023V82.1478H341.462V83.4968H340.692V84.6698H341.462V87.6024C341.454 88.7057 342.206 89.2519 343.339 89.2043C343.742 89.1896 344.028 89.109 344.185 89.0577L343.94 87.8956C343.863 87.9103 343.698 87.9469 343.551 87.9469C343.24 87.9469 343.023 87.8296 343.023 87.3971V84.6698H344.083V83.4968Z" fill="#00A8FF"/>
<path d="M347.583 89.2373C349.292 89.2373 350.355 88.0679 350.355 86.334C350.355 84.5892 349.292 83.4235 347.583 83.4235C345.875 83.4235 344.812 84.5892 344.812 86.334C344.812 88.0679 345.875 89.2373 347.583 89.2373ZM347.591 88.0276C346.803 88.0276 346.399 87.3054 346.399 86.323C346.399 85.3406 346.803 84.6148 347.591 84.6148C348.364 84.6148 348.767 85.3406 348.767 86.323C348.767 87.3054 348.364 88.0276 347.591 88.0276Z" fill="#00A8FF"/>
<path d="M351.37 89.1273H352.932V85.9418C352.932 85.249 353.438 84.7724 354.127 84.7724C354.343 84.7724 354.64 84.8091 354.787 84.8568V83.4711C354.647 83.4381 354.453 83.4161 354.295 83.4161C353.665 83.4161 353.148 83.7827 352.943 84.4792H352.884V83.4968H351.37V89.1273Z" fill="#00A8FF"/>
<path d="M360.279 85.1024C360.139 84.065 359.304 83.4235 357.881 83.4235C356.441 83.4235 355.491 84.0906 355.495 85.1757C355.491 86.0188 356.023 86.565 357.122 86.7849L358.098 86.9792C358.589 87.0782 358.812 87.2578 358.82 87.5401C358.812 87.8736 358.449 88.1119 357.903 88.1119C357.346 88.1119 356.976 87.8736 356.881 87.4154L355.345 87.4961C355.491 88.5738 356.408 89.2373 357.9 89.2373C359.359 89.2373 360.403 88.4931 360.407 87.3824C360.403 86.5686 359.872 86.0811 358.779 85.8575L357.76 85.6522C357.236 85.5386 357.042 85.359 357.046 85.0877C357.042 84.7504 357.423 84.5305 357.907 84.5305C358.449 84.5305 358.772 84.8274 358.849 85.1903L360.279 85.1024Z" fill="#00A8FF"/>
<path d="M382.138 89.1274H383.726V86.6933H385.06C386.786 86.6933 387.791 85.6633 387.791 84.164C387.791 82.6721 386.805 81.62 385.1 81.62H382.138V89.1274ZM383.726 85.4213V82.9177H384.796C385.712 82.9177 386.156 83.4162 386.156 84.164C386.156 84.9081 385.712 85.4213 384.803 85.4213H383.726Z" fill="#171A22"/>
<path d="M390.247 89.2337C391.079 89.2337 391.618 88.8708 391.893 88.3466H391.937V89.1274H393.418V85.3297C393.418 83.988 392.281 83.4235 391.028 83.4235C389.679 83.4235 388.792 84.0687 388.575 85.0951L390.02 85.2124C390.126 84.8385 390.459 84.5636 391.02 84.5636C391.552 84.5636 391.856 84.8312 391.856 85.293V85.315C391.856 85.6779 391.471 85.7256 390.492 85.8209C389.378 85.9235 388.377 86.2974 388.377 87.5548C388.377 88.6692 389.173 89.2337 390.247 89.2337ZM390.694 88.156C390.214 88.156 389.869 87.9323 389.869 87.5035C389.869 87.0636 390.232 86.8473 390.782 86.7703C391.123 86.7227 391.68 86.642 391.867 86.5174V87.1149C391.867 87.7051 391.38 88.156 390.694 88.156Z" fill="#171A22"/>
<path d="M397.166 91.3561C398.775 91.3561 399.919 90.623 399.919 89.1824V83.4968H398.368V84.4426H398.31C398.101 83.9844 397.642 83.4235 396.7 83.4235C395.465 83.4235 394.42 84.3839 394.42 86.3011C394.42 88.1743 395.436 89.0467 396.704 89.0467C397.602 89.0467 398.104 88.5958 398.31 88.1303H398.376V89.1604C398.376 89.9338 397.881 90.2344 397.203 90.2344C396.513 90.2344 396.165 89.9338 396.037 89.5929L394.593 89.7872C394.78 90.6743 395.648 91.3561 397.166 91.3561ZM397.199 87.8737C396.433 87.8737 396.015 87.2652 396.015 86.2938C396.015 85.337 396.425 84.6662 397.199 84.6662C397.958 84.6662 398.383 85.3077 398.383 86.2938C398.383 87.2872 397.95 87.8737 397.199 87.8737Z" fill="#171A22"/>
<path d="M403.728 89.2373C405.121 89.2373 406.059 88.5592 406.279 87.5145L404.835 87.4191C404.677 87.848 404.274 88.0716 403.753 88.0716C402.972 88.0716 402.478 87.5548 402.478 86.7153V86.7117H406.312V86.2828C406.312 84.3693 405.154 83.4235 403.665 83.4235C402.008 83.4235 400.934 84.6002 400.934 86.3378C400.934 88.123 401.994 89.2373 403.728 89.2373ZM402.478 85.7439C402.511 85.1024 402.998 84.5892 403.691 84.5892C404.369 84.5892 404.838 85.0731 404.842 85.7439H402.478Z" fill="#171A22"/>
<path d="M412.016 85.1024C411.876 84.065 411.041 83.4235 409.618 83.4235C408.178 83.4235 407.228 84.0907 407.232 85.1757C407.228 86.0188 407.76 86.565 408.86 86.785L409.835 86.9793C410.326 87.0782 410.549 87.2579 410.557 87.5401C410.549 87.8737 410.187 88.112 409.64 88.112C409.083 88.112 408.713 87.8737 408.618 87.4155L407.082 87.4961C407.228 88.5738 408.145 89.2373 409.637 89.2373C411.096 89.2373 412.14 88.4932 412.144 87.3825C412.14 86.5687 411.609 86.0812 410.516 85.8576L409.497 85.6523C408.973 85.5386 408.779 85.359 408.783 85.0878C408.779 84.7505 409.16 84.5306 409.644 84.5306C410.187 84.5306 410.509 84.8275 410.586 85.1904L412.016 85.1024Z" fill="#171A22"/>
<path d="M438.561 83.779H440.083C440.061 82.441 438.961 81.5173 437.289 81.5173C435.644 81.5173 434.438 82.4264 434.445 83.79C434.441 84.8971 435.222 85.5312 436.49 85.8355L437.308 86.0408C438.125 86.2387 438.58 86.4733 438.583 86.9792C438.58 87.5291 438.059 87.903 437.253 87.903C436.428 87.903 435.834 87.5217 435.783 86.7703H434.247C434.287 88.3942 435.449 89.2336 437.271 89.2336C439.104 89.2336 440.182 88.3575 440.185 86.9829C440.182 85.7329 439.24 85.0694 437.935 84.7761L437.26 84.6148C436.608 84.4645 436.061 84.2226 436.072 83.6837C436.072 83.1998 436.501 82.8443 437.278 82.8443C438.037 82.8443 438.503 83.1889 438.561 83.779Z" fill="#171A22"/>
<path d="M444.834 86.7299C444.838 87.4851 444.321 87.881 443.76 87.881C443.17 87.881 442.789 87.4667 442.785 86.8032V83.4968H441.224V87.0818C441.227 88.3978 441.997 89.2006 443.13 89.2006C443.977 89.2006 444.585 88.7644 444.838 88.1046H444.897V89.1273H446.396V83.4968H444.834V86.7299Z" fill="#171A22"/>
<path d="M447.674 89.1273H449.214V88.2255H449.284C449.5 88.6948 449.973 89.2189 450.882 89.2189C452.165 89.2189 453.166 88.2035 453.166 86.3194C453.166 84.3839 452.121 83.4235 450.886 83.4235C449.944 83.4235 449.493 83.9843 449.284 84.4425H449.236V81.6199H447.674V89.1273ZM449.203 86.312C449.203 85.3076 449.628 84.6661 450.387 84.6661C451.161 84.6661 451.571 85.337 451.571 86.312C451.571 87.2944 451.153 87.9763 450.387 87.9763C449.636 87.9763 449.203 87.3164 449.203 86.312Z" fill="#171A22"/>
<path d="M456.282 89.2189C457.192 89.2189 457.664 88.6948 457.881 88.2255H457.947V89.1273H459.486V81.6199H457.928V84.4425H457.881C457.672 83.9843 457.221 83.4235 456.279 83.4235C455.043 83.4235 453.999 84.3839 453.999 86.3194C453.999 88.2035 454.999 89.2189 456.282 89.2189ZM456.777 87.9763C456.011 87.9763 455.593 87.2944 455.593 86.312C455.593 85.337 456.004 84.6661 456.777 84.6661C457.536 84.6661 457.961 85.3076 457.961 86.312C457.961 87.3164 457.529 87.9763 456.777 87.9763Z" fill="#171A22"/>
<path d="M463.314 89.2373C465.022 89.2373 466.085 88.0679 466.085 86.334C466.085 84.5892 465.022 83.4235 463.314 83.4235C461.606 83.4235 460.543 84.5892 460.543 86.334C460.543 88.0679 461.606 89.2373 463.314 89.2373ZM463.322 88.0276C462.533 88.0276 462.13 87.3054 462.13 86.323C462.13 85.3406 462.533 84.6148 463.322 84.6148C464.095 84.6148 464.498 85.3406 464.498 86.323C464.498 87.3054 464.095 88.0276 463.322 88.0276Z" fill="#171A22"/>
<path d="M467.101 89.1273H468.662V85.7475C468.662 85.1243 469.058 84.7101 469.579 84.7101C470.092 84.7101 470.437 85.062 470.437 85.6156V89.1273H471.951V85.6889C471.951 85.106 472.284 84.7101 472.852 84.7101C473.351 84.7101 473.725 85.0217 473.725 85.6485V89.1273H475.283V85.3406C475.283 84.1199 474.557 83.4235 473.509 83.4235C472.684 83.4235 472.042 83.845 471.811 84.4902H471.753C471.573 83.8377 470.998 83.4235 470.224 83.4235C469.465 83.4235 468.89 83.8267 468.655 84.4902H468.589V83.4968H467.101V89.1273Z" fill="#171A22"/>
<path d="M478.122 89.2336C478.954 89.2336 479.493 88.8707 479.768 88.3465H479.812V89.1273H481.293V85.3296C481.293 83.988 480.156 83.4235 478.903 83.4235C477.554 83.4235 476.667 84.0686 476.45 85.095L477.895 85.2123C478.001 84.8384 478.334 84.5635 478.895 84.5635C479.427 84.5635 479.731 84.8311 479.731 85.293V85.315C479.731 85.6779 479.346 85.7255 478.367 85.8208C477.253 85.9235 476.252 86.2974 476.252 87.5547C476.252 88.6691 477.048 89.2336 478.122 89.2336ZM478.569 88.1559C478.089 88.1559 477.744 87.9323 477.744 87.5034C477.744 87.0635 478.107 86.8472 478.657 86.7703C478.998 86.7226 479.555 86.642 479.742 86.5173V87.1148C479.742 87.705 479.255 88.1559 478.569 88.1559Z" fill="#171A22"/>
<path d="M482.504 89.1273H484.066V83.4968H482.504V89.1273ZM483.289 82.771C483.754 82.771 484.135 82.4154 484.135 81.9792C484.135 81.5466 483.754 81.191 483.289 81.191C482.827 81.191 482.446 81.5466 482.446 81.9792C482.446 82.4154 482.827 82.771 483.289 82.771Z" fill="#171A22"/>
<path d="M486.878 85.8722C486.882 85.1463 487.315 84.7211 487.945 84.7211C488.572 84.7211 488.949 85.1317 488.946 85.8208V89.1273H490.507V85.5422C490.507 84.2299 489.738 83.4235 488.565 83.4235C487.729 83.4235 487.124 83.834 486.871 84.4902H486.805V83.4968H485.317V89.1273H486.878V85.8722Z" fill="#171A22"/>
<path d="M496.423 85.1024C496.284 84.065 495.448 83.4235 494.026 83.4235C492.585 83.4235 491.635 84.0906 491.639 85.1757C491.635 86.0188 492.167 86.565 493.267 86.7849L494.242 86.9792C494.733 87.0782 494.957 87.2578 494.964 87.5401C494.957 87.8736 494.594 88.1119 494.048 88.1119C493.49 88.1119 493.12 87.8736 493.025 87.4154L491.489 87.4961C491.635 88.5738 492.552 89.2373 494.044 89.2373C495.503 89.2373 496.548 88.4931 496.551 87.3824C496.548 86.5686 496.016 86.0811 494.924 85.8575L493.905 85.6522C493.38 85.5386 493.186 85.359 493.19 85.0877C493.186 84.7504 493.567 84.5305 494.051 84.5305C494.594 84.5305 494.916 84.8274 494.993 85.1903L496.423 85.1024Z" fill="#171A22"/>
<path d="M165.173 120.984H167.365V127.206H168.21V120.984H170.402V120.235H165.173V120.984Z" fill="#171A22"/>
<path d="M171.053 127.206H171.856V123.897C171.856 123.189 172.414 122.672 173.177 122.672C173.391 122.672 173.612 122.713 173.667 122.726V121.909C173.575 121.903 173.364 121.896 173.245 121.896C172.618 121.896 172.074 122.25 171.883 122.767H171.829V121.978H171.053V127.206Z" fill="#171A22"/>
<path d="M176.158 127.328C177.07 127.328 177.546 126.838 177.71 126.498H177.751V127.206H178.554V123.761C178.554 122.1 177.288 121.909 176.621 121.909C175.831 121.909 174.932 122.182 174.524 123.135L175.286 123.407C175.463 123.026 175.882 122.617 176.648 122.617C177.386 122.617 177.751 123.009 177.751 123.679V123.707C177.751 124.095 177.356 124.061 176.403 124.183C175.433 124.309 174.374 124.524 174.374 125.722C174.374 126.743 175.164 127.328 176.158 127.328ZM176.28 126.607C175.64 126.607 175.177 126.321 175.177 125.763C175.177 125.15 175.736 124.959 176.362 124.878C176.702 124.837 177.614 124.741 177.751 124.578V125.313C177.751 125.967 177.233 126.607 176.28 126.607Z" fill="#171A22"/>
<path d="M182.348 121.978H181.177V121.447C181.177 120.929 181.395 120.657 181.926 120.657C182.158 120.657 182.294 120.711 182.376 120.739L182.607 120.044C182.485 119.99 182.239 119.908 181.845 119.908C181.096 119.908 180.374 120.357 180.374 121.256V121.978H179.53V122.658H180.374V127.206H181.177V122.658H182.348V121.978Z" fill="#171A22"/>
<path d="M185.802 121.978H184.632V121.447C184.632 120.929 184.849 120.657 185.38 120.657C185.612 120.657 185.748 120.711 185.83 120.739L186.061 120.044C185.939 119.99 185.694 119.908 185.299 119.908C184.55 119.908 183.828 120.357 183.828 121.256V121.978H182.984V122.658H183.828V127.206H184.632V122.658H185.802V121.978Z" fill="#171A22"/>
<path d="M186.928 127.206H187.732V121.978H186.928V127.206ZM187.337 121.106C187.65 121.106 187.909 120.861 187.909 120.562C187.909 120.262 187.65 120.017 187.337 120.017C187.024 120.017 186.765 120.262 186.765 120.562C186.765 120.861 187.024 121.106 187.337 121.106Z" fill="#171A22"/>
<path d="M191.327 127.315C192.484 127.315 193.247 126.607 193.383 125.681H192.58C192.43 126.253 191.953 126.593 191.327 126.593C190.374 126.593 189.761 125.803 189.761 124.592C189.761 123.407 190.388 122.631 191.327 122.631C192.035 122.631 192.457 123.067 192.58 123.543H193.383C193.247 122.563 192.416 121.909 191.313 121.909C189.897 121.909 188.958 123.026 188.958 124.619C188.958 126.185 189.857 127.315 191.327 127.315Z" fill="#171A22"/>
<path d="M166.232 157.953H179.611V154.708H171.73V154.58L174.47 151.895C178.328 148.376 179.364 146.616 179.364 144.481C179.364 141.228 176.706 138.927 172.683 138.927C168.743 138.927 166.039 141.283 166.048 144.967H169.815C169.806 143.171 170.942 142.071 172.656 142.071C174.305 142.071 175.533 143.097 175.533 144.747C175.533 146.241 174.617 147.267 172.912 148.907L166.232 155.093V157.953Z" fill="#171A22"/>
<path d="M181.799 154.653H190.808V157.953H194.602V154.653H196.93V151.473H194.602V139.184H189.635L181.799 151.528V154.653ZM190.881 151.473H185.795V151.327L190.735 143.51H190.881V151.473Z" fill="#171A22"/>
<path d="M206.575 158.209C210.809 158.209 213.852 155.946 213.861 152.903C213.852 150.557 212.046 148.642 209.792 148.266V148.138C211.753 147.734 213.155 146.039 213.164 143.977C213.155 141.072 210.369 138.927 206.575 138.927C202.772 138.927 199.986 141.072 199.995 143.977C199.986 146.03 201.37 147.734 203.368 148.138V148.266C201.077 148.642 199.289 150.557 199.299 152.903C199.289 155.946 202.341 158.209 206.575 158.209ZM206.575 155.295C204.687 155.295 203.423 154.177 203.423 152.591C203.423 150.969 204.751 149.796 206.575 149.796C208.39 149.796 209.728 150.969 209.728 152.591C209.728 154.186 208.454 155.295 206.575 155.295ZM206.575 146.91C204.99 146.91 203.862 145.874 203.862 144.389C203.862 142.923 204.971 141.915 206.575 141.915C208.17 141.915 209.288 142.932 209.288 144.389C209.288 145.874 208.151 146.91 206.575 146.91Z" fill="#171A22"/>
<path d="M224.657 149.728H223.813L222.07 150.885V151.743L223.772 150.613H223.813V156.699H224.657V149.728Z" fill="#84D149"/>
<path d="M229.018 156.794C230.369 156.794 231.373 155.947 231.373 154.807C231.373 153.922 230.849 153.278 229.971 153.132V153.077C230.675 152.863 231.114 152.284 231.114 151.498C231.114 150.511 230.335 149.633 229.045 149.633C227.84 149.633 226.839 150.375 226.798 151.471H227.615C227.646 150.776 228.306 150.368 229.031 150.368C229.801 150.368 230.298 150.834 230.298 151.539C230.298 152.274 229.722 152.751 228.895 152.751H228.337V153.499H228.895C229.954 153.499 230.543 154.037 230.543 154.807C230.543 155.545 229.899 156.046 229.004 156.046C228.197 156.046 227.557 155.63 227.506 154.956H226.649C226.7 156.052 227.666 156.794 229.018 156.794Z" fill="#84D149"/>
<path d="M233.149 156.754C233.486 156.754 233.762 156.478 233.762 156.141C233.762 155.804 233.486 155.528 233.149 155.528C232.812 155.528 232.536 155.804 232.536 156.141C232.536 156.478 232.812 156.754 233.149 156.754Z" fill="#84D149"/>
<path d="M235.267 156.699H236.152L239.257 150.518V149.728H234.791V150.477H238.385V150.531L235.267 156.699Z" fill="#84D149"/>
<path d="M242.69 156.794C244.099 156.811 245.018 155.749 245.018 154.453C245.018 153.105 244.021 152.138 242.826 152.138C242.108 152.138 241.492 152.489 241.111 153.064H241.056C241.06 151.365 241.72 150.382 242.799 150.382C243.534 150.382 243.977 150.844 244.133 151.471H244.964C244.794 150.388 243.97 149.633 242.799 149.633C241.23 149.633 240.267 151.021 240.267 153.486C240.267 156.063 241.546 156.781 242.69 156.794ZM242.69 156.046C241.815 156.046 241.175 155.3 241.179 154.466C241.182 153.632 241.853 152.887 242.717 152.887C243.572 152.887 244.202 153.588 244.202 154.453C244.202 155.338 243.545 156.046 242.69 156.046Z" fill="#84D149"/>
<path d="M249.911 155.392C249.911 156.155 250.387 156.794 251.272 156.794C252.144 156.794 252.62 156.155 252.62 155.392V155.024C252.62 154.262 252.157 153.622 251.272 153.622C250.401 153.622 249.911 154.262 249.911 155.024V155.392ZM246.439 151.403C246.439 152.165 246.915 152.805 247.8 152.805C248.672 152.805 249.148 152.165 249.148 151.403V151.035C249.148 150.273 248.685 149.633 247.8 149.633C246.929 149.633 246.439 150.273 246.439 151.035V151.403ZM246.697 156.699H247.473L252.266 149.728H251.49L246.697 156.699ZM250.605 155.024C250.605 154.602 250.796 154.207 251.272 154.207C251.762 154.207 251.926 154.602 251.926 155.024V155.392C251.926 155.814 251.749 156.209 251.272 156.209C250.782 156.209 250.605 155.814 250.605 155.392V155.024ZM247.133 151.035C247.133 150.613 247.324 150.218 247.8 150.218C248.29 150.218 248.454 150.613 248.454 151.035V151.403C248.454 151.825 248.277 152.22 247.8 152.22C247.31 152.22 247.133 151.825 247.133 151.403V151.035Z" fill="#84D149"/>
<path d="M283.884 120.984H286.076V127.206H286.92V120.984H289.112V120.235H283.884V120.984Z" fill="#171A22"/>
<path d="M289.763 127.206H290.566V123.897C290.566 123.189 291.125 122.672 291.887 122.672C292.101 122.672 292.323 122.713 292.377 122.726V121.909C292.285 121.903 292.074 121.896 291.955 121.896C291.329 121.896 290.784 122.25 290.594 122.767H290.539V121.978H289.763V127.206Z" fill="#171A22"/>
<path d="M294.868 127.328C295.78 127.328 296.257 126.838 296.42 126.498H296.461V127.206H297.264V123.761C297.264 122.1 295.998 121.909 295.331 121.909C294.541 121.909 293.643 122.182 293.234 123.135L293.997 123.407C294.174 123.026 294.592 122.617 295.358 122.617C296.097 122.617 296.461 123.009 296.461 123.679V123.707C296.461 124.095 296.066 124.061 295.113 124.183C294.143 124.309 293.084 124.524 293.084 125.722C293.084 126.743 293.874 127.328 294.868 127.328ZM294.991 126.607C294.351 126.607 293.888 126.321 293.888 125.763C293.888 125.15 294.446 124.959 295.072 124.878C295.413 124.837 296.325 124.741 296.461 124.578V125.313C296.461 125.967 295.944 126.607 294.991 126.607Z" fill="#171A22"/>
<path d="M301.059 121.978H299.888V121.447C299.888 120.929 300.106 120.657 300.637 120.657C300.868 120.657 301.004 120.711 301.086 120.739L301.317 120.044C301.195 119.99 300.95 119.908 300.555 119.908C299.806 119.908 299.085 120.357 299.085 121.256V121.978H298.24V122.658H299.085V127.206H299.888V122.658H301.059V121.978Z" fill="#171A22"/>
<path d="M304.513 121.978H303.342V121.447C303.342 120.929 303.56 120.657 304.091 120.657C304.322 120.657 304.458 120.711 304.54 120.739L304.772 120.044C304.649 119.99 304.404 119.908 304.009 119.908C303.26 119.908 302.539 120.357 302.539 121.256V121.978H301.694V122.658H302.539V127.206H303.342V122.658H304.513V121.978Z" fill="#171A22"/>
<path d="M305.639 127.206H306.442V121.978H305.639V127.206ZM306.047 121.106C306.36 121.106 306.619 120.861 306.619 120.562C306.619 120.262 306.36 120.017 306.047 120.017C305.734 120.017 305.475 120.262 305.475 120.562C305.475 120.861 305.734 121.106 306.047 121.106Z" fill="#171A22"/>
<path d="M310.037 127.315C311.195 127.315 311.957 126.607 312.093 125.681H311.29C311.14 126.253 310.664 126.593 310.037 126.593C309.084 126.593 308.472 125.803 308.472 124.592C308.472 123.407 309.098 122.631 310.037 122.631C310.745 122.631 311.167 123.067 311.29 123.543H312.093C311.957 122.563 311.127 121.909 310.024 121.909C308.608 121.909 307.668 123.026 307.668 124.619C307.668 126.185 308.567 127.315 310.037 127.315Z" fill="#171A22"/>
<path d="M321.682 122.413C321.423 120.984 320.28 120.139 318.877 120.139C317.094 120.139 315.8 121.515 315.8 123.72C315.8 125.926 317.094 127.301 318.877 127.301C320.28 127.301 321.423 126.457 321.682 125.027H320.838C320.634 125.994 319.803 126.511 318.877 126.511C317.611 126.511 316.617 125.531 316.617 123.72C316.617 121.909 317.611 120.929 318.877 120.929C319.803 120.929 320.634 121.447 320.838 122.413H321.682Z" fill="#171A22"/>
<path d="M325.061 127.315C326.477 127.315 327.43 126.239 327.43 124.619C327.43 122.985 326.477 121.909 325.061 121.909C323.645 121.909 322.692 122.985 322.692 124.619C322.692 126.239 323.645 127.315 325.061 127.315ZM325.061 126.593C323.986 126.593 323.495 125.667 323.495 124.619C323.495 123.571 323.986 122.631 325.061 122.631C326.137 122.631 326.627 123.571 326.627 124.619C326.627 125.667 326.137 126.593 325.061 126.593Z" fill="#171A22"/>
<path d="M332.36 123.148C332.108 122.406 331.543 121.909 330.508 121.909C329.405 121.909 328.588 122.536 328.588 123.421C328.588 124.142 329.017 124.626 329.977 124.85L330.849 125.055C331.376 125.177 331.625 125.429 331.625 125.79C331.625 126.239 331.148 126.607 330.399 126.607C329.742 126.607 329.33 126.324 329.188 125.763L328.425 125.953C328.612 126.842 329.344 127.315 330.413 127.315C331.628 127.315 332.455 126.651 332.455 125.749C332.455 125.021 331.999 124.561 331.066 124.333L330.29 124.142C329.671 123.989 329.392 123.782 329.392 123.38C329.392 122.931 329.868 122.604 330.508 122.604C331.209 122.604 331.499 122.992 331.638 123.353L332.36 123.148Z" fill="#171A22"/>
<path d="M335.938 121.978H334.822V120.725H334.018V121.978H333.229V122.658H334.018V125.926C334.018 126.838 334.754 127.274 335.434 127.274C335.734 127.274 335.925 127.219 336.034 127.179L335.87 126.457C335.802 126.471 335.693 126.498 335.516 126.498C335.162 126.498 334.822 126.389 334.822 125.708V122.658H335.938V121.978Z" fill="#171A22"/>
<path d="M340.756 123.148C340.505 122.406 339.94 121.909 338.905 121.909C337.802 121.909 336.985 122.536 336.985 123.421C336.985 124.142 337.414 124.626 338.374 124.85L339.245 125.055C339.773 125.177 340.021 125.429 340.021 125.79C340.021 126.239 339.545 126.607 338.796 126.607C338.139 126.607 337.727 126.324 337.584 125.763L336.822 125.953C337.009 126.842 337.741 127.315 338.809 127.315C340.025 127.315 340.852 126.651 340.852 125.749C340.852 125.021 340.396 124.561 339.463 124.333L338.687 124.142C338.067 123.989 337.788 123.782 337.788 123.38C337.788 122.931 338.265 122.604 338.905 122.604C339.606 122.604 339.895 122.992 340.035 123.353L340.756 123.148Z" fill="#171A22"/>
<path d="M290.835 160.299H292.997L293.016 158.182C296.984 157.879 299.284 155.771 299.293 152.591C299.284 149.466 296.929 147.808 293.666 147.075L293.126 146.946L293.162 142.364C294.381 142.648 295.124 143.427 295.233 144.582H299.037C298.991 141.548 296.727 139.377 293.199 138.992L293.217 136.838H291.055L291.036 138.973C287.453 139.322 284.924 141.484 284.942 144.609C284.933 147.377 286.885 148.962 290.056 149.723L290.935 149.943L290.89 154.791C289.396 154.507 288.388 153.59 288.287 152.06H284.447C284.539 155.762 286.967 157.833 290.853 158.172L290.835 160.299ZM293.052 154.791L293.089 150.511C294.51 150.96 295.279 151.538 295.288 152.582C295.279 153.691 294.436 154.516 293.052 154.791ZM290.963 146.387C289.817 145.993 288.993 145.397 289.011 144.344C289.011 143.363 289.707 142.602 291 142.337L290.963 146.387Z" fill="#171A22"/>
<path d="M310.018 139.184H306.288L301.642 142.126V145.645L305.94 142.951H306.05V157.953H310.018V139.184Z" fill="#171A22"/>
<path d="M322.644 139.184H318.914L314.268 142.126V145.645L318.566 142.951H318.676V157.953H322.644V139.184Z" fill="#171A22"/>
<path d="M333.895 138.927C329.698 138.909 326.866 141.658 326.885 145.434C326.894 148.935 329.322 151.473 332.649 151.473C334.711 151.473 336.544 150.474 337.378 148.825H337.506C337.497 152.546 336.205 154.809 333.758 154.809C332.319 154.809 331.283 154.021 330.981 152.656H327.068C327.434 155.817 330 158.209 333.758 158.209C338.404 158.209 341.401 154.452 341.392 148.083C341.383 141.283 337.753 138.946 333.895 138.927ZM333.923 142.043C335.746 142.043 337.094 143.528 337.112 145.315C337.121 147.111 335.701 148.596 333.886 148.596C332.053 148.596 330.743 147.166 330.734 145.324C330.715 143.491 332.081 142.043 333.923 142.043Z" fill="#171A22"/>
<path d="M353.459 149.633C352.043 149.616 351.131 150.681 351.131 151.961C351.131 153.309 352.125 154.276 353.323 154.276C354.044 154.276 354.657 153.922 355.038 153.35H355.093C355.093 155.065 354.426 156.046 353.35 156.046C352.615 156.046 352.165 155.583 352.016 154.943H351.185C351.348 156.046 352.179 156.794 353.35 156.794C354.916 156.794 355.882 155.406 355.882 152.928C355.882 150.368 354.603 149.646 353.459 149.633ZM353.459 150.381C354.33 150.381 354.97 151.13 354.97 151.947C354.97 152.778 354.289 153.527 353.432 153.527C352.574 153.527 351.948 152.832 351.948 151.961C351.948 151.09 352.601 150.381 353.459 150.381Z" fill="#84D149"/>
<path d="M359.672 149.728H358.828L357.085 150.885V151.743L358.787 150.613H358.828V156.699H359.672V149.728Z" fill="#84D149"/>
<path d="M361.864 156.754C362.201 156.754 362.477 156.478 362.477 156.141C362.477 155.804 362.201 155.528 361.864 155.528C361.527 155.528 361.251 155.804 361.251 156.141C361.251 156.478 361.527 156.754 361.864 156.754Z" fill="#84D149"/>
<path d="M366.058 149.633C364.642 149.616 363.73 150.681 363.73 151.961C363.73 153.309 364.724 154.276 365.922 154.276C366.644 154.276 367.256 153.922 367.638 153.35H367.692C367.692 155.065 367.025 156.046 365.949 156.046C365.214 156.046 364.765 155.583 364.615 154.943H363.785C363.948 156.046 364.778 156.794 365.949 156.794C367.515 156.794 368.482 155.406 368.482 152.928C368.482 150.368 367.202 149.646 366.058 149.633ZM366.058 150.381C366.93 150.381 367.57 151.13 367.57 151.947C367.57 152.778 366.889 153.527 366.031 153.527C365.173 153.527 364.547 152.832 364.547 151.961C364.547 151.09 365.201 150.381 366.058 150.381Z" fill="#84D149"/>
<path d="M369.657 155.269H372.938V156.699H373.742V155.269H374.695V154.521H373.742V149.728H372.721L369.657 154.575V155.269ZM372.938 154.521H370.569V154.466L372.884 150.804H372.938V154.521Z" fill="#84D149"/>
<path d="M379.524 155.392C379.524 156.154 380.001 156.794 380.886 156.794C381.757 156.794 382.234 156.154 382.234 155.392V155.024C382.234 154.262 381.771 153.622 380.886 153.622C380.014 153.622 379.524 154.262 379.524 155.024V155.392ZM376.052 151.403C376.052 152.165 376.529 152.805 377.414 152.805C378.285 152.805 378.762 152.165 378.762 151.403V151.035C378.762 150.273 378.299 149.633 377.414 149.633C376.542 149.633 376.052 150.273 376.052 151.035V151.403ZM376.311 156.699H377.087L381.88 149.728H381.103L376.311 156.699ZM380.218 155.024C380.218 154.602 380.409 154.207 380.886 154.207C381.376 154.207 381.539 154.602 381.539 155.024V155.392C381.539 155.814 381.362 156.209 380.886 156.209C380.395 156.209 380.218 155.814 380.218 155.392V155.024ZM376.746 151.035C376.746 150.613 376.937 150.218 377.414 150.218C377.904 150.218 378.067 150.613 378.067 151.035V151.403C378.067 151.825 377.89 152.22 377.414 152.22C376.923 152.22 376.746 151.825 376.746 151.403V151.035Z" fill="#84D149"/>
<path d="M62.2023 45.9827C62.1944 40.7198 58.9223 37.724 54.6569 37.7304C50.3681 37.7368 47.1284 40.7422 47.1362 46.0051C47.144 51.2445 50.3927 54.2639 54.6816 54.2575C58.9469 54.2511 62.2101 51.2456 62.2023 45.9827ZM58.7539 45.9878C58.759 49.3969 57.1436 51.2453 54.6771 51.249C52.2027 51.2527 50.5897 49.4091 50.5846 46C50.5795 42.5909 52.1871 40.7425 54.6614 40.7389C57.1279 40.7352 58.7488 42.5787 58.7539 45.9878Z" fill="#171A22"/>
<path d="M64.671 54.0227L68.0172 54.0177L68.0071 47.1916C68.0048 45.707 69.0873 44.6842 70.5641 44.682C71.0275 44.6813 71.6639 44.7589 71.9783 44.8606L71.9738 41.8913C71.6752 41.8211 71.2589 41.7746 70.9211 41.7751C69.57 41.7771 68.4636 42.5642 68.026 44.0574L67.9003 44.0576L67.8971 41.9524L64.653 41.9572L64.671 54.0227Z" fill="#171A22"/>
<path d="M78.6032 58.7778C82.0516 58.7727 84.5 57.198 84.4954 54.1109L84.4773 41.9277L81.1546 41.9326L81.1576 43.9593L81.0319 43.9594C80.5827 42.9782 79.599 41.7779 77.5803 41.7809C74.9331 41.7848 72.6975 43.8462 72.7036 47.9544C72.7096 51.9683 74.8882 53.8346 77.6061 53.8306C79.5306 53.8277 80.6053 52.8599 81.0437 51.8617L81.1851 51.8615L81.1884 54.0687C81.1908 55.7262 80.1314 56.3719 78.6782 56.374C77.2014 56.3762 76.4542 55.7332 76.1782 55.0031L73.0839 55.424C73.4873 57.3244 75.3512 58.7826 78.6032 58.7778ZM78.6628 51.3154C77.0211 51.3178 76.1236 50.0152 76.1205 47.9336C76.1175 45.8834 76.9951 44.4446 78.6525 44.4421C80.2785 44.4397 81.1918 45.813 81.1949 47.926C81.1981 50.0548 80.2731 51.313 78.6628 51.3154Z" fill="#171A22"/>
<path d="M90.599 54.2118C92.3821 54.2092 93.5356 53.4298 94.1231 52.3056L94.2174 52.3055L94.2199 53.9786L97.3933 53.9739L97.3812 45.836C97.3769 42.9611 94.94 41.755 92.2536 41.759C89.3629 41.7633 87.464 43.1486 87.0039 45.3488L90.0991 45.5955C90.3257 44.7939 91.0397 44.2037 92.2415 44.202C93.3805 44.2003 94.0333 44.7727 94.0348 45.7625L94.0349 45.8096C94.036 46.5872 93.2114 46.6906 91.1144 46.8979C88.7268 47.1214 86.5835 47.9259 86.5875 50.6202C86.5911 53.0081 88.2974 54.2152 90.599 54.2118ZM91.5539 51.901C90.5249 51.9025 89.7858 51.4245 89.7844 50.5054C89.783 49.5628 90.56 49.0982 91.738 48.9315C92.4683 48.8283 93.6621 48.6537 94.0623 48.386L94.0642 49.6664C94.0661 50.9311 93.0228 51.8988 91.5539 51.901Z" fill="#171A22"/>
<path d="M103.325 46.9897C103.331 45.4344 104.256 44.5218 105.607 44.5198C106.951 44.5178 107.761 45.3964 107.755 46.8731L107.766 53.9584L111.112 53.9535L111.101 46.2712C111.097 43.459 109.444 41.7334 106.931 41.7371C105.14 41.7398 103.845 42.6215 103.305 44.0284L103.164 44.0286L103.161 41.8999L99.9714 41.9046L99.9894 53.97L103.336 53.965L103.325 46.9897Z" fill="#171A22"/>
<path d="M113.75 53.9495L117.096 53.9445L117.078 41.8791L113.732 41.8841L113.75 53.9495ZM115.41 40.3263C116.408 40.3248 117.224 39.5616 117.222 38.6269C117.221 37.7 116.403 36.9393 115.405 36.9407C114.415 36.9422 113.6 37.7054 113.601 38.6323C113.602 39.567 114.421 40.3278 115.41 40.3263Z" fill="#171A22"/>
<path d="M125.228 54.1681C128.441 54.1633 130.457 52.2751 130.61 49.502L127.452 49.5067C127.258 50.7952 126.41 51.5191 125.264 51.5208C123.7 51.5232 122.685 50.2129 122.682 47.9035C122.678 45.6255 123.697 44.32 125.253 44.3177C126.478 44.3159 127.265 45.1238 127.447 46.3254L130.605 46.3207C130.46 43.5323 128.344 41.7052 125.194 41.7099C121.533 41.7154 119.275 44.2559 119.28 47.9557C119.286 51.624 121.513 54.1736 125.228 54.1681Z" fill="#171A22"/>
<path d="M137.941 53.9135L141.343 53.9084L141.334 48.2056L143.816 48.2019L146.873 53.9002L150.627 53.8946L147.201 47.647C149.03 46.8588 150.041 45.2627 150.038 43.0633C150.033 39.8662 147.917 37.8113 144.264 37.8168L137.917 37.8262L137.941 53.9135ZM141.33 45.472L141.323 40.6019L143.616 40.5985C145.58 40.5955 146.532 41.466 146.534 43.0685C146.537 44.6631 145.587 45.4657 143.639 45.4686L141.33 45.472Z" fill="#171A22"/>
<path d="M157.699 54.1197C160.684 54.1152 162.693 52.6591 163.161 50.4197L160.066 50.22C159.729 51.1396 158.866 51.62 157.75 51.6217C156.077 51.6242 155.015 50.5182 155.013 48.7194L155.013 48.7115L163.229 48.6993L163.228 47.7802C163.221 43.6799 160.736 41.657 157.547 41.6617C153.997 41.667 151.699 44.1919 151.704 47.9152C151.71 51.7407 153.984 54.1252 157.699 54.1197ZM155.009 46.6378C155.078 45.263 156.121 44.1618 157.606 44.1596C159.059 44.1574 160.066 45.1928 160.076 46.6302L155.009 46.6378Z" fill="#171A22"/>
<path d="M175.446 45.2327C175.145 43.0101 173.352 41.6382 170.304 41.6427C167.217 41.6473 165.184 43.08 165.196 45.4051C165.191 47.2117 166.331 48.3805 168.688 48.8482L170.779 49.2615C171.831 49.472 172.311 49.8562 172.328 50.461C172.313 51.1758 171.536 51.6876 170.366 51.6893C169.172 51.6911 168.378 51.1817 168.172 50.2001L164.881 50.3778C165.199 52.6867 167.165 54.1056 170.362 54.1008C173.488 54.0962 175.724 52.4982 175.729 50.1181C175.718 48.3743 174.578 47.3313 172.236 46.8556L170.052 46.419C168.928 46.1772 168.511 45.7929 168.518 45.2116C168.509 44.4889 169.325 44.0164 170.362 44.0149C171.525 44.0131 172.217 44.6484 172.383 45.4258L175.446 45.2327Z" fill="#171A22"/>
<path d="M183.34 54.0815C186.325 54.077 188.334 52.6209 188.802 50.3814L185.707 50.1818C185.37 51.1014 184.507 51.5818 183.391 51.5835C181.718 51.586 180.656 50.48 180.654 48.6812L180.654 48.6733L188.87 48.6611L188.869 47.742C188.862 43.6417 186.377 41.6188 183.188 41.6235C179.638 41.6288 177.34 44.1537 177.345 47.877C177.351 51.7025 179.625 54.087 183.34 54.0815ZM180.65 46.5996C180.719 45.2248 181.762 44.1236 183.247 44.1213C184.7 44.1192 185.707 45.1546 185.717 46.592L180.65 46.5996Z" fill="#171A22"/>
<path d="M194.502 54.057C196.285 54.0543 197.439 53.275 198.026 52.1508L198.121 52.1507L198.123 53.8238L201.297 53.8191L201.284 45.6812C201.28 42.8062 198.843 41.6002 196.157 41.6042C193.266 41.6085 191.367 42.9938 190.907 45.1939L194.002 45.4407C194.229 44.6391 194.943 44.0489 196.145 44.0471C197.284 44.0454 197.937 44.6179 197.938 45.6076L197.938 45.6548C197.939 46.4324 197.115 46.5358 195.018 46.7431C192.63 46.9666 190.487 47.771 190.491 50.4653C190.494 52.8533 192.201 54.0604 194.502 54.057ZM195.457 51.7462C194.428 51.7477 193.689 51.2696 193.688 50.3506C193.686 49.408 194.463 48.9434 195.641 48.7767C196.372 48.6735 197.565 48.4989 197.966 48.2312L197.967 49.5116C197.969 50.7763 196.926 51.744 195.457 51.7462Z" fill="#171A22"/>
<path d="M203.893 53.8152L207.239 53.8102L207.229 46.9841C207.227 45.4995 208.309 44.4768 209.786 44.4746C210.249 44.4739 210.886 44.5515 211.2 44.6531L211.196 41.6839C210.897 41.6136 210.481 41.5671 210.143 41.5676C208.792 41.5696 207.685 42.3568 207.248 43.8499L207.122 43.8501L207.119 41.745L203.875 41.7498L203.893 53.8152Z" fill="#171A22"/>
<path d="M217.834 54.0301C221.047 54.0253 223.063 52.1371 223.216 49.364L220.058 49.3687C219.863 50.6572 219.016 51.3812 217.869 51.3829C216.306 51.3852 215.291 50.0749 215.287 47.7655C215.284 45.4875 216.303 44.1821 217.858 44.1797C219.084 44.1779 219.871 44.9858 220.053 46.1874L223.211 46.1827C223.065 43.3943 220.949 41.5672 217.8 41.5719C214.139 41.5774 211.881 44.118 211.886 47.8177C211.892 51.486 214.118 54.0356 217.834 54.0301Z" fill="#171A22"/>
<path d="M228.7 46.8029C228.706 45.2476 229.655 44.335 231.022 44.3329C232.381 44.3309 233.183 45.2016 233.178 46.6863L233.188 53.7716L236.535 53.7666L236.523 46.0843C236.527 43.2564 234.859 41.5465 232.345 41.5503C230.515 41.553 229.291 42.4189 228.743 43.8415L228.602 43.8417L228.593 37.6911L225.341 37.696L225.365 53.7832L228.711 53.7782L228.7 46.8029Z" fill="#171A22"/>
<path d="M196.692 302.539C196.692 312.719 188.439 320.972 178.258 320.972C168.078 320.972 159.825 312.719 159.825 302.539C159.825 292.358 168.078 284.105 178.258 284.105C188.439 284.105 196.692 292.358 196.692 302.539Z" fill="#FF7AD1"/>
<path d="M254.941 292.953C254.941 303.134 246.688 311.387 236.508 311.387C226.327 311.387 218.074 303.134 218.074 292.953C218.074 282.773 226.327 274.52 236.508 274.52C246.688 274.52 254.941 282.773 254.941 292.953Z" fill="#00A8FF"/>
<path d="M417.154 287.792C417.154 299.601 407.581 309.175 395.771 309.175C383.962 309.175 374.389 299.601 374.389 287.792C374.389 275.983 383.962 266.41 395.771 266.41C407.581 266.41 417.154 275.983 417.154 287.792Z" fill="#B880FF"/>
<path d="M500.472 254.612C500.472 270.901 487.268 284.106 470.979 284.106C454.69 284.106 441.486 270.901 441.486 254.612C441.486 238.324 454.69 225.119 470.979 225.119C487.268 225.119 500.472 238.324 500.472 254.612Z" fill="#84D149"/>
<path d="M574.943 300.327C574.943 308.471 568.341 315.073 560.196 315.073C552.052 315.073 545.45 308.471 545.45 300.327C545.45 292.182 552.052 285.58 560.196 285.58C568.341 285.58 574.943 292.182 574.943 300.327Z" fill="#FF642D"/>
</svg>
